{"glyphs":{"0":{"ha":889,"x_min":0,"x_max":0,"o":"m 443 -17 b 786 494 672 -17 786 154 b 702 881 786 669 758 797 b 446 1006 646 964 561 1006 b 188 880 331 1006 245 964 b 103 494 131 796 103 668 b 443 -17 103 154 216 -17 z m 285 190 b 235 494 251 252 235 354 b 284 799 235 634 251 736 b 444 893 317 862 370 893 b 605 799 519 893 572 862 b 654 494 638 736 654 634 b 606 190 654 355 638 253 b 446 96 573 127 520 96 b 285 190 372 96 318 127 z "},"1":{"ha":624,"x_min":0,"x_max":0,"o":"m 446 0 l 446 989 l 342 989 l 338 974 b 261 854 322 921 296 881 b 97 814 224 827 169 814 l 60 814 l 60 717 l 317 717 l 317 0 z "},"2":{"ha":889,"x_min":0,"x_max":0,"o":"m 771 0 l 771 117 l 272 117 b 318 215 276 153 291 186 b 465 325 344 243 393 280 l 589 403 b 776 706 714 481 776 582 b 688 921 776 796 747 868 b 460 1000 627 974 551 1000 b 224 911 362 1000 283 970 b 133 671 163 851 133 771 l 133 650 l 263 650 l 263 665 b 313 828 263 737 279 791 b 457 885 347 866 395 885 b 596 836 515 885 562 869 b 647 700 630 804 647 758 b 513 494 647 618 602 549 l 340 388 b 174 226 264 340 209 286 b 114 0 140 165 119 90 z "},"3":{"ha":889,"x_min":0,"x_max":0,"o":"m 446 -19 b 714 65 557 -19 646 9 b 815 288 781 121 815 195 b 764 445 815 351 798 404 b 614 526 730 486 680 513 l 614 531 b 760 739 711 571 760 641 b 672 929 760 817 731 880 b 439 1001 613 977 535 1001 b 201 921 338 1001 259 975 b 108 692 143 867 112 791 l 238 692 b 290 840 241 760 259 810 b 433 886 321 871 369 886 b 628 728 563 886 628 833 b 440 575 628 626 565 575 l 369 575 l 369 463 l 475 463 b 631 417 544 463 595 447 b 683 288 666 387 683 344 b 624 147 683 227 663 180 b 449 96 584 113 525 96 b 203 314 291 96 209 169 l 74 314 b 178 69 77 209 112 128 b 446 -19 245 10 334 -19 z "},"4":{"ha":889,"x_min":0,"x_max":0,"o":"m 654 989 l 556 989 l 75 354 l 75 233 l 525 233 l 525 0 l 654 0 l 654 233 l 814 233 l 814 346 l 654 346 z m 207 346 l 522 761 l 525 761 l 525 346 z "},"5":{"ha":889,"x_min":0,"x_max":0,"o":"m 436 -22 b 692 74 545 -22 631 10 b 782 319 752 138 782 220 b 699 560 782 416 754 496 b 468 654 641 623 564 654 b 269 588 398 654 331 632 l 267 590 l 319 872 l 729 872 l 729 989 l 229 989 l 131 461 l 260 461 b 442 547 304 519 365 547 b 594 486 506 547 557 527 b 650 317 631 445 650 389 b 595 146 650 244 632 187 b 440 85 559 105 507 85 b 299 131 383 85 336 100 b 231 263 262 161 239 205 l 106 263 b 208 53 116 174 150 104 b 436 -22 266 3 342 -22 z "},"6":{"ha":889,"x_min":0,"x_max":0,"o":"m 472 644 b 228 522 365 644 283 604 b 460 903 236 776 313 903 b 580 863 509 903 549 889 b 636 751 611 836 630 799 l 758 751 b 670 940 754 830 724 893 b 463 1010 616 986 547 1010 b 197 869 347 1010 258 963 b 104 472 135 775 104 643 b 200 94 104 302 136 176 b 449 -18 260 19 343 -18 b 693 75 550 -18 632 13 b 783 322 753 138 783 220 b 699 556 783 419 755 496 b 472 644 642 615 567 644 z m 303 150 b 246 319 265 191 246 247 b 303 478 246 385 265 438 b 453 538 342 518 392 538 b 600 478 515 538 564 518 b 654 315 636 438 654 384 b 599 150 654 245 636 190 b 451 89 561 109 512 89 b 303 150 390 89 341 109 z "},"7":{"ha":889,"x_min":0,"x_max":0,"o":"m 374 0 b 502 519 391 202 434 375 b 792 889 570 663 667 786 l 792 989 l 96 989 l 96 869 l 636 869 b 364 501 519 764 429 641 b 236 0 299 360 256 194 z "},"8":{"ha":889,"x_min":0,"x_max":0,"o":"m 714 57 b 819 278 784 110 819 183 b 769 439 819 341 803 394 b 629 532 735 483 688 514 l 629 533 b 771 753 724 576 771 649 b 682 938 771 831 741 892 b 444 1006 623 983 544 1006 b 207 938 345 1006 266 983 b 118 753 148 892 118 831 b 260 533 118 649 165 576 l 260 532 b 120 439 200 514 154 483 b 69 278 86 394 69 341 b 176 57 69 183 105 110 b 444 -22 248 4 337 -22 b 714 57 554 -22 644 4 z m 444 582 b 294 624 380 582 329 596 b 240 744 258 653 240 693 b 444 899 240 847 308 899 b 649 744 581 899 649 847 b 596 624 649 693 631 653 b 444 582 561 596 510 582 z m 267 138 b 201 282 223 173 201 221 b 267 424 201 342 223 389 b 444 475 310 458 369 475 b 622 424 519 475 579 458 b 688 282 666 389 688 342 b 622 138 688 221 666 173 b 444 85 579 102 519 85 b 267 138 369 85 310 102 z "},"9":{"ha":889,"x_min":0,"x_max":0,"o":"m 689 897 b 440 1010 630 972 547 1010 b 197 917 338 1010 256 979 b 106 669 136 854 106 771 b 192 436 106 574 134 496 b 417 347 248 377 323 347 b 661 469 524 347 606 388 b 429 89 653 216 575 89 b 309 129 380 89 340 102 b 253 240 278 156 259 193 l 131 240 b 219 52 135 162 165 99 b 426 -18 273 5 342 -18 b 692 123 542 -18 631 29 b 785 519 754 217 785 349 b 689 897 785 690 753 816 z m 436 454 b 289 514 374 454 325 474 b 235 676 253 554 235 608 b 290 842 235 746 253 801 b 438 903 327 882 376 903 b 587 841 500 903 549 882 b 643 672 624 800 643 744 b 585 514 643 606 624 554 b 436 454 547 474 497 454 z "},"\u0000":{"ha":0,"x_min":0,"x_max":0,"o":""},"\r":{"ha":375,"x_min":0,"x_max":0,"o":""}," ":{"ha":375,"x_min":0,"x_max":0,"o":""},"!":{"ha":379,"x_min":0,"x_max":0,"o":"m 217 233 l 254 704 l 254 989 l 125 989 l 125 704 l 163 233 z m 261 0 l 261 140 l 118 140 l 118 0 z "},"\"":{"ha":611,"x_min":0,"x_max":0,"o":"m 225 606 l 225 989 l 111 989 l 111 606 z m 500 606 l 500 989 l 388 989 l 388 606 z "},"#":{"ha":935,"x_min":0,"x_max":0,"o":"m 875 732 l 722 728 l 758 989 l 654 989 l 617 726 l 382 726 l 419 989 l 315 989 l 279 728 l 113 732 l 113 626 l 265 631 l 226 358 l 60 363 l 60 258 l 214 263 l 176 0 l 281 0 l 318 264 l 553 264 l 515 0 l 619 0 l 657 263 l 822 258 l 822 363 l 669 358 l 708 631 l 875 626 z m 369 632 l 604 632 l 565 357 l 331 357 z "},"$":{"ha":889,"x_min":0,"x_max":0,"o":"m 796 292 b 734 453 796 357 775 411 b 535 549 693 494 626 526 l 422 575 b 290 635 359 591 315 611 b 253 731 265 660 253 692 b 444 882 253 831 317 882 b 588 843 507 882 555 869 b 650 722 621 817 642 777 l 772 722 b 508 986 755 881 667 969 l 508 1176 l 399 1176 l 399 986 b 198 907 312 979 245 952 b 128 726 151 862 128 801 b 386 464 128 592 214 505 l 497 438 b 630 380 558 424 603 404 b 671 276 657 355 671 321 b 616 153 671 225 653 183 b 454 107 579 122 525 107 b 285 156 378 107 322 123 b 217 307 248 188 225 238 l 94 307 b 399 3 119 119 221 18 l 399 -200 l 508 -200 l 508 3 b 719 95 597 13 667 44 b 796 292 770 147 796 212 z "},"%":{"ha":1690,"x_min":0,"x_max":0,"o":"m 374 424 b 565 504 458 424 522 450 b 631 738 609 558 631 636 b 565 971 631 839 609 917 b 374 1051 522 1025 458 1051 b 183 971 290 1051 227 1025 b 118 738 140 917 118 839 b 183 504 118 636 140 558 b 374 424 227 450 290 424 z m 583 -21 l 1203 1010 l 1076 1010 l 454 -21 z m 268 572 b 233 738 245 605 233 660 b 268 903 233 813 245 869 b 374 953 290 936 325 953 b 481 903 421 953 456 936 b 515 738 504 869 515 813 b 481 574 515 661 504 606 b 374 522 457 539 422 522 b 268 572 325 522 290 539 z m 1315 -22 b 1507 58 1400 -22 1463 5 b 1572 292 1550 112 1572 190 b 1507 525 1572 394 1550 471 b 1315 606 1463 579 1400 606 b 1125 525 1232 606 1169 579 b 1060 292 1081 471 1060 394 b 1125 58 1060 190 1081 112 b 1315 -22 1169 5 1232 -22 z m 1210 126 b 1175 292 1187 159 1175 214 b 1210 457 1175 368 1187 423 b 1315 507 1232 490 1267 507 b 1422 457 1363 507 1398 490 b 1457 292 1445 423 1457 368 b 1422 128 1457 215 1445 160 b 1315 76 1399 94 1363 76 b 1210 126 1267 76 1232 93 z "},"&":{"ha":1088,"x_min":0,"x_max":0,"o":"m 856 199 b 943 447 902 270 931 353 l 821 449 b 776 281 814 387 800 331 l 539 521 b 760 782 686 581 760 668 b 686 949 760 851 735 907 b 494 1013 637 991 573 1013 b 304 949 416 1013 352 991 b 231 779 255 905 231 849 b 335 558 231 708 265 634 b 111 272 186 504 111 408 b 210 58 111 182 144 111 b 465 -22 275 5 360 -22 b 779 104 590 -22 695 20 l 883 -1 l 1053 -1 z m 493 904 b 596 869 535 904 569 892 b 636 776 623 845 636 814 b 461 599 636 699 578 639 l 426 635 b 354 781 378 683 354 731 b 394 871 354 819 367 849 b 493 904 420 893 453 904 z m 469 85 b 295 138 395 85 337 102 b 232 276 253 173 232 219 b 410 481 232 372 291 440 l 703 182 b 469 85 644 117 566 85 z "},"'":{"ha":335,"x_min":0,"x_max":0,"o":"m 224 606 l 224 989 l 111 989 l 111 606 z "},"(":{"ha":471,"x_min":0,"x_max":0,"o":"m 411 -283 b 217 371 281 -85 217 133 b 411 1038 217 617 281 839 l 301 1038 b 89 371 160 848 89 625 b 301 -283 89 125 160 -93 z "},")":{"ha":471,"x_min":0,"x_max":0,"o":"m 169 -283 b 382 371 311 -93 382 125 b 169 1038 382 625 311 848 l 60 1038 b 254 371 189 839 254 617 b 60 -283 254 133 189 -85 z "},"*":{"ha":754,"x_min":0,"x_max":0,"o":"m 378 668 l 494 494 l 576 551 l 446 715 l 643 778 l 607 868 l 419 790 l 426 989 l 328 989 l 335 790 l 147 868 l 111 778 l 308 715 l 174 551 l 261 494 z "},"+":{"ha":889,"x_min":0,"x_max":0,"o":"m 500 486 l 500 813 l 389 813 l 389 486 l 64 486 l 64 375 l 389 375 l 389 50 l 500 50 l 500 375 l 826 375 l 826 486 z "},",":{"ha":417,"x_min":0,"x_max":0,"o":"m 147 -199 b 285 -49 239 -199 285 -149 l 285 139 l 132 139 l 132 0 l 213 7 l 213 -64 b 147 -129 213 -107 191 -129 l 133 -129 l 133 -199 z "},"-":{"ha":528,"x_min":0,"x_max":0,"o":"m 458 289 l 458 404 l 69 404 l 69 289 z "},".":{"ha":393,"x_min":0,"x_max":0,"o":"m 275 0 l 275 140 l 118 140 l 118 0 z "},"/":{"ha":650,"x_min":0,"x_max":0,"o":"m 183 0 l 594 989 l 467 989 l 56 0 z "},":":{"ha":393,"x_min":0,"x_max":0,"o":"m 275 576 l 275 717 l 118 717 l 118 576 z m 275 0 l 275 140 l 118 140 l 118 0 z "},";":{"ha":421,"x_min":0,"x_max":0,"o":"m 289 576 l 289 717 l 132 717 l 132 576 z m 151 -199 b 289 -49 243 -199 289 -149 l 289 139 l 136 139 l 136 0 l 217 7 l 217 -64 b 151 -129 217 -107 195 -129 l 138 -129 l 138 -199 z "},"<":{"ha":889,"x_min":0,"x_max":0,"o":"m 65 489 l 65 353 l 825 65 l 825 190 l 192 421 l 825 653 l 825 778 z "},"=":{"ha":889,"x_min":0,"x_max":0,"o":"m 813 526 l 813 638 l 78 638 l 78 526 z m 813 222 l 813 333 l 78 333 l 78 222 z "},">":{"ha":889,"x_min":0,"x_max":0,"o":"m 65 653 l 699 421 l 65 190 l 65 65 l 825 353 l 825 489 l 65 778 z "},"?":{"ha":846,"x_min":0,"x_max":0,"o":"m 458 244 l 458 256 b 476 372 458 310 464 349 b 547 444 488 397 512 421 l 614 488 b 757 732 709 549 757 630 b 665 934 757 818 726 885 b 419 1007 604 983 522 1007 b 167 924 310 1007 226 979 b 71 688 109 868 76 789 l 193 688 b 419 904 199 832 274 904 b 579 860 487 904 540 890 b 638 735 618 831 638 789 b 508 553 638 665 594 605 b 375 439 445 516 401 478 b 338 288 350 400 338 350 l 338 244 z m 471 0 l 471 140 l 328 140 l 328 0 z "},"@":{"ha":1500,"x_min":0,"x_max":0,"o":"m 763 1013 b 293 842 566 1013 410 956 b 118 385 176 726 118 574 b 292 -72 118 191 176 39 b 763 -237 407 -182 564 -237 b 1022 -197 857 -237 944 -224 l 1022 -87 b 758 -133 941 -118 853 -133 b 378 3 594 -133 468 -88 b 243 385 288 94 243 221 b 379 767 243 546 288 673 b 758 906 469 859 595 906 b 1135 776 919 906 1045 863 b 1271 442 1225 690 1271 579 b 1222 234 1271 353 1255 284 b 1099 160 1190 184 1149 160 b 1042 181 1074 160 1055 167 b 1022 239 1029 194 1022 214 l 1022 679 l 919 679 l 914 606 b 726 697 868 667 805 697 b 535 614 648 697 584 669 b 461 385 486 556 461 480 b 532 153 461 288 485 210 b 726 67 579 95 644 67 b 922 174 813 67 879 102 b 1092 67 949 102 1006 67 b 1303 178 1178 67 1248 104 b 1382 457 1356 252 1382 345 b 1217 856 1382 617 1327 750 b 763 1013 1105 960 953 1013 z m 742 156 b 621 217 690 156 650 176 b 578 385 592 257 578 313 b 620 549 578 455 592 510 b 742 607 648 588 689 607 b 850 566 785 607 821 593 b 908 453 879 539 898 501 l 908 321 b 851 200 899 270 880 230 b 742 156 823 170 786 156 z "},"A":{"ha":994,"x_min":0,"x_max":0,"o":"m 953 0 l 571 989 l 425 989 l 42 0 l 179 0 l 286 290 l 706 290 l 810 0 z m 465 778 l 499 881 l 531 778 l 665 403 l 328 403 z "},"B":{"ha":1004,"x_min":0,"x_max":0,"o":"m 711 532 b 854 747 806 571 854 643 b 777 925 854 823 828 882 b 564 989 726 968 655 989 l 118 989 l 118 0 l 574 0 b 814 76 676 0 756 25 b 900 288 871 127 900 198 b 711 532 900 413 837 495 z m 549 876 b 722 729 664 876 722 827 b 674 611 722 678 706 639 b 536 569 642 583 596 569 l 247 569 l 247 876 z m 247 113 l 247 461 l 564 461 b 768 288 700 461 768 403 b 564 113 768 171 700 113 z "},"C":{"ha":1017,"x_min":0,"x_max":0,"o":"m 536 -24 b 818 78 650 -24 744 10 b 954 360 892 147 938 240 l 826 360 b 734 160 814 273 784 206 b 540 92 684 115 620 92 b 306 199 440 92 362 128 b 221 494 249 271 221 369 b 306 786 221 619 249 716 b 540 892 362 856 440 892 b 717 839 611 892 669 874 b 810 690 764 804 795 754 l 942 690 b 806 921 926 788 881 864 b 535 1007 729 978 638 1007 b 211 865 400 1007 292 960 b 89 494 130 772 89 648 b 210 121 89 341 129 216 b 536 -24 290 25 399 -24 z "},"D":{"ha":990,"x_min":0,"x_max":0,"o":"m 118 989 l 118 0 l 447 0 b 792 131 598 0 713 44 b 910 494 870 218 910 339 b 798 860 910 652 872 774 b 475 989 723 946 616 989 z m 247 113 l 247 876 l 449 876 b 697 783 560 876 642 845 b 778 494 751 720 778 624 b 695 207 778 366 750 270 b 442 113 640 144 556 113 z "},"E":{"ha":921,"x_min":0,"x_max":0,"o":"m 247 453 l 774 453 l 774 565 l 247 565 l 247 876 l 818 876 l 818 989 l 118 989 l 118 0 l 831 0 l 831 113 l 247 113 z "},"F":{"ha":829,"x_min":0,"x_max":0,"o":"m 794 989 l 118 989 l 118 0 l 247 0 l 247 453 l 700 453 l 700 565 l 247 565 l 247 876 l 794 876 z "},"G":{"ha":1121,"x_min":0,"x_max":0,"o":"m 575 417 l 875 417 l 875 363 b 767 164 857 277 821 211 b 560 93 712 117 643 93 b 311 203 453 93 370 130 b 221 493 251 276 221 373 b 313 789 221 619 252 718 b 572 896 375 860 461 896 b 763 844 648 896 712 879 b 860 694 813 810 846 760 l 985 703 b 849 929 970 798 925 874 b 565 1011 772 984 677 1011 b 217 872 417 1011 301 965 b 89 497 131 779 89 654 b 219 118 89 337 132 211 b 557 -22 307 25 420 -22 b 879 133 701 -22 809 30 l 908 0 l 1003 0 l 1003 529 l 575 529 z "},"H":{"ha":1018,"x_min":0,"x_max":0,"o":"m 771 582 l 247 582 l 247 989 l 118 989 l 118 0 l 247 0 l 247 469 l 771 469 l 771 0 l 900 0 l 900 989 l 771 989 z "},"I":{"ha":365,"x_min":0,"x_max":0,"o":"m 247 0 l 247 989 l 118 989 l 118 0 z "},"J":{"ha":760,"x_min":0,"x_max":0,"o":"m 569 56 b 642 267 618 104 642 174 l 642 989 l 513 989 l 513 271 b 361 99 513 156 462 99 b 199 271 253 99 199 156 l 199 338 l 69 338 l 69 264 b 146 58 69 175 95 106 b 360 -17 197 8 268 -17 b 569 56 451 -17 521 7 z "},"K":{"ha":992,"x_min":0,"x_max":0,"o":"m 950 0 l 504 590 l 922 989 l 750 989 l 247 504 l 247 989 l 118 989 l 118 0 l 247 0 l 247 346 l 414 508 l 789 0 z "},"L":{"ha":825,"x_min":0,"x_max":0,"o":"m 247 989 l 118 989 l 118 0 l 763 0 l 763 113 l 247 113 z "},"M":{"ha":1215,"x_min":0,"x_max":0,"o":"m 647 233 l 614 135 l 581 233 l 300 989 l 118 989 l 118 0 l 236 0 l 236 656 l 232 835 l 297 679 l 553 0 l 675 0 l 911 657 l 982 833 l 979 656 l 979 0 l 1097 0 l 1097 989 l 918 989 z "},"N":{"ha":1022,"x_min":0,"x_max":0,"o":"m 782 182 l 261 989 l 118 989 l 118 0 l 240 0 l 240 803 l 757 0 l 904 0 l 904 989 l 782 989 z "},"O":{"ha":1113,"x_min":0,"x_max":0,"o":"m 556 -24 b 894 121 694 -24 806 25 b 1024 494 981 216 1024 341 b 894 864 1024 644 981 768 b 556 1007 807 959 694 1007 b 219 864 418 1007 306 959 b 89 494 132 769 89 645 b 219 122 89 342 132 218 b 556 -24 306 25 418 -24 z m 314 201 b 221 494 252 275 221 372 b 314 783 221 616 252 712 b 557 892 377 856 458 892 b 799 783 656 892 737 856 b 892 494 861 712 892 616 b 800 201 892 371 861 274 b 557 92 738 128 657 92 b 314 201 457 92 376 128 z "},"P":{"ha":903,"x_min":0,"x_max":0,"o":"m 118 989 l 118 0 l 247 0 l 247 413 l 522 413 b 758 488 623 413 702 438 b 843 706 815 539 843 611 b 758 915 843 796 815 866 b 525 989 702 964 624 989 z m 247 525 l 247 876 l 518 876 b 714 704 649 876 714 819 b 664 572 714 647 697 603 b 525 525 631 541 584 525 z "},"Q":{"ha":1111,"x_min":0,"x_max":0,"o":"m 1024 494 b 894 864 1024 644 981 768 b 556 1007 807 959 694 1007 b 219 864 418 1007 306 959 b 89 494 132 769 89 645 b 219 122 89 342 132 218 b 556 -24 306 25 418 -24 b 803 44 647 -24 730 -1 l 957 -79 l 1022 7 l 882 110 b 1024 494 976 207 1024 335 z m 221 494 b 314 783 221 616 252 712 b 557 892 377 856 458 892 b 799 783 656 892 737 856 b 892 494 861 712 892 616 b 783 185 892 363 856 260 l 663 282 l 596 194 l 699 124 b 557 92 653 102 606 92 b 314 201 457 92 376 128 b 221 494 252 275 221 372 z "},"R":{"ha":994,"x_min":0,"x_max":0,"o":"m 854 315 b 703 481 845 407 794 462 b 831 568 756 495 799 525 b 879 728 863 612 879 665 b 798 919 879 808 852 872 b 576 989 744 966 670 989 l 118 989 l 118 0 l 247 0 l 247 426 l 553 426 b 680 389 610 426 653 414 b 731 264 707 364 724 322 l 760 0 l 890 0 z m 247 539 l 247 876 l 554 876 b 697 835 616 876 664 863 b 747 715 731 807 747 767 b 690 585 747 660 728 616 b 532 539 652 554 600 539 z "},"S":{"ha":928,"x_min":0,"x_max":0,"o":"m 475 -21 b 759 59 599 -21 694 6 b 857 274 824 112 857 184 b 574 554 857 421 763 514 l 400 592 b 268 647 339 605 295 623 b 228 742 241 670 228 702 b 287 863 228 794 247 834 b 453 906 326 891 381 906 b 631 856 529 906 588 889 b 703 713 673 823 697 775 l 826 713 b 719 933 819 808 783 881 b 457 1011 654 985 567 1011 b 198 935 346 1011 259 986 b 106 731 136 885 106 817 b 175 562 106 658 129 602 b 383 472 221 522 291 492 l 522 443 b 684 378 598 427 652 406 b 732 267 716 351 732 314 b 667 132 732 208 710 163 b 479 85 624 100 562 85 b 194 321 302 85 207 163 l 71 321 b 475 -21 88 93 222 -21 z "},"T":{"ha":888,"x_min":0,"x_max":0,"o":"m 49 989 l 49 876 l 379 876 l 379 0 l 508 0 l 508 876 l 839 876 l 839 989 z "},"U":{"ha":1000,"x_min":0,"x_max":0,"o":"m 782 65 b 882 313 849 123 882 205 l 882 989 l 753 989 l 753 308 b 689 149 753 239 731 186 b 500 93 646 112 583 93 b 311 149 417 93 354 112 b 247 308 269 186 247 239 l 247 989 l 118 989 l 118 313 b 219 65 118 204 152 122 b 500 -22 286 7 380 -22 b 782 65 620 -22 714 7 z "},"V":{"ha":943,"x_min":0,"x_max":0,"o":"m 524 286 l 475 136 l 426 286 l 185 989 l 42 989 l 399 0 l 547 0 l 901 989 l 764 989 z "},"W":{"ha":1326,"x_min":0,"x_max":0,"o":"m 996 399 l 943 175 l 890 399 l 731 989 l 585 989 l 424 399 l 369 176 l 321 399 l 174 989 l 42 989 l 306 0 l 429 0 l 657 856 l 886 0 l 1010 0 l 1285 989 l 1153 989 z "},"X":{"ha":947,"x_min":0,"x_max":0,"o":"m 881 989 l 725 989 l 510 667 l 478 617 l 446 668 l 236 989 l 74 989 l 410 518 l 42 0 l 197 0 l 439 363 l 478 422 l 513 364 l 743 0 l 906 0 l 546 518 z "},"Y":{"ha":950,"x_min":0,"x_max":0,"o":"m 525 583 l 482 510 l 439 583 l 185 989 l 29 989 l 417 406 l 417 0 l 546 0 l 546 406 l 921 989 l 774 989 z "},"Z":{"ha":938,"x_min":0,"x_max":0,"o":"m 833 886 l 833 989 l 119 989 l 119 874 l 668 874 l 82 125 l 82 0 l 854 0 l 854 115 l 232 115 z "},"[":{"ha":438,"x_min":0,"x_max":0,"o":"m 378 -283 l 378 -174 l 239 -174 l 239 928 l 378 928 l 378 1038 l 118 1038 l 118 -283 z "},"\\":{"ha":650,"x_min":0,"x_max":0,"o":"m 594 0 l 183 989 l 56 989 l 467 0 z "},"]":{"ha":438,"x_min":0,"x_max":0,"o":"m 319 -283 l 319 1038 l 60 1038 l 60 928 l 199 928 l 199 -174 l 60 -174 l 60 -283 z "},"^":{"ha":889,"x_min":0,"x_max":0,"o":"m 375 989 l 113 272 l 242 272 l 378 686 b 436 876 396 740 416 803 b 496 686 459 795 479 731 l 639 272 l 776 272 l 501 989 z "},"_":{"ha":694,"x_min":0,"x_max":0,"o":"m 694 -214 l 694 -104 l 0 -104 l 0 -214 z "},"`":{"ha":694,"x_min":0,"x_max":0,"o":"m 496 807 l 374 1022 l 199 1022 l 383 807 z "},"a":{"ha":792,"x_min":0,"x_max":0,"o":"m 743 94 b 694 108 720 94 704 99 b 681 157 685 118 681 134 l 681 510 b 400 739 681 663 587 739 b 101 506 213 739 113 661 l 228 506 b 272 604 231 552 246 585 b 390 633 297 624 337 633 b 551 522 498 633 551 596 l 551 492 b 500 438 551 459 534 441 l 317 414 b 72 190 154 393 72 318 b 136 37 72 125 94 73 b 313 -18 179 0 238 -18 b 467 15 370 -18 421 -7 b 572 106 512 38 547 68 b 696 0 578 35 619 0 l 764 0 l 764 94 z m 336 81 b 235 111 294 81 260 91 b 199 196 211 131 199 160 b 338 319 199 264 245 306 l 551 351 l 551 251 b 488 132 551 206 530 166 b 336 81 445 98 394 81 z "},"b":{"ha":835,"x_min":0,"x_max":0,"o":"m 457 732 b 239 629 361 732 288 698 l 239 989 l 111 989 l 111 0 l 222 0 l 222 113 b 315 19 244 74 275 43 b 451 -15 356 -4 401 -15 b 681 94 548 -15 624 21 b 765 375 737 168 765 261 b 681 635 765 483 737 570 b 457 732 624 700 550 732 z m 290 168 b 232 367 251 217 232 283 b 288 556 232 448 251 511 b 439 622 326 600 376 622 b 586 558 503 622 552 601 b 638 375 620 516 638 455 b 585 172 638 292 620 224 b 439 94 549 120 500 94 b 290 168 378 94 328 119 z "},"c":{"ha":774,"x_min":0,"x_max":0,"o":"m 401 -18 b 613 51 489 -18 560 5 b 711 250 665 98 698 164 l 592 250 b 408 89 570 143 509 89 b 252 160 341 89 289 113 b 197 358 216 207 197 273 b 410 628 197 538 268 628 b 590 482 511 628 571 579 l 711 482 b 614 669 699 563 667 625 b 408 735 561 713 493 735 b 160 633 303 735 220 701 b 69 353 100 566 69 472 b 158 79 69 235 99 144 b 401 -18 218 14 299 -18 z "},"d":{"ha":835,"x_min":0,"x_max":0,"o":"m 596 631 b 379 732 546 698 474 732 b 156 632 288 732 213 699 b 69 369 98 564 69 477 b 154 93 69 256 98 163 b 382 -15 211 21 287 -15 b 518 19 432 -15 477 -4 b 613 114 559 43 590 74 l 613 0 l 724 0 l 724 989 l 596 989 z m 250 169 b 197 369 215 219 197 285 b 249 556 197 450 215 512 b 397 622 284 600 333 622 b 547 556 460 622 510 600 b 603 367 584 511 603 448 b 544 168 603 283 583 217 b 394 94 506 119 456 94 b 250 169 333 94 285 119 z "},"e":{"ha":804,"x_min":0,"x_max":0,"o":"m 735 375 b 647 638 735 486 705 574 b 407 733 588 701 508 733 b 160 632 301 733 219 700 b 69 361 100 563 69 473 b 161 89 69 249 100 158 b 410 -17 220 19 303 -17 b 612 44 488 -17 556 4 b 729 217 668 85 707 143 l 613 231 b 414 88 579 135 513 88 b 257 149 347 88 295 108 b 197 328 219 191 199 250 l 735 328 z m 550 575 b 615 419 585 538 607 486 l 199 419 b 265 576 206 488 228 540 b 408 629 303 612 351 629 b 550 575 467 629 514 611 z "},"f":{"ha":497,"x_min":0,"x_max":0,"o":"m 463 882 l 463 989 l 386 989 b 222 938 311 989 256 972 b 171 774 188 903 171 849 l 171 713 l 56 717 l 56 618 l 171 624 l 171 0 l 299 0 l 299 624 l 463 618 l 463 717 l 299 711 l 299 792 b 318 863 299 826 305 850 b 389 882 331 875 355 882 z "},"g":{"ha":842,"x_min":0,"x_max":0,"o":"m 611 606 b 517 699 589 645 557 676 b 379 732 476 721 430 732 b 156 632 288 732 213 699 b 69 369 98 564 69 477 b 154 93 69 256 98 163 b 382 -15 211 21 287 -15 b 513 17 429 -15 473 -5 b 607 104 552 38 584 67 l 607 11 b 558 -150 607 -64 591 -118 b 399 -199 526 -182 473 -199 b 274 -173 345 -199 303 -190 b 217 -90 245 -156 226 -128 l 92 -90 b 184 -247 101 -160 132 -212 b 394 -300 236 -282 306 -300 b 731 24 619 -300 731 -192 l 731 717 l 611 717 z m 250 169 b 197 369 215 219 197 285 b 249 556 197 450 215 512 b 397 622 284 600 333 622 b 547 556 460 622 510 600 b 603 367 584 511 603 448 b 544 168 603 283 583 217 b 394 94 506 119 456 94 b 250 169 333 94 285 119 z "},"h":{"ha":825,"x_min":0,"x_max":0,"o":"m 471 735 b 239 626 368 735 291 699 l 239 989 l 111 989 l 111 0 l 239 0 l 239 399 b 296 567 239 474 258 530 b 443 624 334 605 383 624 b 586 472 538 624 586 573 l 586 0 l 714 0 l 714 497 b 649 672 714 572 692 631 b 471 735 606 714 547 735 z "},"i":{"ha":350,"x_min":0,"x_max":0,"o":"m 239 851 l 239 989 l 111 989 l 111 851 z m 239 0 l 239 717 l 111 717 l 111 0 z "},"j":{"ha":350,"x_min":0,"x_max":0,"o":"m 239 851 l 239 989 l 111 989 l 111 851 z m 24 -283 b 188 -232 99 -283 153 -266 b 239 -68 222 -198 239 -143 l 239 717 l 111 717 l 111 -86 b 92 -157 111 -120 105 -144 b 21 -176 79 -170 55 -176 l -11 -176 l -11 -283 z "},"k":{"ha":782,"x_min":0,"x_max":0,"o":"m 738 0 l 431 453 l 717 717 l 556 717 l 239 411 l 239 989 l 111 989 l 111 0 l 239 0 l 239 279 l 343 374 l 588 0 z "},"l":{"ha":350,"x_min":0,"x_max":0,"o":"m 239 0 l 239 989 l 111 989 l 111 0 z "},"m":{"ha":1203,"x_min":0,"x_max":0,"o":"m 872 735 b 644 610 768 735 692 693 b 446 735 613 693 547 735 b 228 611 350 735 277 694 l 233 717 l 111 717 l 111 0 l 239 0 l 239 382 b 288 563 239 463 255 523 b 414 624 320 603 362 624 b 505 588 453 624 483 612 b 538 490 527 565 538 532 l 538 0 l 665 0 l 665 389 b 713 566 665 469 681 528 b 840 624 745 604 788 624 b 932 588 880 624 911 612 b 964 490 953 565 964 532 l 964 0 l 1092 0 l 1092 492 b 872 735 1092 654 1019 735 z "},"n":{"ha":825,"x_min":0,"x_max":0,"o":"m 471 735 b 231 615 363 735 282 695 l 231 717 l 111 717 l 111 0 l 239 0 l 239 399 b 296 567 239 474 258 530 b 443 624 334 605 383 624 b 586 472 538 624 586 573 l 586 0 l 714 0 l 714 497 b 649 672 714 572 692 631 b 471 735 606 714 547 735 z "},"o":{"ha":829,"x_min":0,"x_max":0,"o":"m 414 -18 b 663 89 514 -18 597 18 b 760 364 727 159 760 251 b 665 635 760 476 728 566 b 418 735 601 701 519 735 b 167 632 314 735 231 700 b 69 358 102 564 69 473 b 165 86 69 246 101 156 b 414 -18 227 17 310 -18 z m 414 89 b 256 163 347 89 294 113 b 197 358 217 212 197 277 b 255 556 197 442 216 507 b 414 628 293 604 346 628 b 574 557 482 628 536 604 b 632 364 613 510 632 445 b 574 164 632 281 613 214 b 414 89 535 114 481 89 z "},"p":{"ha":835,"x_min":0,"x_max":0,"o":"m 457 732 b 317 697 405 732 359 720 b 222 601 276 673 244 641 l 222 717 l 111 717 l 111 -283 l 239 -283 l 239 88 b 451 -15 291 19 362 -15 b 681 94 548 -15 624 21 b 765 375 737 168 765 261 b 681 635 765 483 737 570 b 457 732 624 700 550 732 z m 290 168 b 232 367 251 217 232 283 b 288 556 232 448 251 511 b 439 622 326 600 376 622 b 586 558 503 622 552 601 b 638 375 620 516 638 455 b 585 172 638 292 620 224 b 439 94 549 120 500 94 b 290 168 378 94 328 119 z "},"q":{"ha":835,"x_min":0,"x_max":0,"o":"m 613 603 b 519 697 591 643 560 674 b 379 732 478 720 431 732 b 156 632 288 732 213 699 b 69 369 98 564 69 477 b 154 93 69 256 98 163 b 382 -15 211 21 287 -15 b 596 89 474 -15 545 19 l 596 -283 l 724 -283 l 724 717 l 613 717 z m 250 169 b 197 369 215 219 197 285 b 249 556 197 450 215 512 b 397 622 284 600 333 622 b 547 556 460 622 510 600 b 603 367 584 511 603 448 b 544 168 603 283 583 217 b 394 94 506 119 456 94 b 250 169 333 94 285 119 z "},"r":{"ha":511,"x_min":0,"x_max":0,"o":"m 464 736 b 231 572 358 736 281 681 l 231 717 l 111 717 l 111 0 l 239 0 l 239 392 b 306 553 242 460 264 514 b 444 611 346 592 393 611 b 490 610 469 611 484 611 l 490 735 b 464 736 487 736 478 736 z "},"s":{"ha":701,"x_min":0,"x_max":0,"o":"m 354 -18 b 574 42 448 -18 521 2 b 653 208 626 83 653 138 b 602 337 653 261 636 304 b 443 411 568 370 515 394 l 304 442 b 219 477 264 450 236 462 b 193 538 202 492 193 513 b 338 632 193 600 241 632 b 507 508 437 632 493 591 l 633 508 b 544 676 624 582 594 638 b 342 733 493 714 426 733 b 144 678 256 733 191 715 b 75 526 98 642 75 591 b 274 332 75 425 141 360 l 418 301 b 531 197 493 286 531 251 b 487 114 531 161 516 133 b 360 85 458 94 415 85 b 232 119 304 85 262 96 b 178 226 202 141 184 177 l 56 226 b 354 -18 72 63 172 -18 z "},"t":{"ha":496,"x_min":0,"x_max":0,"o":"m 454 618 l 454 717 l 290 711 l 290 936 l 163 936 l 163 713 l 56 717 l 56 618 l 163 624 l 163 160 b 201 38 163 104 175 64 b 322 0 226 13 267 0 l 453 0 l 453 107 l 360 107 b 305 122 333 107 315 112 b 290 176 295 131 290 150 l 290 624 z "},"u":{"ha":825,"x_min":0,"x_max":0,"o":"m 586 318 b 529 149 586 243 567 187 b 382 93 491 112 442 93 b 239 244 287 93 239 144 l 239 717 l 111 717 l 111 219 b 176 44 111 144 133 86 b 354 -18 219 3 278 -18 b 594 101 463 -18 543 22 l 594 0 l 714 0 l 714 717 l 586 717 z "},"v":{"ha":733,"x_min":0,"x_max":0,"o":"m 433 303 l 375 110 l 315 303 l 172 717 l 35 717 l 310 0 l 436 0 l 699 717 l 569 717 z "},"w":{"ha":1072,"x_min":0,"x_max":0,"o":"m 788 303 l 746 132 l 711 303 l 608 717 l 469 717 l 367 303 l 329 132 l 286 303 l 174 717 l 35 717 l 261 0 l 392 0 l 500 428 l 539 608 l 575 428 l 676 0 l 804 0 l 1038 717 l 906 717 z "},"x":{"ha":783,"x_min":0,"x_max":0,"o":"m 457 381 l 714 717 l 558 717 l 393 471 l 225 717 l 69 717 l 329 381 l 35 0 l 190 0 l 393 293 l 593 0 l 749 0 z "},"y":{"ha":749,"x_min":0,"x_max":0,"o":"m 375 136 l 360 222 l 174 717 l 35 717 l 324 7 l 290 -81 b 244 -157 275 -119 260 -144 b 171 -176 228 -170 203 -176 l 104 -176 l 104 -283 l 183 -283 b 305 -252 235 -283 276 -273 b 381 -140 334 -231 359 -194 l 714 717 l 582 717 z "},"z":{"ha":738,"x_min":0,"x_max":0,"o":"m 644 639 l 644 717 l 88 717 l 88 614 l 485 614 l 69 90 l 69 0 l 668 0 l 668 103 l 219 103 z "},"{":{"ha":518,"x_min":0,"x_max":0,"o":"m 458 -285 l 458 -175 l 400 -175 b 346 -160 374 -175 356 -170 b 331 -107 336 -151 331 -133 l 331 168 b 290 307 331 225 317 271 b 176 376 263 343 225 366 l 176 378 b 290 447 225 388 263 411 b 331 586 317 483 331 530 l 331 860 b 346 913 331 886 336 903 b 400 928 356 923 374 928 l 458 928 l 458 1038 l 361 1038 b 246 1001 308 1038 270 1025 b 210 886 222 977 210 939 l 210 583 b 174 468 210 531 198 492 b 58 432 150 444 111 432 l 58 322 b 174 286 111 322 150 310 b 210 171 198 262 210 224 l 210 -133 b 246 -249 210 -186 222 -225 b 361 -285 270 -273 308 -285 z "},"|":{"ha":364,"x_min":0,"x_max":0,"o":"m 246 -283 l 246 1038 l 118 1038 l 118 -283 z "},"}":{"ha":518,"x_min":0,"x_max":0,"o":"m 156 -285 b 271 -249 208 -285 247 -273 b 307 -133 295 -225 307 -186 l 307 171 b 343 286 307 224 319 262 b 458 322 367 310 406 322 l 458 432 b 343 468 406 432 367 444 b 307 583 319 492 307 531 l 307 886 b 271 1001 307 939 295 977 b 156 1038 247 1025 208 1038 l 58 1038 l 58 928 l 117 928 b 171 913 143 928 161 923 b 186 860 181 903 186 886 l 186 586 b 226 447 186 530 200 483 b 340 378 253 411 291 388 l 340 376 b 226 307 291 366 253 343 b 186 168 200 271 186 225 l 186 -107 b 171 -160 186 -133 181 -151 b 117 -175 161 -170 143 -175 l 58 -175 l 58 -285 z "},"~":{"ha":889,"x_min":0,"x_max":0,"o":"m 197 342 b 281 476 197 431 225 476 b 426 410 319 476 367 454 b 607 342 483 364 543 342 b 750 406 667 342 715 363 b 803 586 785 448 803 508 l 692 586 b 608 453 692 497 664 453 b 524 485 589 451 561 462 b 402 554 487 508 446 531 b 282 586 358 577 318 588 b 139 523 222 586 174 565 b 86 342 104 481 86 420 z "}," ":{"ha":375,"x_min":0,"x_max":0,"o":""},"¡":{"ha":379,"x_min":0,"x_max":0,"o":"m 261 576 l 261 717 l 118 717 l 118 576 z m 254 -272 l 254 13 l 217 483 l 163 483 l 125 13 l 125 -272 z "},"¢":{"ha":889,"x_min":0,"x_max":0,"o":"m 463 89 b 306 160 395 89 343 113 b 251 358 270 207 251 273 b 464 628 251 538 322 628 b 644 482 565 628 625 579 l 765 482 b 683 655 754 554 727 612 b 514 732 640 698 583 724 l 514 925 l 404 925 l 404 731 b 197 614 315 719 246 680 b 124 353 148 548 124 461 b 198 96 124 245 148 160 b 404 -15 247 32 316 -5 l 404 -200 l 514 -200 l 514 -14 b 684 68 584 -5 641 23 b 765 250 727 113 754 174 l 646 250 b 463 89 625 143 563 89 z "},"£":{"ha":889,"x_min":0,"x_max":0,"o":"m 332 111 b 460 321 417 166 460 236 b 438 418 460 355 452 388 l 692 413 l 692 518 l 374 513 b 282 713 313 589 282 656 b 333 845 282 768 299 812 b 475 894 366 878 414 894 b 615 850 532 894 579 880 b 679 719 651 820 673 777 l 806 719 b 707 929 797 807 764 877 b 475 1007 650 981 572 1007 b 239 925 375 1007 296 980 b 154 725 182 871 154 805 b 238 514 154 658 182 588 l 74 518 l 74 413 l 310 418 b 340 313 330 384 340 349 b 268 169 340 256 316 208 b 88 111 219 131 159 111 l 74 111 l 74 0 l 815 0 l 815 111 z "},"¤":{"ha":889,"x_min":0,"x_max":0,"o":"m 851 832 l 778 906 l 654 776 b 444 843 598 821 528 843 b 235 776 361 843 291 821 l 111 906 l 38 832 l 167 708 b 101 499 123 648 101 578 b 167 289 101 419 123 349 l 38 165 l 111 92 l 235 221 b 444 154 291 176 361 154 b 654 221 528 154 598 176 l 778 92 l 851 165 l 722 289 b 788 499 766 349 788 419 b 722 708 788 578 766 648 z m 278 326 b 215 499 236 370 215 427 b 278 671 215 570 236 627 b 444 736 319 714 375 736 b 611 671 514 736 569 714 b 674 499 653 627 674 570 b 611 326 674 427 653 370 b 444 261 569 283 514 261 b 278 326 375 261 319 283 z "},"¥":{"ha":889,"x_min":0,"x_max":0,"o":"m 743 989 l 494 583 l 454 514 l 450 514 l 408 583 l 154 989 l -1 989 l 314 514 l 85 514 l 85 403 l 386 403 l 386 282 l 85 282 l 85 171 l 386 171 l 386 0 l 515 0 l 515 171 l 817 171 l 817 282 l 515 282 l 515 403 l 817 403 l 817 514 l 585 514 l 890 989 z "},"¦":{"ha":364,"x_min":0,"x_max":0,"o":"m 246 571 l 246 1038 l 118 1038 l 118 571 z m 246 -283 l 246 183 l 118 183 l 118 -283 z "},"§":{"ha":874,"x_min":0,"x_max":0,"o":"m 785 397 b 583 625 785 506 718 582 l 428 675 b 300 810 343 703 300 748 b 339 895 300 847 313 875 b 450 925 365 915 402 925 b 608 797 545 925 598 882 l 729 797 b 646 969 722 871 694 928 b 451 1029 598 1009 533 1029 b 255 969 370 1029 304 1009 b 181 807 205 930 181 875 b 221 678 181 759 194 716 b 89 476 133 634 89 567 b 290 249 89 367 156 291 l 446 199 b 574 64 531 171 574 126 b 536 -22 574 27 561 -2 b 426 -51 511 -41 475 -51 b 264 78 329 -51 275 -8 l 144 78 b 228 -94 152 4 180 -54 b 422 -156 276 -135 341 -156 b 619 -96 504 -156 569 -136 b 693 67 668 -56 693 -2 b 653 196 693 115 680 158 b 785 397 741 239 785 306 z m 574 264 b 511 290 553 275 532 284 l 332 349 b 204 488 247 376 204 423 b 300 610 204 548 236 588 b 363 583 320 599 341 590 l 542 525 b 669 386 627 497 669 451 b 574 264 669 325 638 284 z "},"¨":{"ha":694,"x_min":0,"x_max":0,"o":"m 263 851 l 263 989 l 135 989 l 135 851 z m 560 851 l 560 989 l 432 989 l 432 851 z "},"©":{"ha":1224,"x_min":0,"x_max":0,"o":"m 611 -24 b 988 124 764 -24 889 25 b 1135 494 1086 221 1135 344 b 988 867 1135 645 1086 769 b 611 1013 889 964 764 1013 b 236 867 459 1013 334 964 b 89 494 138 769 89 645 b 238 124 89 344 138 221 b 611 -24 336 25 460 -24 z m 611 63 b 306 185 486 63 384 103 b 185 494 225 265 185 369 b 306 806 185 619 225 723 b 611 926 385 886 487 926 b 918 806 736 926 838 886 b 1038 494 998 723 1038 619 b 918 185 1038 369 998 266 b 611 63 839 103 737 63 z m 613 239 b 819 394 727 239 796 291 l 732 410 b 613 326 715 354 675 326 b 479 496 524 326 479 383 b 613 667 479 610 524 667 b 731 586 675 667 714 640 l 819 601 b 613 753 797 702 728 753 b 447 685 543 753 488 730 b 386 496 406 639 386 576 b 447 307 386 415 406 352 b 613 239 488 262 543 239 z "},"ª":{"ha":678,"x_min":0,"x_max":0,"o":"m 342 1007 b 126 903 231 1007 159 972 l 221 869 b 344 919 238 903 280 919 b 433 900 385 919 415 913 b 461 838 452 887 461 866 l 461 815 l 271 797 b 153 753 220 793 181 778 b 111 651 125 728 111 694 b 156 546 111 608 126 573 b 281 506 185 519 227 506 b 469 578 358 506 421 530 l 481 517 l 567 517 l 567 828 b 513 963 567 888 549 933 b 342 1007 478 992 420 1007 z m 303 594 b 219 654 247 594 219 614 b 314 725 219 696 251 719 l 461 739 l 461 679 b 444 649 461 672 455 662 b 388 612 432 636 413 623 b 303 594 362 600 333 594 z "},"«":{"ha":958,"x_min":0,"x_max":0,"o":"m 458 128 l 193 357 l 458 586 l 458 728 l 111 425 l 111 289 l 458 -14 z m 847 128 l 582 357 l 847 586 l 847 728 l 500 425 l 500 289 l 847 -14 z "},"¬":{"ha":889,"x_min":0,"x_max":0,"o":"m 794 163 l 794 550 l 96 550 l 96 439 l 683 439 l 683 163 z "},"­":{"ha":528,"x_min":0,"x_max":0,"o":"m 458 289 l 458 404 l 69 404 l 69 289 z "},"®":{"ha":857,"x_min":0,"x_max":0,"o":"m 188 914 b 89 681 122 850 89 772 b 188 447 89 589 122 511 b 429 351 253 383 334 351 b 671 447 525 351 605 383 b 768 681 736 511 768 589 b 671 914 768 772 736 850 b 429 1010 605 978 525 1010 b 188 914 334 1010 253 978 z m 429 417 b 236 493 351 417 287 442 b 158 681 184 545 158 607 b 236 869 158 755 184 818 b 429 946 287 920 351 946 b 621 869 506 946 570 920 b 699 681 673 818 699 755 b 621 493 699 607 673 545 b 429 417 570 442 506 417 z m 561 614 b 519 679 558 648 544 670 b 571 763 554 694 571 722 b 538 835 571 794 560 818 b 447 861 516 853 486 861 l 297 861 l 297 508 l 358 508 l 358 650 l 454 650 b 490 639 471 650 483 646 b 503 599 497 631 501 618 l 506 563 b 519 508 506 538 511 519 l 582 508 b 565 563 572 523 566 541 z m 358 706 l 358 806 l 447 806 b 508 756 488 806 508 789 b 453 706 508 722 490 706 z "},"¯":{"ha":694,"x_min":0,"x_max":0,"o":"m 569 850 l 569 949 l 125 949 l 125 850 z "},"°":{"ha":619,"x_min":0,"x_max":0,"o":"m 482 594 b 550 767 527 640 550 697 b 482 939 550 836 527 894 b 310 1007 437 984 379 1007 b 138 939 240 1007 183 984 b 69 767 92 894 69 836 b 138 594 69 697 92 640 b 310 526 183 549 240 526 b 482 594 379 526 437 549 z m 208 664 b 168 767 181 691 168 725 b 208 871 168 809 181 844 b 310 911 234 898 268 911 b 412 871 351 911 385 898 b 451 767 438 844 451 809 b 413 664 451 724 438 690 b 310 622 386 636 351 622 b 208 664 268 622 234 636 z "},"±":{"ha":889,"x_min":0,"x_max":0,"o":"m 500 799 l 389 799 l 389 569 l 64 569 l 64 458 l 389 458 l 389 231 l 500 231 l 500 458 l 826 458 l 826 569 l 500 569 z m 813 0 l 813 111 l 78 111 l 78 0 z "},"²":{"ha":599,"x_min":0,"x_max":0,"o":"m 528 517 l 528 613 l 200 613 b 229 667 204 635 213 653 b 310 715 245 681 272 697 l 382 750 b 494 831 433 774 470 801 b 529 938 517 860 529 896 b 468 1073 529 995 509 1040 b 304 1122 427 1106 373 1122 b 140 1067 233 1122 178 1104 b 79 914 101 1031 81 980 l 190 914 b 218 1001 192 954 201 983 b 304 1028 235 1019 263 1028 b 418 938 380 1028 418 998 b 333 832 418 895 390 860 l 215 775 b 69 517 118 728 69 642 z "},"³":{"ha":618,"x_min":0,"x_max":0,"o":"m 310 494 b 483 544 382 494 440 511 b 549 675 527 578 549 621 b 518 768 549 711 538 742 b 433 822 498 794 469 812 l 433 825 b 503 872 463 833 486 849 b 528 956 519 895 528 923 b 467 1077 528 1006 507 1047 b 300 1122 426 1107 370 1122 b 133 1074 230 1122 174 1106 b 71 939 91 1041 71 996 l 182 939 b 301 1032 186 1001 225 1032 b 417 946 378 1032 417 1003 b 313 864 417 891 382 864 l 258 864 l 258 768 l 313 768 b 438 678 396 768 438 738 b 311 585 438 616 395 585 b 181 692 227 585 183 620 l 69 692 b 133 546 69 629 91 580 b 310 494 176 512 235 494 z "},"´":{"ha":694,"x_min":0,"x_max":0,"o":"m 311 807 l 496 1022 l 321 1022 l 199 807 z "},"µ":{"ha":825,"x_min":0,"x_max":0,"o":"m 239 -283 l 239 -153 l 210 35 l 213 38 b 365 -18 250 0 300 -18 b 597 106 468 -18 545 23 l 592 0 l 714 0 l 714 717 l 586 717 l 586 318 b 529 149 586 243 567 187 b 382 93 491 112 442 93 b 239 244 287 93 239 144 l 239 717 l 111 717 l 111 -283 z "},"¶":{"ha":824,"x_min":0,"x_max":0,"o":"m 443 -143 l 443 878 l 594 878 l 594 -143 l 706 -143 l 706 989 l 332 989 b 131 925 245 989 178 968 b 60 744 83 882 60 822 b 131 564 60 667 83 606 b 332 500 178 521 245 500 l 332 -143 z "},"·":{"ha":499,"x_min":0,"x_max":0,"o":"m 321 419 l 321 560 l 178 560 l 178 419 z "},"¸":{"ha":694,"x_min":0,"x_max":0,"o":"m 285 -342 b 424 -306 344 -342 390 -330 b 474 -207 457 -281 474 -249 b 438 -117 474 -168 462 -138 b 336 -86 413 -97 380 -86 l 307 -86 l 363 0 l 286 0 l 221 -103 l 258 -168 l 317 -168 b 375 -211 356 -168 375 -182 b 275 -267 375 -248 342 -267 l 240 -267 l 240 -342 z "},"¹":{"ha":417,"x_min":0,"x_max":0,"o":"m 306 517 l 306 1110 l 217 1110 l 213 1085 b 104 1011 204 1036 168 1011 l 56 1011 l 56 929 l 199 929 l 199 517 z "},"º":{"ha":640,"x_min":0,"x_max":0,"o":"m 321 506 b 501 575 394 506 454 529 b 571 756 547 621 571 681 b 501 938 571 829 548 889 b 321 1007 455 984 395 1007 b 139 938 246 1007 185 984 b 69 756 93 889 69 829 b 139 576 69 682 93 623 b 321 506 185 529 246 506 z m 321 594 b 214 635 275 594 239 608 b 176 756 189 663 176 703 b 214 877 176 809 189 850 b 321 918 239 904 275 918 b 463 756 415 918 463 864 b 426 635 463 703 450 663 b 321 594 401 608 366 594 z "},"»":{"ha":958,"x_min":0,"x_max":0,"o":"m 458 289 l 458 425 l 111 728 l 111 586 l 376 357 l 111 128 l 111 -14 z m 847 289 l 847 425 l 500 728 l 500 586 l 765 357 l 500 128 l 500 -14 z "},"¼":{"ha":1460,"x_min":0,"x_max":0,"o":"m 368 446 l 368 1039 l 279 1039 l 275 1014 b 167 940 267 965 231 940 l 118 940 l 118 858 l 261 858 l 261 446 z m 421 -21 l 1040 1010 l 914 1010 l 292 -21 z m 1236 0 l 1236 136 l 1342 133 l 1342 219 l 1236 217 l 1236 593 l 1122 593 l 842 226 l 842 133 l 1129 136 l 1129 0 z m 1124 468 l 1129 468 l 1129 217 l 936 219 z "},"½":{"ha":1474,"x_min":0,"x_max":0,"o":"m 368 446 l 368 1039 l 279 1039 l 275 1014 b 167 940 267 965 231 940 l 118 940 l 118 858 l 261 858 l 261 446 z m 421 -21 l 1040 1010 l 914 1010 l 292 -21 z m 1354 0 l 1354 96 l 1026 96 b 1056 150 1030 118 1040 136 b 1136 199 1071 164 1098 180 l 1208 233 b 1320 314 1259 257 1297 284 b 1356 421 1344 344 1356 379 b 1294 556 1356 478 1335 523 b 1131 606 1254 589 1199 606 b 966 551 1059 606 1004 587 b 906 397 928 514 907 463 l 1017 397 b 1044 484 1019 437 1028 466 b 1131 511 1061 502 1090 511 b 1244 421 1206 511 1244 481 b 1160 315 1244 378 1216 343 l 1042 258 b 896 0 944 211 896 125 z "},"¾":{"ha":1592,"x_min":0,"x_max":0,"o":"m 351 424 b 525 474 424 424 481 440 b 590 604 569 507 590 550 b 560 697 590 640 580 671 b 475 751 539 723 511 741 l 475 754 b 544 801 505 763 528 778 b 569 885 561 825 569 852 b 508 1006 569 936 549 976 b 342 1051 468 1036 412 1051 b 174 1003 271 1051 216 1035 b 113 868 133 970 113 925 l 224 868 b 343 961 227 930 267 961 b 458 875 420 961 458 932 b 354 793 458 820 424 793 l 300 793 l 300 697 l 354 697 b 479 607 438 697 479 667 b 353 514 479 545 437 514 b 222 621 269 514 225 550 l 111 621 b 175 475 111 558 132 509 b 351 424 218 441 276 424 z m 560 -21 l 1179 1010 l 1053 1010 l 431 -21 z m 1375 0 l 1375 136 l 1481 133 l 1481 219 l 1375 217 l 1375 593 l 1261 593 l 981 226 l 981 133 l 1268 136 l 1268 0 z m 1263 468 l 1268 468 l 1268 217 l 1075 219 z "},"¿":{"ha":846,"x_min":0,"x_max":0,"o":"m 518 576 l 518 717 l 375 717 l 375 576 z m 426 -290 b 678 -207 536 -290 620 -262 b 775 29 737 -151 769 -73 l 650 29 b 588 -135 644 -46 623 -101 b 426 -187 552 -170 499 -187 b 267 -144 359 -187 306 -173 b 208 -18 228 -115 208 -73 b 338 164 208 52 251 113 b 471 279 400 201 445 239 b 508 429 496 317 508 367 l 508 472 l 388 472 l 388 461 b 371 344 388 407 382 369 b 299 272 357 319 333 294 l 232 229 b 89 -15 137 168 89 87 b 181 -217 89 -101 119 -169 b 426 -290 242 -266 324 -290 z "},"À":{"ha":994,"x_min":0,"x_max":0,"o":"m 453 1294 l 278 1294 l 463 1079 l 575 1079 z m 953 0 l 571 989 l 425 989 l 42 0 l 179 0 l 286 290 l 706 290 l 810 0 z m 465 778 l 499 881 l 531 778 l 665 403 l 328 403 z "},"Á":{"ha":994,"x_min":0,"x_max":0,"o":"m 531 1294 l 408 1079 l 521 1079 l 706 1294 z m 953 0 l 571 989 l 425 989 l 42 0 l 179 0 l 286 290 l 706 290 l 810 0 z m 465 778 l 499 881 l 531 778 l 665 403 l 328 403 z "},"Â":{"ha":994,"x_min":0,"x_max":0,"o":"m 594 1079 l 728 1079 l 564 1294 l 431 1294 l 267 1079 l 400 1079 l 497 1218 z m 953 0 l 571 989 l 425 989 l 42 0 l 179 0 l 286 290 l 706 290 l 810 0 z m 465 778 l 499 881 l 531 778 l 665 403 l 328 403 z "},"Ã":{"ha":994,"x_min":0,"x_max":0,"o":"m 390 1215 b 479 1158 419 1215 449 1196 b 606 1100 509 1119 551 1100 b 722 1153 655 1100 693 1118 b 764 1313 750 1189 764 1242 l 667 1313 b 650 1224 665 1271 659 1241 b 604 1197 641 1206 625 1197 b 517 1256 575 1197 546 1217 b 389 1313 486 1294 444 1313 b 273 1259 340 1313 301 1295 b 231 1100 245 1223 231 1170 l 328 1100 b 344 1189 330 1142 335 1171 b 390 1215 354 1206 369 1215 z m 953 0 l 571 989 l 425 989 l 42 0 l 179 0 l 286 290 l 706 290 l 810 0 z m 465 778 l 499 881 l 531 778 l 665 403 l 328 403 z "},"Ä":{"ha":994,"x_min":0,"x_max":0,"o":"m 285 1249 l 285 1111 l 413 1111 l 413 1249 z m 582 1249 l 582 1111 l 710 1111 l 710 1249 z m 953 0 l 571 989 l 425 989 l 42 0 l 179 0 l 286 290 l 706 290 l 810 0 z m 465 778 l 499 881 l 531 778 l 665 403 l 328 403 z "},"Å":{"ha":994,"x_min":0,"x_max":0,"o":"m 953 0 l 594 926 b 689 1093 657 962 689 1017 b 635 1230 689 1148 671 1193 b 497 1285 599 1266 553 1285 b 360 1230 442 1285 396 1266 b 306 1093 324 1193 306 1148 b 401 926 306 1016 338 961 l 42 0 l 179 0 l 286 290 l 706 290 l 810 0 z m 572 1171 b 600 1093 591 1150 600 1125 b 572 1017 600 1062 591 1036 b 497 989 553 998 528 989 b 423 1017 467 989 442 998 b 394 1093 404 1036 394 1062 b 424 1171 394 1125 404 1151 b 497 1199 442 1189 467 1199 b 572 1171 528 1199 553 1189 z m 465 778 l 499 881 l 531 778 l 665 403 l 328 403 z "},"Æ":{"ha":1579,"x_min":0,"x_max":0,"o":"m 906 453 l 1432 453 l 1432 565 l 906 565 l 906 876 l 1476 876 l 1476 989 l 638 989 l 42 0 l 176 0 l 333 261 l 776 261 l 776 0 l 1489 0 l 1489 113 l 906 113 z m 707 883 l 776 883 l 776 367 l 397 367 z "},"Ç":{"ha":1017,"x_min":0,"x_max":0,"o":"m 826 360 b 734 160 814 273 784 206 b 540 92 684 115 620 92 b 306 199 440 92 362 128 b 221 494 249 271 221 369 b 306 786 221 619 249 716 b 540 892 362 856 440 892 b 717 839 611 892 669 874 b 810 690 764 804 795 754 l 942 690 b 806 921 926 788 881 864 b 535 1007 729 978 638 1007 b 211 865 400 1007 292 960 b 89 494 130 772 89 648 b 193 143 89 353 124 236 b 475 -19 261 50 355 -4 l 415 -114 l 453 -179 l 511 -179 b 569 -222 550 -179 569 -194 b 469 -278 569 -259 536 -278 l 435 -278 l 435 -353 l 479 -353 b 618 -317 538 -353 585 -341 b 668 -218 651 -293 668 -260 b 632 -128 668 -179 656 -149 b 531 -97 608 -108 574 -97 l 501 -97 l 549 -24 b 822 82 660 -21 751 14 b 954 360 894 150 938 242 z "},"È":{"ha":921,"x_min":0,"x_max":0,"o":"m 436 1294 l 261 1294 l 446 1079 l 558 1079 z m 247 453 l 774 453 l 774 565 l 247 565 l 247 876 l 818 876 l 818 989 l 118 989 l 118 0 l 831 0 l 831 113 l 247 113 z "},"É":{"ha":921,"x_min":0,"x_max":0,"o":"m 514 1294 l 392 1079 l 504 1079 l 689 1294 z m 247 453 l 774 453 l 774 565 l 247 565 l 247 876 l 818 876 l 818 989 l 118 989 l 118 0 l 831 0 l 831 113 l 247 113 z "},"Ê":{"ha":921,"x_min":0,"x_max":0,"o":"m 578 1079 l 711 1079 l 547 1294 l 414 1294 l 250 1079 l 383 1079 l 481 1218 z m 247 453 l 774 453 l 774 565 l 247 565 l 247 876 l 818 876 l 818 989 l 118 989 l 118 0 l 831 0 l 831 113 l 247 113 z "},"Ë":{"ha":921,"x_min":0,"x_max":0,"o":"m 268 1249 l 268 1111 l 396 1111 l 396 1249 z m 565 1249 l 565 1111 l 693 1111 l 693 1249 z m 247 453 l 774 453 l 774 565 l 247 565 l 247 876 l 818 876 l 818 989 l 118 989 l 118 0 l 831 0 l 831 113 l 247 113 z "},"Ì":{"ha":365,"x_min":0,"x_max":0,"o":"m 261 1079 l 139 1294 l -36 1294 l 149 1079 z m 247 0 l 247 989 l 118 989 l 118 0 z "},"Í":{"ha":365,"x_min":0,"x_max":0,"o":"m 207 1079 l 392 1294 l 217 1294 l 94 1079 z m 247 0 l 247 989 l 118 989 l 118 0 z "},"Î":{"ha":365,"x_min":0,"x_max":0,"o":"m 86 1079 l 183 1218 l 281 1079 l 414 1079 l 250 1294 l 117 1294 l -47 1079 z m 247 0 l 247 989 l 118 989 l 118 0 z "},"Ï":{"ha":365,"x_min":0,"x_max":0,"o":"m 99 1111 l 99 1249 l -29 1249 l -29 1111 z m 396 1111 l 396 1249 l 268 1249 l 268 1111 z m 247 0 l 247 989 l 118 989 l 118 0 z "},"Ð":{"ha":1115,"x_min":0,"x_max":0,"o":"m 243 989 l 243 549 l 56 556 l 56 443 l 243 450 l 243 0 l 572 0 b 917 131 723 0 838 44 b 1035 494 995 218 1035 339 b 923 860 1035 652 997 774 b 600 989 848 946 741 989 z m 372 113 l 372 451 l 639 443 l 639 556 l 372 547 l 372 876 l 574 876 b 822 783 685 876 767 845 b 903 494 876 720 903 624 b 820 207 903 366 875 270 b 567 113 765 144 681 113 z "},"Ñ":{"ha":1022,"x_min":0,"x_max":0,"o":"m 404 1215 b 493 1158 433 1215 463 1196 b 619 1100 523 1119 565 1100 b 735 1153 669 1100 707 1118 b 778 1313 764 1189 778 1242 l 681 1313 b 664 1224 679 1271 673 1241 b 618 1197 655 1206 639 1197 b 531 1256 589 1197 560 1217 b 403 1313 500 1294 457 1313 b 287 1259 354 1313 315 1295 b 244 1100 259 1223 244 1170 l 342 1100 b 358 1189 344 1142 349 1171 b 404 1215 368 1206 383 1215 z m 782 182 l 261 989 l 118 989 l 118 0 l 240 0 l 240 803 l 757 0 l 904 0 l 904 989 l 782 989 z "},"Ò":{"ha":1113,"x_min":0,"x_max":0,"o":"m 633 1079 l 511 1294 l 336 1294 l 521 1079 z m 556 -24 b 894 121 694 -24 806 25 b 1024 494 981 216 1024 341 b 894 864 1024 644 981 768 b 556 1007 807 959 694 1007 b 219 864 418 1007 306 959 b 89 494 132 769 89 645 b 219 122 89 342 132 218 b 556 -24 306 25 418 -24 z m 314 201 b 221 494 252 275 221 372 b 314 783 221 616 252 712 b 557 892 377 856 458 892 b 799 783 656 892 737 856 b 892 494 861 712 892 616 b 800 201 892 371 861 274 b 557 92 738 128 657 92 b 314 201 457 92 376 128 z "},"Ó":{"ha":1113,"x_min":0,"x_max":0,"o":"m 579 1079 l 764 1294 l 589 1294 l 467 1079 z m 556 -24 b 894 121 694 -24 806 25 b 1024 494 981 216 1024 341 b 894 864 1024 644 981 768 b 556 1007 807 959 694 1007 b 219 864 418 1007 306 959 b 89 494 132 769 89 645 b 219 122 89 342 132 218 b 556 -24 306 25 418 -24 z m 314 201 b 221 494 252 275 221 372 b 314 783 221 616 252 712 b 557 892 377 856 458 892 b 799 783 656 892 737 856 b 892 494 861 712 892 616 b 800 201 892 371 861 274 b 557 92 738 128 657 92 b 314 201 457 92 376 128 z "},"Ô":{"ha":1113,"x_min":0,"x_max":0,"o":"m 458 1079 l 556 1218 l 653 1079 l 786 1079 l 622 1294 l 489 1294 l 325 1079 z m 556 -24 b 894 121 694 -24 806 25 b 1024 494 981 216 1024 341 b 894 864 1024 644 981 768 b 556 1007 807 959 694 1007 b 219 864 418 1007 306 959 b 89 494 132 769 89 645 b 219 122 89 342 132 218 b 556 -24 306 25 418 -24 z m 314 201 b 221 494 252 275 221 372 b 314 783 221 616 252 712 b 557 892 377 856 458 892 b 799 783 656 892 737 856 b 892 494 861 712 892 616 b 800 201 892 371 861 274 b 557 92 738 128 657 92 b 314 201 457 92 376 128 z "},"Õ":{"ha":1113,"x_min":0,"x_max":0,"o":"m 386 1100 b 403 1189 388 1142 394 1171 b 449 1215 412 1206 427 1215 b 538 1158 477 1215 507 1196 b 664 1100 567 1119 609 1100 b 780 1153 713 1100 752 1118 b 822 1313 808 1189 822 1242 l 725 1313 b 708 1224 723 1271 718 1241 b 663 1197 699 1206 684 1197 b 575 1256 634 1197 605 1217 b 447 1313 544 1294 502 1313 b 331 1259 398 1313 359 1295 b 289 1100 303 1223 289 1170 z m 556 -24 b 894 121 694 -24 806 25 b 1024 494 981 216 1024 341 b 894 864 1024 644 981 768 b 556 1007 807 959 694 1007 b 219 864 418 1007 306 959 b 89 494 132 769 89 645 b 219 122 89 342 132 218 b 556 -24 306 25 418 -24 z m 314 201 b 221 494 252 275 221 372 b 314 783 221 616 252 712 b 557 892 377 856 458 892 b 799 783 656 892 737 856 b 892 494 861 712 892 616 b 800 201 892 371 861 274 b 557 92 738 128 657 92 b 314 201 457 92 376 128 z "},"Ö":{"ha":1113,"x_min":0,"x_max":0,"o":"m 471 1111 l 471 1249 l 343 1249 l 343 1111 z m 768 1111 l 768 1249 l 640 1249 l 640 1111 z m 556 -24 b 894 121 694 -24 806 25 b 1024 494 981 216 1024 341 b 894 864 1024 644 981 768 b 556 1007 807 959 694 1007 b 219 864 418 1007 306 959 b 89 494 132 769 89 645 b 219 122 89 342 132 218 b 556 -24 306 25 418 -24 z m 314 201 b 221 494 252 275 221 372 b 314 783 221 616 252 712 b 557 892 377 856 458 892 b 799 783 656 892 737 856 b 892 494 861 712 892 616 b 800 201 892 371 861 274 b 557 92 738 128 657 92 b 314 201 457 92 376 128 z "},"×":{"ha":889,"x_min":0,"x_max":0,"o":"m 444 357 l 728 74 l 801 146 l 518 431 l 801 714 l 728 786 l 444 503 l 161 786 l 89 713 l 372 431 l 89 147 l 161 74 z "},"Ø":{"ha":1113,"x_min":0,"x_max":0,"o":"m 954 1007 l 860 897 b 556 1007 777 970 676 1007 b 219 864 418 1007 306 959 b 89 494 132 769 89 645 b 204 139 89 353 127 234 l 118 39 l 188 -21 l 269 74 b 556 -24 348 9 444 -24 b 894 121 694 -24 806 25 b 1024 494 981 216 1024 341 b 922 829 1024 625 990 737 l 1024 947 z m 221 494 b 314 783 221 616 252 712 b 557 892 377 856 458 892 b 779 804 646 892 720 863 l 289 236 b 221 494 244 306 221 393 z m 892 494 b 800 201 892 371 861 274 b 557 92 738 128 657 92 b 349 167 475 92 405 117 l 836 729 b 892 494 873 666 892 588 z "},"Ù":{"ha":1000,"x_min":0,"x_max":0,"o":"m 578 1079 l 456 1294 l 281 1294 l 465 1079 z m 782 65 b 882 313 849 123 882 205 l 882 989 l 753 989 l 753 308 b 689 149 753 239 731 186 b 500 93 646 112 583 93 b 311 149 417 93 354 112 b 247 308 269 186 247 239 l 247 989 l 118 989 l 118 313 b 219 65 118 204 152 122 b 500 -22 286 7 380 -22 b 782 65 620 -22 714 7 z "},"Ú":{"ha":1000,"x_min":0,"x_max":0,"o":"m 524 1079 l 708 1294 l 533 1294 l 411 1079 z m 782 65 b 882 313 849 123 882 205 l 882 989 l 753 989 l 753 308 b 689 149 753 239 731 186 b 500 93 646 112 583 93 b 311 149 417 93 354 112 b 247 308 269 186 247 239 l 247 989 l 118 989 l 118 313 b 219 65 118 204 152 122 b 500 -22 286 7 380 -22 b 782 65 620 -22 714 7 z "},"Û":{"ha":1000,"x_min":0,"x_max":0,"o":"m 403 1079 l 500 1218 l 597 1079 l 731 1079 l 567 1294 l 433 1294 l 269 1079 z m 782 65 b 882 313 849 123 882 205 l 882 989 l 753 989 l 753 308 b 689 149 753 239 731 186 b 500 93 646 112 583 93 b 311 149 417 93 354 112 b 247 308 269 186 247 239 l 247 989 l 118 989 l 118 313 b 219 65 118 204 152 122 b 500 -22 286 7 380 -22 b 782 65 620 -22 714 7 z "},"Ü":{"ha":1000,"x_min":0,"x_max":0,"o":"m 415 1111 l 415 1249 l 288 1249 l 288 1111 z m 713 1111 l 713 1249 l 585 1249 l 585 1111 z m 782 65 b 882 313 849 123 882 205 l 882 989 l 753 989 l 753 308 b 689 149 753 239 731 186 b 500 93 646 112 583 93 b 311 149 417 93 354 112 b 247 308 269 186 247 239 l 247 989 l 118 989 l 118 313 b 219 65 118 204 152 122 b 500 -22 286 7 380 -22 b 782 65 620 -22 714 7 z "},"Ý":{"ha":950,"x_min":0,"x_max":0,"o":"m 508 1294 l 386 1079 l 499 1079 l 683 1294 z m 525 583 l 482 510 l 439 583 l 185 989 l 29 989 l 417 406 l 417 0 l 546 0 l 546 406 l 921 989 l 774 989 z "},"Þ":{"ha":903,"x_min":0,"x_max":0,"o":"m 247 806 l 247 989 l 118 989 l 118 0 l 247 0 l 247 229 l 522 229 b 759 307 624 229 703 255 b 843 522 815 359 843 431 b 760 732 843 613 815 683 b 525 806 704 781 626 806 z m 247 342 l 247 693 l 518 693 b 714 521 649 693 714 636 b 665 389 714 464 698 420 b 525 342 633 357 586 342 z "},"ß":{"ha":840,"x_min":0,"x_max":0,"o":"m 239 0 l 239 739 b 411 900 239 846 296 900 b 543 859 469 900 513 886 b 589 747 574 832 589 794 b 541 631 589 698 573 659 b 411 589 509 603 466 589 l 349 589 l 349 482 l 429 482 b 588 434 499 482 552 466 b 643 294 625 402 643 356 b 590 156 643 234 625 188 b 435 107 554 123 502 107 l 349 107 l 349 0 l 422 0 b 678 78 531 0 616 26 b 771 293 740 130 771 201 b 578 547 771 424 706 508 l 578 550 b 718 761 671 589 718 659 b 640 939 718 834 692 894 b 415 1007 587 984 513 1007 b 111 711 213 1007 111 908 l 111 0 z "},"à":{"ha":792,"x_min":0,"x_max":0,"o":"m 356 1022 l 181 1022 l 365 807 l 478 807 z m 743 94 b 694 108 720 94 704 99 b 681 157 685 118 681 134 l 681 510 b 400 739 681 663 587 739 b 101 506 213 739 113 661 l 228 506 b 272 604 231 552 246 585 b 390 633 297 624 337 633 b 551 522 498 633 551 596 l 551 492 b 500 438 551 459 534 441 l 317 414 b 72 190 154 393 72 318 b 136 37 72 125 94 73 b 313 -18 179 0 238 -18 b 467 15 370 -18 421 -7 b 572 106 512 38 547 68 b 696 0 578 35 619 0 l 764 0 l 764 94 z m 336 81 b 235 111 294 81 260 91 b 199 196 211 131 199 160 b 338 319 199 264 245 306 l 551 351 l 551 251 b 488 132 551 206 530 166 b 336 81 445 98 394 81 z "},"á":{"ha":792,"x_min":0,"x_max":0,"o":"m 433 1022 l 311 807 l 424 807 l 608 1022 z m 743 94 b 694 108 720 94 704 99 b 681 157 685 118 681 134 l 681 510 b 400 739 681 663 587 739 b 101 506 213 739 113 661 l 228 506 b 272 604 231 552 246 585 b 390 633 297 624 337 633 b 551 522 498 633 551 596 l 551 492 b 500 438 551 459 534 441 l 317 414 b 72 190 154 393 72 318 b 136 37 72 125 94 73 b 313 -18 179 0 238 -18 b 467 15 370 -18 421 -7 b 572 106 512 38 547 68 b 696 0 578 35 619 0 l 764 0 l 764 94 z m 336 81 b 235 111 294 81 260 91 b 199 196 211 131 199 160 b 338 319 199 264 245 306 l 551 351 l 551 251 b 488 132 551 206 530 166 b 336 81 445 98 394 81 z "},"â":{"ha":792,"x_min":0,"x_max":0,"o":"m 497 807 l 631 807 l 467 1022 l 333 1022 l 169 807 l 303 807 l 400 946 z m 743 94 b 694 108 720 94 704 99 b 681 157 685 118 681 134 l 681 510 b 400 739 681 663 587 739 b 101 506 213 739 113 661 l 228 506 b 272 604 231 552 246 585 b 390 633 297 624 337 633 b 551 522 498 633 551 596 l 551 492 b 500 438 551 459 534 441 l 317 414 b 72 190 154 393 72 318 b 136 37 72 125 94 73 b 313 -18 179 0 238 -18 b 467 15 370 -18 421 -7 b 572 106 512 38 547 68 b 696 0 578 35 619 0 l 764 0 l 764 94 z m 336 81 b 235 111 294 81 260 91 b 199 196 211 131 199 160 b 338 319 199 264 245 306 l 551 351 l 551 251 b 488 132 551 206 530 166 b 336 81 445 98 394 81 z "},"ã":{"ha":792,"x_min":0,"x_max":0,"o":"m 293 943 b 382 886 322 943 351 924 b 508 828 412 847 454 828 b 624 881 557 828 596 846 b 667 1040 653 917 667 970 l 569 1040 b 553 951 568 999 562 969 b 507 925 544 934 528 925 b 419 983 478 925 449 944 b 292 1040 389 1021 346 1040 b 176 987 243 1040 204 1022 b 133 828 147 951 133 898 l 231 828 b 247 917 232 869 238 899 b 293 943 256 934 272 943 z m 743 94 b 694 108 720 94 704 99 b 681 157 685 118 681 134 l 681 510 b 400 739 681 663 587 739 b 101 506 213 739 113 661 l 228 506 b 272 604 231 552 246 585 b 390 633 297 624 337 633 b 551 522 498 633 551 596 l 551 492 b 500 438 551 459 534 441 l 317 414 b 72 190 154 393 72 318 b 136 37 72 125 94 73 b 313 -18 179 0 238 -18 b 467 15 370 -18 421 -7 b 572 106 512 38 547 68 b 696 0 578 35 619 0 l 764 0 l 764 94 z m 336 81 b 235 111 294 81 260 91 b 199 196 211 131 199 160 b 338 319 199 264 245 306 l 551 351 l 551 251 b 488 132 551 206 530 166 b 336 81 445 98 394 81 z "},"ä":{"ha":792,"x_min":0,"x_max":0,"o":"m 188 989 l 188 851 l 315 851 l 315 989 z m 485 989 l 485 851 l 613 851 l 613 989 z m 743 94 b 694 108 720 94 704 99 b 681 157 685 118 681 134 l 681 510 b 400 739 681 663 587 739 b 101 506 213 739 113 661 l 228 506 b 272 604 231 552 246 585 b 390 633 297 624 337 633 b 551 522 498 633 551 596 l 551 492 b 500 438 551 459 534 441 l 317 414 b 72 190 154 393 72 318 b 136 37 72 125 94 73 b 313 -18 179 0 238 -18 b 467 15 370 -18 421 -7 b 572 106 512 38 547 68 b 696 0 578 35 619 0 l 764 0 l 764 94 z m 336 81 b 235 111 294 81 260 91 b 199 196 211 131 199 160 b 338 319 199 264 245 306 l 551 351 l 551 251 b 488 132 551 206 530 166 b 336 81 445 98 394 81 z "},"å":{"ha":792,"x_min":0,"x_max":0,"o":"m 538 868 b 592 1004 574 904 592 950 b 538 1142 592 1059 574 1105 b 400 1196 501 1178 456 1196 b 263 1142 344 1196 299 1178 b 208 1004 226 1105 208 1059 b 263 868 208 950 226 904 b 400 814 299 832 344 814 b 538 868 456 814 501 832 z m 475 1082 b 503 1004 494 1062 503 1036 b 474 928 503 973 493 947 b 400 900 455 909 431 900 b 326 928 369 900 345 909 b 297 1004 307 947 297 973 b 326 1082 297 1037 307 1063 b 400 1110 345 1100 369 1110 b 475 1082 431 1110 456 1100 z m 743 94 b 694 108 720 94 704 99 b 681 157 685 118 681 134 l 681 510 b 400 739 681 663 587 739 b 101 506 213 739 113 661 l 228 506 b 272 604 231 552 246 585 b 390 633 297 624 337 633 b 551 522 498 633 551 596 l 551 492 b 500 438 551 459 534 441 l 317 414 b 72 190 154 393 72 318 b 136 37 72 125 94 73 b 313 -18 179 0 238 -18 b 467 15 370 -18 421 -7 b 572 106 512 38 547 68 b 696 0 578 35 619 0 l 764 0 l 764 94 z m 336 81 b 235 111 294 81 260 91 b 199 196 211 131 199 160 b 338 319 199 264 245 306 l 551 351 l 551 251 b 488 132 551 206 530 166 b 336 81 445 98 394 81 z "},"æ":{"ha":1276,"x_min":0,"x_max":0,"o":"m 1207 375 b 1119 638 1207 486 1178 574 b 879 733 1060 701 980 733 b 635 626 774 733 692 698 b 394 738 596 700 516 738 b 186 679 306 738 236 718 b 101 506 136 640 108 582 l 226 506 b 272 603 231 551 246 584 b 385 633 297 623 335 633 b 550 501 495 633 550 589 l 550 419 l 344 419 b 141 360 255 419 187 400 b 72 200 95 320 72 267 b 142 41 72 133 95 80 b 328 -18 188 2 250 -18 b 608 133 456 -18 550 32 b 882 -17 666 33 757 -17 b 1084 44 961 -17 1028 4 b 1201 217 1140 85 1179 143 l 1085 231 b 886 88 1051 135 985 88 b 729 149 819 88 767 108 b 669 328 691 191 671 250 l 1207 328 z m 1022 575 b 1088 419 1057 538 1079 486 l 671 419 b 738 576 678 488 700 540 b 881 629 775 612 823 629 b 1022 575 939 629 986 611 z m 339 82 b 236 114 296 82 262 93 b 197 200 210 135 197 164 b 336 318 197 275 244 314 l 550 326 l 550 278 b 489 138 550 220 530 174 b 339 82 448 100 398 82 z "},"ç":{"ha":774,"x_min":0,"x_max":0,"o":"m 408 89 b 252 160 341 89 289 113 b 197 358 216 207 197 273 b 410 628 197 538 268 628 b 590 482 511 628 571 579 l 711 482 b 614 669 699 563 667 625 b 408 735 561 713 493 735 b 160 633 303 735 220 701 b 69 353 100 566 69 472 b 146 94 69 244 95 158 b 358 -17 197 29 268 -7 l 299 -111 l 336 -176 l 394 -176 b 453 -219 433 -176 453 -191 b 353 -275 453 -256 419 -275 l 318 -275 l 318 -350 l 363 -350 b 501 -314 422 -350 468 -338 b 551 -215 535 -290 551 -257 b 515 -126 551 -176 539 -147 b 414 -94 491 -105 457 -94 l 385 -94 l 435 -17 b 622 60 513 -11 575 15 b 711 250 669 106 699 169 l 592 250 b 408 89 570 143 509 89 z "},"è":{"ha":804,"x_min":0,"x_max":0,"o":"m 363 1022 l 188 1022 l 372 807 l 485 807 z m 735 375 b 647 638 735 486 705 574 b 407 733 588 701 508 733 b 160 632 301 733 219 700 b 69 361 100 563 69 473 b 161 89 69 249 100 158 b 410 -17 220 19 303 -17 b 612 44 488 -17 556 4 b 729 217 668 85 707 143 l 613 231 b 414 88 579 135 513 88 b 257 149 347 88 295 108 b 197 328 219 191 199 250 l 735 328 z m 550 575 b 615 419 585 538 607 486 l 199 419 b 265 576 206 488 228 540 b 408 629 303 612 351 629 b 550 575 467 629 514 611 z "},"é":{"ha":804,"x_min":0,"x_max":0,"o":"m 440 1022 l 318 807 l 431 807 l 615 1022 z m 735 375 b 647 638 735 486 705 574 b 407 733 588 701 508 733 b 160 632 301 733 219 700 b 69 361 100 563 69 473 b 161 89 69 249 100 158 b 410 -17 220 19 303 -17 b 612 44 488 -17 556 4 b 729 217 668 85 707 143 l 613 231 b 414 88 579 135 513 88 b 257 149 347 88 295 108 b 197 328 219 191 199 250 l 735 328 z m 550 575 b 615 419 585 538 607 486 l 199 419 b 265 576 206 488 228 540 b 408 629 303 612 351 629 b 550 575 467 629 514 611 z "},"ê":{"ha":804,"x_min":0,"x_max":0,"o":"m 504 807 l 638 807 l 474 1022 l 340 1022 l 176 807 l 310 807 l 407 946 z m 735 375 b 647 638 735 486 705 574 b 407 733 588 701 508 733 b 160 632 301 733 219 700 b 69 361 100 563 69 473 b 161 89 69 249 100 158 b 410 -17 220 19 303 -17 b 612 44 488 -17 556 4 b 729 217 668 85 707 143 l 613 231 b 414 88 579 135 513 88 b 257 149 347 88 295 108 b 197 328 219 191 199 250 l 735 328 z m 550 575 b 615 419 585 538 607 486 l 199 419 b 265 576 206 488 228 540 b 408 629 303 612 351 629 b 550 575 467 629 514 611 z "},"ë":{"ha":804,"x_min":0,"x_max":0,"o":"m 194 989 l 194 851 l 322 851 l 322 989 z m 492 989 l 492 851 l 619 851 l 619 989 z m 735 375 b 647 638 735 486 705 574 b 407 733 588 701 508 733 b 160 632 301 733 219 700 b 69 361 100 563 69 473 b 161 89 69 249 100 158 b 410 -17 220 19 303 -17 b 612 44 488 -17 556 4 b 729 217 668 85 707 143 l 613 231 b 414 88 579 135 513 88 b 257 149 347 88 295 108 b 197 328 219 191 199 250 l 735 328 z m 550 575 b 615 419 585 538 607 486 l 199 419 b 265 576 206 488 228 540 b 408 629 303 612 351 629 b 550 575 467 629 514 611 z "},"ì":{"ha":350,"x_min":0,"x_max":0,"o":"m 253 807 l 131 1022 l -44 1022 l 140 807 z m 239 0 l 239 717 l 111 717 l 111 0 z "},"í":{"ha":350,"x_min":0,"x_max":0,"o":"m 199 807 l 383 1022 l 208 1022 l 86 807 z m 239 0 l 239 717 l 111 717 l 111 0 z "},"î":{"ha":350,"x_min":0,"x_max":0,"o":"m 78 807 l 175 946 l 272 807 l 406 807 l 242 1022 l 108 1022 l -56 807 z m 239 0 l 239 717 l 111 717 l 111 0 z "},"ï":{"ha":350,"x_min":0,"x_max":0,"o":"m 111 851 l 111 989 l -17 989 l -17 851 z m 367 851 l 367 989 l 239 989 l 239 851 z m 239 0 l 239 717 l 111 717 l 111 0 z "},"ð":{"ha":797,"x_min":0,"x_max":0,"o":"m 653 972 l 586 1054 l 411 913 b 251 1007 364 947 311 978 l 201 932 b 332 853 255 902 299 876 l 219 774 l 281 704 l 399 801 b 581 549 491 725 552 640 b 376 632 532 604 464 632 b 153 539 283 632 208 601 b 69 304 97 476 69 398 b 158 69 69 208 99 130 b 396 -22 217 8 296 -22 b 640 78 500 -22 582 11 b 728 354 699 144 728 237 b 478 860 728 551 644 720 z m 603 350 b 548 153 603 264 584 198 b 399 85 511 107 462 85 b 251 149 337 85 288 106 b 197 310 215 191 197 245 b 248 465 197 374 214 425 b 394 525 282 505 331 525 b 531 484 447 525 493 511 b 603 371 569 457 593 419 z "},"ñ":{"ha":825,"x_min":0,"x_max":0,"o":"m 314 943 b 403 886 343 943 372 924 b 529 828 432 847 475 828 b 645 881 578 828 617 846 b 688 1040 673 917 688 970 l 590 1040 b 574 951 588 999 583 969 b 528 925 564 934 549 925 b 440 983 499 925 470 944 b 313 1040 410 1021 367 1040 b 197 987 263 1040 225 1022 b 154 828 168 951 154 898 l 251 828 b 268 917 253 869 259 899 b 314 943 277 934 293 943 z m 471 735 b 231 615 363 735 282 695 l 231 717 l 111 717 l 111 0 l 239 0 l 239 399 b 296 567 239 474 258 530 b 443 624 334 605 383 624 b 586 472 538 624 586 573 l 586 0 l 714 0 l 714 497 b 649 672 714 572 692 631 b 471 735 606 714 547 735 z "},"ò":{"ha":829,"x_min":0,"x_max":0,"o":"m 496 807 l 374 1022 l 199 1022 l 383 807 z m 414 -18 b 663 89 514 -18 597 18 b 760 364 727 159 760 251 b 665 635 760 476 728 566 b 418 735 601 701 519 735 b 167 632 314 735 231 700 b 69 358 102 564 69 473 b 165 86 69 246 101 156 b 414 -18 227 17 310 -18 z m 414 89 b 256 163 347 89 294 113 b 197 358 217 212 197 277 b 255 556 197 442 216 507 b 414 628 293 604 346 628 b 574 557 482 628 536 604 b 632 364 613 510 632 445 b 574 164 632 281 613 214 b 414 89 535 114 481 89 z "},"ó":{"ha":829,"x_min":0,"x_max":0,"o":"m 442 807 l 626 1022 l 451 1022 l 329 807 z m 414 -18 b 663 89 514 -18 597 18 b 760 364 727 159 760 251 b 665 635 760 476 728 566 b 418 735 601 701 519 735 b 167 632 314 735 231 700 b 69 358 102 564 69 473 b 165 86 69 246 101 156 b 414 -18 227 17 310 -18 z m 414 89 b 256 163 347 89 294 113 b 197 358 217 212 197 277 b 255 556 197 442 216 507 b 414 628 293 604 346 628 b 574 557 482 628 536 604 b 632 364 613 510 632 445 b 574 164 632 281 613 214 b 414 89 535 114 481 89 z "},"ô":{"ha":829,"x_min":0,"x_max":0,"o":"m 321 807 l 418 946 l 515 807 l 649 807 l 485 1022 l 351 1022 l 188 807 z m 414 -18 b 663 89 514 -18 597 18 b 760 364 727 159 760 251 b 665 635 760 476 728 566 b 418 735 601 701 519 735 b 167 632 314 735 231 700 b 69 358 102 564 69 473 b 165 86 69 246 101 156 b 414 -18 227 17 310 -18 z m 414 89 b 256 163 347 89 294 113 b 197 358 217 212 197 277 b 255 556 197 442 216 507 b 414 628 293 604 346 628 b 574 557 482 628 536 604 b 632 364 613 510 632 445 b 574 164 632 281 613 214 b 414 89 535 114 481 89 z "},"õ":{"ha":829,"x_min":0,"x_max":0,"o":"m 249 828 b 265 917 250 869 256 899 b 311 943 275 934 290 943 b 400 886 340 943 369 924 b 526 828 430 847 472 828 b 642 881 575 828 614 846 b 685 1040 671 917 685 970 l 588 1040 b 571 951 586 999 580 969 b 525 925 562 934 546 925 b 438 983 496 925 467 944 b 310 1040 407 1021 364 1040 b 194 987 261 1040 222 1022 b 151 828 166 951 151 898 z m 414 -18 b 663 89 514 -18 597 18 b 760 364 727 159 760 251 b 665 635 760 476 728 566 b 418 735 601 701 519 735 b 167 632 314 735 231 700 b 69 358 102 564 69 473 b 165 86 69 246 101 156 b 414 -18 227 17 310 -18 z m 414 89 b 256 163 347 89 294 113 b 197 358 217 212 197 277 b 255 556 197 442 216 507 b 414 628 293 604 346 628 b 574 557 482 628 536 604 b 632 364 613 510 632 445 b 574 164 632 281 613 214 b 414 89 535 114 481 89 z "},"ö":{"ha":829,"x_min":0,"x_max":0,"o":"m 333 851 l 333 989 l 206 989 l 206 851 z m 631 851 l 631 989 l 503 989 l 503 851 z m 414 -18 b 663 89 514 -18 597 18 b 760 364 727 159 760 251 b 665 635 760 476 728 566 b 418 735 601 701 519 735 b 167 632 314 735 231 700 b 69 358 102 564 69 473 b 165 86 69 246 101 156 b 414 -18 227 17 310 -18 z m 414 89 b 256 163 347 89 294 113 b 197 358 217 212 197 277 b 255 556 197 442 216 507 b 414 628 293 604 346 628 b 574 557 482 628 536 604 b 632 364 613 510 632 445 b 574 164 632 281 613 214 b 414 89 535 114 481 89 z "},"÷":{"ha":889,"x_min":0,"x_max":0,"o":"m 521 624 l 521 775 l 371 775 l 371 624 z m 840 367 l 840 492 l 50 492 l 50 367 z m 521 83 l 521 235 l 371 235 l 371 83 z "},"ø":{"ha":829,"x_min":0,"x_max":0,"o":"m 750 681 l 681 735 l 625 669 b 418 735 568 713 499 735 b 167 632 314 735 231 700 b 69 358 102 564 69 473 b 142 114 69 261 94 180 l 74 36 l 143 -18 l 203 50 b 414 -18 262 5 332 -18 b 663 89 514 -18 597 18 b 760 364 727 159 760 251 b 686 607 760 461 735 542 z m 197 358 b 255 556 197 442 216 507 b 414 628 293 604 346 628 b 549 583 469 628 513 613 l 226 211 b 197 358 207 252 197 301 z m 414 89 b 278 138 361 89 316 105 l 603 511 b 632 364 622 470 632 421 b 574 164 632 281 613 214 b 414 89 535 114 481 89 z "},"ù":{"ha":825,"x_min":0,"x_max":0,"o":"m 368 1022 l 193 1022 l 378 807 l 490 807 z m 586 318 b 529 149 586 243 567 187 b 382 93 491 112 442 93 b 239 244 287 93 239 144 l 239 717 l 111 717 l 111 219 b 176 44 111 144 133 86 b 354 -18 219 3 278 -18 b 594 101 463 -18 543 22 l 594 0 l 714 0 l 714 717 l 586 717 z "},"ú":{"ha":825,"x_min":0,"x_max":0,"o":"m 446 1022 l 324 807 l 436 807 l 621 1022 z m 586 318 b 529 149 586 243 567 187 b 382 93 491 112 442 93 b 239 244 287 93 239 144 l 239 717 l 111 717 l 111 219 b 176 44 111 144 133 86 b 354 -18 219 3 278 -18 b 594 101 463 -18 543 22 l 594 0 l 714 0 l 714 717 l 586 717 z "},"û":{"ha":825,"x_min":0,"x_max":0,"o":"m 510 807 l 643 807 l 479 1022 l 346 1022 l 182 807 l 315 807 l 413 946 z m 586 318 b 529 149 586 243 567 187 b 382 93 491 112 442 93 b 239 244 287 93 239 144 l 239 717 l 111 717 l 111 219 b 176 44 111 144 133 86 b 354 -18 219 3 278 -18 b 594 101 463 -18 543 22 l 594 0 l 714 0 l 714 717 l 586 717 z "},"ü":{"ha":825,"x_min":0,"x_max":0,"o":"m 200 989 l 200 851 l 328 851 l 328 989 z m 497 989 l 497 851 l 625 851 l 625 989 z m 586 318 b 529 149 586 243 567 187 b 382 93 491 112 442 93 b 239 244 287 93 239 144 l 239 717 l 111 717 l 111 219 b 176 44 111 144 133 86 b 354 -18 219 3 278 -18 b 594 101 463 -18 543 22 l 594 0 l 714 0 l 714 717 l 586 717 z "},"ý":{"ha":749,"x_min":0,"x_max":0,"o":"m 408 1022 l 286 807 l 399 807 l 583 1022 z m 375 136 l 360 222 l 174 717 l 35 717 l 324 7 l 290 -81 b 244 -157 275 -119 260 -144 b 171 -176 228 -170 203 -176 l 104 -176 l 104 -283 l 183 -283 b 305 -252 235 -283 276 -273 b 381 -140 334 -231 359 -194 l 714 717 l 582 717 z "},"þ":{"ha":835,"x_min":0,"x_max":0,"o":"m 457 732 b 239 629 361 732 288 698 l 239 989 l 111 989 l 111 -283 l 239 -283 l 239 88 b 451 -15 291 19 362 -15 b 681 94 548 -15 624 21 b 765 375 737 168 765 261 b 681 635 765 483 737 570 b 457 732 624 700 550 732 z m 290 168 b 232 367 251 217 232 283 b 288 556 232 448 251 511 b 439 622 326 600 376 622 b 586 558 503 622 552 601 b 638 375 620 516 638 455 b 585 172 638 292 620 224 b 439 94 549 120 500 94 b 290 168 378 94 328 119 z "},"ÿ":{"ha":749,"x_min":0,"x_max":0,"o":"m 163 989 l 163 851 l 290 851 l 290 989 z m 460 989 l 460 851 l 588 851 l 588 989 z m 375 136 l 360 222 l 174 717 l 35 717 l 324 7 l 290 -81 b 244 -157 275 -119 260 -144 b 171 -176 228 -170 203 -176 l 104 -176 l 104 -283 l 183 -283 b 305 -252 235 -283 276 -273 b 381 -140 334 -231 359 -194 l 714 717 l 582 717 z "},"Ā":{"ha":994,"x_min":0,"x_max":0,"o":"m 275 1221 l 275 1122 l 719 1122 l 719 1221 z m 953 0 l 571 989 l 425 989 l 42 0 l 179 0 l 286 290 l 706 290 l 810 0 z m 465 778 l 499 881 l 531 778 l 665 403 l 328 403 z "},"ā":{"ha":792,"x_min":0,"x_max":0,"o":"m 178 949 l 178 850 l 622 850 l 622 949 z m 743 94 b 694 108 720 94 704 99 b 681 157 685 118 681 134 l 681 510 b 400 739 681 663 587 739 b 101 506 213 739 113 661 l 228 506 b 272 604 231 552 246 585 b 390 633 297 624 337 633 b 551 522 498 633 551 596 l 551 492 b 500 438 551 459 534 441 l 317 414 b 72 190 154 393 72 318 b 136 37 72 125 94 73 b 313 -18 179 0 238 -18 b 467 15 370 -18 421 -7 b 572 106 512 38 547 68 b 696 0 578 35 619 0 l 764 0 l 764 94 z m 336 81 b 235 111 294 81 260 91 b 199 196 211 131 199 160 b 338 319 199 264 245 306 l 551 351 l 551 251 b 488 132 551 206 530 166 b 336 81 445 98 394 81 z "},"Ă":{"ha":994,"x_min":0,"x_max":0,"o":"m 496 1082 b 719 1272 638 1082 712 1145 l 635 1272 b 497 1165 632 1201 586 1165 b 360 1272 408 1165 363 1201 l 275 1272 b 496 1082 282 1145 356 1082 z m 953 0 l 571 989 l 425 989 l 42 0 l 179 0 l 286 290 l 706 290 l 810 0 z m 465 778 l 499 881 l 531 778 l 665 403 l 328 403 z "},"ă":{"ha":792,"x_min":0,"x_max":0,"o":"m 399 810 b 622 1000 540 810 615 873 l 538 1000 b 400 893 535 929 489 893 b 263 1000 311 893 265 929 l 178 1000 b 399 810 185 873 259 810 z m 743 94 b 694 108 720 94 704 99 b 681 157 685 118 681 134 l 681 510 b 400 739 681 663 587 739 b 101 506 213 739 113 661 l 228 506 b 272 604 231 552 246 585 b 390 633 297 624 337 633 b 551 522 498 633 551 596 l 551 492 b 500 438 551 459 534 441 l 317 414 b 72 190 154 393 72 318 b 136 37 72 125 94 73 b 313 -18 179 0 238 -18 b 467 15 370 -18 421 -7 b 572 106 512 38 547 68 b 696 0 578 35 619 0 l 764 0 l 764 94 z m 336 81 b 235 111 294 81 260 91 b 199 196 211 131 199 160 b 338 319 199 264 245 306 l 551 351 l 551 251 b 488 132 551 206 530 166 b 336 81 445 98 394 81 z "},"Ą":{"ha":994,"x_min":0,"x_max":0,"o":"m 807 -133 b 861 -61 807 -108 825 -84 l 953 0 l 571 989 l 425 989 l 42 0 l 179 0 l 286 290 l 706 290 l 810 0 l 831 0 l 794 -19 b 690 -157 725 -56 690 -102 b 858 -279 690 -238 746 -279 l 935 -279 l 935 -189 l 890 -189 b 807 -133 835 -189 807 -170 z m 465 778 l 499 881 l 531 778 l 665 403 l 328 403 z "},"ą":{"ha":792,"x_min":0,"x_max":0,"o":"m 764 0 l 764 94 l 743 94 b 694 108 720 94 704 99 b 681 157 685 118 681 134 l 681 511 b 400 739 681 663 587 739 b 101 507 214 739 114 662 l 228 507 b 272 604 231 552 246 585 b 390 633 297 624 337 633 b 551 524 498 633 551 597 l 551 492 b 500 438 551 459 534 441 l 317 414 b 72 190 154 393 72 318 b 136 37 72 125 94 73 b 313 -18 179 0 238 -18 b 467 15 370 -18 421 -7 b 572 106 512 38 547 68 b 650 6 576 50 602 17 l 606 -19 b 501 -157 536 -56 501 -102 b 669 -279 501 -238 557 -279 l 746 -279 l 746 -189 l 701 -189 b 618 -133 646 -189 618 -170 b 672 -61 618 -108 636 -84 z m 336 81 b 235 111 294 81 260 91 b 199 196 211 131 199 160 b 338 319 199 264 245 306 l 551 351 l 551 251 b 488 132 551 206 530 166 b 336 81 445 98 394 81 z "},"Ć":{"ha":1017,"x_min":0,"x_max":0,"o":"m 558 1079 l 743 1294 l 568 1294 l 446 1079 z m 536 -24 b 818 78 650 -24 744 10 b 954 360 892 147 938 240 l 826 360 b 734 160 814 273 784 206 b 540 92 684 115 620 92 b 306 199 440 92 362 128 b 221 494 249 271 221 369 b 306 786 221 619 249 716 b 540 892 362 856 440 892 b 717 839 611 892 669 874 b 810 690 764 804 795 754 l 942 690 b 806 921 926 788 881 864 b 535 1007 729 978 638 1007 b 211 865 400 1007 292 960 b 89 494 130 772 89 648 b 210 121 89 341 129 216 b 536 -24 290 25 399 -24 z "},"ć":{"ha":774,"x_min":0,"x_max":0,"o":"m 432 807 l 617 1022 l 442 1022 l 319 807 z m 401 -18 b 613 51 489 -18 560 5 b 711 250 665 98 698 164 l 592 250 b 408 89 570 143 509 89 b 252 160 341 89 289 113 b 197 358 216 207 197 273 b 410 628 197 538 268 628 b 590 482 511 628 571 579 l 711 482 b 614 669 699 563 667 625 b 408 735 561 713 493 735 b 160 633 303 735 220 701 b 69 353 100 566 69 472 b 158 79 69 235 99 144 b 401 -18 218 14 299 -18 z "},"Ĉ":{"ha":1017,"x_min":0,"x_max":0,"o":"m 438 1079 l 535 1218 l 632 1079 l 765 1079 l 601 1294 l 468 1294 l 304 1079 z m 536 -24 b 818 78 650 -24 744 10 b 954 360 892 147 938 240 l 826 360 b 734 160 814 273 784 206 b 540 92 684 115 620 92 b 306 199 440 92 362 128 b 221 494 249 271 221 369 b 306 786 221 619 249 716 b 540 892 362 856 440 892 b 717 839 611 892 669 874 b 810 690 764 804 795 754 l 942 690 b 806 921 926 788 881 864 b 535 1007 729 978 638 1007 b 211 865 400 1007 292 960 b 89 494 130 772 89 648 b 210 121 89 341 129 216 b 536 -24 290 25 399 -24 z "},"ĉ":{"ha":774,"x_min":0,"x_max":0,"o":"m 311 807 l 408 946 l 506 807 l 639 807 l 475 1022 l 342 1022 l 178 807 z m 401 -18 b 613 51 489 -18 560 5 b 711 250 665 98 698 164 l 592 250 b 408 89 570 143 509 89 b 252 160 341 89 289 113 b 197 358 216 207 197 273 b 410 628 197 538 268 628 b 590 482 511 628 571 579 l 711 482 b 614 669 699 563 667 625 b 408 735 561 713 493 735 b 160 633 303 735 220 701 b 69 353 100 566 69 472 b 158 79 69 235 99 144 b 401 -18 218 14 299 -18 z "},"Ċ":{"ha":1017,"x_min":0,"x_max":0,"o":"m 599 1111 l 599 1249 l 471 1249 l 471 1111 z m 536 -24 b 818 78 650 -24 744 10 b 954 360 892 147 938 240 l 826 360 b 734 160 814 273 784 206 b 540 92 684 115 620 92 b 306 199 440 92 362 128 b 221 494 249 271 221 369 b 306 786 221 619 249 716 b 540 892 362 856 440 892 b 717 839 611 892 669 874 b 810 690 764 804 795 754 l 942 690 b 806 921 926 788 881 864 b 535 1007 729 978 638 1007 b 211 865 400 1007 292 960 b 89 494 130 772 89 648 b 210 121 89 341 129 216 b 536 -24 290 25 399 -24 z "},"ċ":{"ha":774,"x_min":0,"x_max":0,"o":"m 472 851 l 472 989 l 344 989 l 344 851 z m 401 -18 b 613 51 489 -18 560 5 b 711 250 665 98 698 164 l 592 250 b 408 89 570 143 509 89 b 252 160 341 89 289 113 b 197 358 216 207 197 273 b 410 628 197 538 268 628 b 590 482 511 628 571 579 l 711 482 b 614 669 699 563 667 625 b 408 735 561 713 493 735 b 160 633 303 735 220 701 b 69 353 100 566 69 472 b 158 79 69 235 99 144 b 401 -18 218 14 299 -18 z "},"Č":{"ha":1017,"x_min":0,"x_max":0,"o":"m 601 1097 l 765 1313 l 632 1313 l 535 1174 l 438 1313 l 304 1313 l 468 1097 z m 536 -24 b 818 78 650 -24 744 10 b 954 360 892 147 938 240 l 826 360 b 734 160 814 273 784 206 b 540 92 684 115 620 92 b 306 199 440 92 362 128 b 221 494 249 271 221 369 b 306 786 221 619 249 716 b 540 892 362 856 440 892 b 717 839 611 892 669 874 b 810 690 764 804 795 754 l 942 690 b 806 921 926 788 881 864 b 535 1007 729 978 638 1007 b 211 865 400 1007 292 960 b 89 494 130 772 89 648 b 210 121 89 341 129 216 b 536 -24 290 25 399 -24 z "},"č":{"ha":774,"x_min":0,"x_max":0,"o":"m 475 807 l 639 1022 l 506 1022 l 408 883 l 311 1022 l 178 1022 l 342 807 z m 401 -18 b 613 51 489 -18 560 5 b 711 250 665 98 698 164 l 592 250 b 408 89 570 143 509 89 b 252 160 341 89 289 113 b 197 358 216 207 197 273 b 410 628 197 538 268 628 b 590 482 511 628 571 579 l 711 482 b 614 669 699 563 667 625 b 408 735 561 713 493 735 b 160 633 303 735 220 701 b 69 353 100 566 69 472 b 158 79 69 235 99 144 b 401 -18 218 14 299 -18 z "},"Ď":{"ha":990,"x_min":0,"x_max":0,"o":"m 713 1313 l 579 1313 l 482 1174 l 385 1313 l 251 1313 l 415 1097 l 549 1097 z m 118 989 l 118 0 l 447 0 b 792 131 598 0 713 44 b 910 494 870 218 910 339 b 798 860 910 652 872 774 b 475 989 723 946 616 989 z m 247 113 l 247 876 l 449 876 b 697 783 560 876 642 845 b 778 494 751 720 778 624 b 695 207 778 366 750 270 b 442 113 640 144 556 113 z "},"ď":{"ha":1078,"x_min":0,"x_max":0,"o":"m 596 631 b 379 732 546 698 474 732 b 156 632 288 732 213 699 b 69 369 98 564 69 477 b 154 93 69 256 98 163 b 382 -15 211 21 287 -15 b 518 19 432 -15 477 -4 b 613 114 559 43 590 74 l 613 0 l 724 0 l 724 989 l 596 989 z m 858 714 l 954 714 l 1078 989 l 925 989 z m 250 169 b 197 369 215 219 197 285 b 249 556 197 450 215 512 b 397 622 284 600 333 622 b 547 556 460 622 510 600 b 603 367 584 511 603 448 b 544 168 603 283 583 217 b 394 94 506 119 456 94 b 250 169 333 94 285 119 z "},"Đ":{"ha":1115,"x_min":0,"x_max":0,"o":"m 243 989 l 243 549 l 56 556 l 56 443 l 243 450 l 243 0 l 572 0 b 917 131 723 0 838 44 b 1035 494 995 218 1035 339 b 923 860 1035 652 997 774 b 600 989 848 946 741 989 z m 372 113 l 372 451 l 639 443 l 639 556 l 372 547 l 372 876 l 574 876 b 822 783 685 876 767 845 b 903 494 876 720 903 624 b 820 207 903 366 875 270 b 567 113 765 144 681 113 z "},"đ":{"ha":888,"x_min":0,"x_max":0,"o":"m 724 917 l 724 989 l 596 989 l 596 917 l 379 922 l 379 824 l 596 829 l 596 631 b 379 732 546 698 474 732 b 156 632 288 732 213 699 b 69 369 98 564 69 477 b 154 93 69 256 98 163 b 382 -15 211 21 287 -15 b 518 19 432 -15 477 -4 b 613 114 559 43 590 74 l 613 0 l 724 0 l 724 829 l 874 824 l 874 922 z m 250 169 b 197 369 215 219 197 285 b 249 556 197 450 215 512 b 397 622 284 600 333 622 b 547 556 460 622 510 600 b 603 367 584 511 603 448 b 544 168 603 283 583 217 b 394 94 506 119 456 94 b 250 169 333 94 285 119 z "},"Ē":{"ha":921,"x_min":0,"x_max":0,"o":"m 258 1221 l 258 1122 l 703 1122 l 703 1221 z m 247 453 l 774 453 l 774 565 l 247 565 l 247 876 l 818 876 l 818 989 l 118 989 l 118 0 l 831 0 l 831 113 l 247 113 z "},"ē":{"ha":804,"x_min":0,"x_max":0,"o":"m 185 949 l 185 850 l 629 850 l 629 949 z m 735 375 b 647 638 735 486 705 574 b 407 733 588 701 508 733 b 160 632 301 733 219 700 b 69 361 100 563 69 473 b 161 89 69 249 100 158 b 410 -17 220 19 303 -17 b 612 44 488 -17 556 4 b 729 217 668 85 707 143 l 613 231 b 414 88 579 135 513 88 b 257 149 347 88 295 108 b 197 328 219 191 199 250 l 735 328 z m 550 575 b 615 419 585 538 607 486 l 199 419 b 265 576 206 488 228 540 b 408 629 303 612 351 629 b 550 575 467 629 514 611 z "},"Ĕ":{"ha":921,"x_min":0,"x_max":0,"o":"m 479 1082 b 703 1272 621 1082 695 1145 l 618 1272 b 481 1165 615 1201 569 1165 b 343 1272 392 1165 346 1201 l 258 1272 b 479 1082 266 1145 339 1082 z m 247 453 l 774 453 l 774 565 l 247 565 l 247 876 l 818 876 l 818 989 l 118 989 l 118 0 l 831 0 l 831 113 l 247 113 z "},"ĕ":{"ha":804,"x_min":0,"x_max":0,"o":"m 406 810 b 629 1000 547 810 622 873 l 544 1000 b 407 893 542 929 496 893 b 269 1000 318 893 272 929 l 185 1000 b 406 810 192 873 266 810 z m 735 375 b 647 638 735 486 705 574 b 407 733 588 701 508 733 b 160 632 301 733 219 700 b 69 361 100 563 69 473 b 161 89 69 249 100 158 b 410 -17 220 19 303 -17 b 612 44 488 -17 556 4 b 729 217 668 85 707 143 l 613 231 b 414 88 579 135 513 88 b 257 149 347 88 295 108 b 197 328 219 191 199 250 l 735 328 z m 550 575 b 615 419 585 538 607 486 l 199 419 b 265 576 206 488 228 540 b 408 629 303 612 351 629 b 550 575 467 629 514 611 z "},"Ė":{"ha":921,"x_min":0,"x_max":0,"o":"m 417 1249 l 417 1111 l 544 1111 l 544 1249 z m 247 453 l 774 453 l 774 565 l 247 565 l 247 876 l 818 876 l 818 989 l 118 989 l 118 0 l 831 0 l 831 113 l 247 113 z "},"ė":{"ha":804,"x_min":0,"x_max":0,"o":"m 343 989 l 343 851 l 471 851 l 471 989 z m 735 375 b 647 638 735 486 705 574 b 407 733 588 701 508 733 b 160 632 301 733 219 700 b 69 361 100 563 69 473 b 161 89 69 249 100 158 b 410 -17 220 19 303 -17 b 612 44 488 -17 556 4 b 729 217 668 85 707 143 l 613 231 b 414 88 579 135 513 88 b 257 149 347 88 295 108 b 197 328 219 191 199 250 l 735 328 z m 550 575 b 615 419 585 538 607 486 l 199 419 b 265 576 206 488 228 540 b 408 629 303 612 351 629 b 550 575 467 629 514 611 z "},"Ę":{"ha":921,"x_min":0,"x_max":0,"o":"m 831 0 l 831 113 l 247 113 l 247 453 l 774 453 l 774 565 l 247 565 l 247 876 l 818 876 l 818 989 l 118 989 l 118 0 l 708 0 l 672 -19 b 568 -157 603 -56 568 -102 b 736 -279 568 -238 624 -279 l 813 -279 l 813 -189 l 768 -189 b 685 -133 713 -189 685 -170 b 739 -61 685 -108 703 -84 z "},"ę":{"ha":804,"x_min":0,"x_max":0,"o":"m 735 375 b 647 638 735 486 705 574 b 407 733 588 701 508 733 b 160 632 301 733 219 700 b 69 361 100 563 69 473 b 154 96 69 252 98 163 b 386 -17 212 27 289 -10 b 308 -137 334 -50 308 -90 b 476 -260 308 -219 364 -260 l 553 -260 l 553 -169 l 508 -169 b 425 -114 453 -169 425 -151 b 479 -42 425 -90 443 -66 l 571 19 b 729 217 649 58 701 124 l 613 231 b 414 88 579 135 513 88 b 257 149 347 88 295 108 b 197 328 219 191 199 250 l 735 328 z m 550 575 b 615 419 585 538 607 486 l 199 419 b 265 576 206 488 228 540 b 408 629 303 612 351 629 b 550 575 467 629 514 611 z "},"Ě":{"ha":921,"x_min":0,"x_max":0,"o":"m 711 1313 l 578 1313 l 481 1174 l 383 1313 l 250 1313 l 414 1097 l 547 1097 z m 247 453 l 774 453 l 774 565 l 247 565 l 247 876 l 818 876 l 818 989 l 118 989 l 118 0 l 831 0 l 831 113 l 247 113 z "},"ě":{"ha":804,"x_min":0,"x_max":0,"o":"m 638 1022 l 504 1022 l 407 883 l 310 1022 l 176 1022 l 340 807 l 474 807 z m 735 375 b 647 638 735 486 705 574 b 407 733 588 701 508 733 b 160 632 301 733 219 700 b 69 361 100 563 69 473 b 161 89 69 249 100 158 b 410 -17 220 19 303 -17 b 612 44 488 -17 556 4 b 729 217 668 85 707 143 l 613 231 b 414 88 579 135 513 88 b 257 149 347 88 295 108 b 197 328 219 191 199 250 l 735 328 z m 550 575 b 615 419 585 538 607 486 l 199 419 b 265 576 206 488 228 540 b 408 629 303 612 351 629 b 550 575 467 629 514 611 z "},"Ĝ":{"ha":1121,"x_min":0,"x_max":0,"o":"m 663 1079 l 796 1079 l 632 1294 l 499 1294 l 335 1079 l 468 1079 l 565 1218 z m 575 417 l 875 417 l 875 363 b 767 164 857 277 821 211 b 560 93 712 117 643 93 b 311 203 453 93 370 130 b 221 493 251 276 221 373 b 313 789 221 619 252 718 b 572 896 375 860 461 896 b 763 844 648 896 712 879 b 860 694 813 810 846 760 l 985 703 b 849 929 970 798 925 874 b 565 1011 772 984 677 1011 b 217 872 417 1011 301 965 b 89 497 131 779 89 654 b 219 118 89 337 132 211 b 557 -22 307 25 420 -22 b 879 133 701 -22 809 30 l 908 0 l 1003 0 l 1003 529 l 575 529 z "},"ĝ":{"ha":842,"x_min":0,"x_max":0,"o":"m 476 807 l 610 807 l 446 1022 l 313 1022 l 149 807 l 282 807 l 379 946 z m 611 606 b 517 699 589 645 557 676 b 379 732 476 721 430 732 b 156 632 288 732 213 699 b 69 369 98 564 69 477 b 154 93 69 256 98 163 b 382 -15 211 21 287 -15 b 513 17 429 -15 473 -5 b 607 104 552 38 584 67 l 607 11 b 558 -150 607 -64 591 -118 b 399 -199 526 -182 473 -199 b 274 -173 345 -199 303 -190 b 217 -90 245 -156 226 -128 l 92 -90 b 184 -247 101 -160 132 -212 b 394 -300 236 -282 306 -300 b 731 24 619 -300 731 -192 l 731 717 l 611 717 z m 250 169 b 197 369 215 219 197 285 b 249 556 197 450 215 512 b 397 622 284 600 333 622 b 547 556 460 622 510 600 b 603 367 584 511 603 448 b 544 168 603 283 583 217 b 394 94 506 119 456 94 b 250 169 333 94 285 119 z "},"Ğ":{"ha":1121,"x_min":0,"x_max":0,"o":"m 564 1082 b 788 1272 706 1082 780 1145 l 703 1272 b 565 1165 700 1201 654 1165 b 428 1272 476 1165 431 1201 l 343 1272 b 564 1082 350 1145 424 1082 z m 575 417 l 875 417 l 875 363 b 767 164 857 277 821 211 b 560 93 712 117 643 93 b 311 203 453 93 370 130 b 221 493 251 276 221 373 b 313 789 221 619 252 718 b 572 896 375 860 461 896 b 763 844 648 896 712 879 b 860 694 813 810 846 760 l 985 703 b 849 929 970 798 925 874 b 565 1011 772 984 677 1011 b 217 872 417 1011 301 965 b 89 497 131 779 89 654 b 219 118 89 337 132 211 b 557 -22 307 25 420 -22 b 879 133 701 -22 809 30 l 908 0 l 1003 0 l 1003 529 l 575 529 z "},"ğ":{"ha":842,"x_min":0,"x_max":0,"o":"m 378 810 b 601 1000 519 810 594 873 l 517 1000 b 379 893 514 929 468 893 b 242 1000 290 893 244 929 l 157 1000 b 378 810 164 873 238 810 z m 611 606 b 517 699 589 645 557 676 b 379 732 476 721 430 732 b 156 632 288 732 213 699 b 69 369 98 564 69 477 b 154 93 69 256 98 163 b 382 -15 211 21 287 -15 b 513 17 429 -15 473 -5 b 607 104 552 38 584 67 l 607 11 b 558 -150 607 -64 591 -118 b 399 -199 526 -182 473 -199 b 274 -173 345 -199 303 -190 b 217 -90 245 -156 226 -128 l 92 -90 b 184 -247 101 -160 132 -212 b 394 -300 236 -282 306 -300 b 731 24 619 -300 731 -192 l 731 717 l 611 717 z m 250 169 b 197 369 215 219 197 285 b 249 556 197 450 215 512 b 397 622 284 600 333 622 b 547 556 460 622 510 600 b 603 367 584 511 603 448 b 544 168 603 283 583 217 b 394 94 506 119 456 94 b 250 169 333 94 285 119 z "},"Ġ":{"ha":1121,"x_min":0,"x_max":0,"o":"m 501 1249 l 501 1111 l 629 1111 l 629 1249 z m 575 417 l 875 417 l 875 363 b 767 164 857 277 821 211 b 560 93 712 117 643 93 b 311 203 453 93 370 130 b 221 493 251 276 221 373 b 313 789 221 619 252 718 b 572 896 375 860 461 896 b 763 844 648 896 712 879 b 860 694 813 810 846 760 l 985 703 b 849 929 970 798 925 874 b 565 1011 772 984 677 1011 b 217 872 417 1011 301 965 b 89 497 131 779 89 654 b 219 118 89 337 132 211 b 557 -22 307 25 420 -22 b 879 133 701 -22 809 30 l 908 0 l 1003 0 l 1003 529 l 575 529 z "},"ġ":{"ha":842,"x_min":0,"x_max":0,"o":"m 315 989 l 315 851 l 443 851 l 443 989 z m 611 606 b 517 699 589 645 557 676 b 379 732 476 721 430 732 b 156 632 288 732 213 699 b 69 369 98 564 69 477 b 154 93 69 256 98 163 b 382 -15 211 21 287 -15 b 513 17 429 -15 473 -5 b 607 104 552 38 584 67 l 607 11 b 558 -150 607 -64 591 -118 b 399 -199 526 -182 473 -199 b 274 -173 345 -199 303 -190 b 217 -90 245 -156 226 -128 l 92 -90 b 184 -247 101 -160 132 -212 b 394 -300 236 -282 306 -300 b 731 24 619 -300 731 -192 l 731 717 l 611 717 z m 250 169 b 197 369 215 219 197 285 b 249 556 197 450 215 512 b 397 622 284 600 333 622 b 547 556 460 622 510 600 b 603 367 584 511 603 448 b 544 168 603 283 583 217 b 394 94 506 119 456 94 b 250 169 333 94 285 119 z "},"Ģ":{"ha":1121,"x_min":0,"x_max":0,"o":"m 575 417 l 875 417 l 875 363 b 767 164 857 277 821 211 b 560 93 712 117 643 93 b 311 203 453 93 370 130 b 221 493 251 276 221 373 b 313 789 221 619 252 718 b 572 896 375 860 461 896 b 763 844 648 896 712 879 b 860 694 813 810 846 760 l 985 703 b 849 929 970 798 925 874 b 565 1011 772 984 677 1011 b 217 872 417 1011 301 965 b 89 497 131 779 89 654 b 219 118 89 337 132 211 b 557 -22 307 25 420 -22 b 879 133 701 -22 809 30 l 908 0 l 1003 0 l 1003 529 l 575 529 z m 581 -192 l 581 -236 b 528 -286 581 -269 563 -286 l 481 -286 l 481 -340 l 528 -340 b 635 -225 599 -340 635 -302 l 635 -92 l 481 -92 l 481 -199 z "},"ģ":{"ha":842,"x_min":0,"x_max":0,"o":"m 371 951 l 371 996 b 422 1046 371 1029 388 1046 l 469 1046 l 469 1100 l 422 1100 b 317 985 352 1100 317 1062 l 317 851 l 469 851 l 469 958 z m 611 606 b 517 699 589 645 557 676 b 379 732 476 721 430 732 b 156 632 288 732 213 699 b 69 369 98 564 69 477 b 154 93 69 256 98 163 b 382 -15 211 21 287 -15 b 513 17 429 -15 473 -5 b 607 104 552 38 584 67 l 607 11 b 558 -150 607 -64 591 -118 b 399 -199 526 -182 473 -199 b 274 -173 345 -199 303 -190 b 217 -90 245 -156 226 -128 l 92 -90 b 184 -247 101 -160 132 -212 b 394 -300 236 -282 306 -300 b 731 24 619 -300 731 -192 l 731 717 l 611 717 z m 250 169 b 197 369 215 219 197 285 b 249 556 197 450 215 512 b 397 622 284 600 333 622 b 547 556 460 622 510 600 b 603 367 584 511 603 448 b 544 168 603 283 583 217 b 394 94 506 119 456 94 b 250 169 333 94 285 119 z "},"Ĥ":{"ha":1018,"x_min":0,"x_max":0,"o":"m 607 1079 l 740 1079 l 576 1294 l 443 1294 l 279 1079 l 413 1079 l 510 1218 z m 771 582 l 247 582 l 247 989 l 118 989 l 118 0 l 247 0 l 247 469 l 771 469 l 771 0 l 900 0 l 900 989 l 771 989 z "},"ĥ":{"ha":825,"x_min":0,"x_max":0,"o":"m 406 1079 l 242 1294 l 108 1294 l -56 1079 l 78 1079 l 175 1218 l 272 1079 z m 471 735 b 239 626 368 735 291 699 l 239 989 l 111 989 l 111 0 l 239 0 l 239 399 b 296 567 239 474 258 530 b 443 624 334 605 383 624 b 586 472 538 624 586 573 l 586 0 l 714 0 l 714 497 b 649 672 714 572 692 631 b 471 735 606 714 547 735 z "},"Ħ":{"ha":1018,"x_min":0,"x_max":0,"o":"m 771 818 l 247 818 l 247 989 l 118 989 l 118 0 l 247 0 l 247 424 l 771 424 l 771 0 l 900 0 l 900 989 l 771 989 z m 247 706 l 771 706 l 771 536 l 247 536 z "},"ħ":{"ha":881,"x_min":0,"x_max":0,"o":"m 526 735 b 294 626 424 735 346 699 l 294 829 l 508 824 l 508 922 l 294 917 l 294 989 l 167 989 l 167 917 l 14 922 l 14 824 l 167 829 l 167 0 l 294 0 l 294 399 b 351 567 294 474 313 530 b 499 624 389 605 438 624 b 642 472 594 624 642 573 l 642 0 l 769 0 l 769 497 b 705 672 769 572 748 631 b 526 735 662 714 602 735 z "},"Ĩ":{"ha":365,"x_min":0,"x_max":0,"o":"m 14 1100 b 31 1189 16 1142 21 1171 b 76 1215 40 1206 55 1215 b 165 1158 105 1215 135 1196 b 292 1100 195 1119 237 1100 b 408 1153 341 1100 379 1118 b 450 1313 436 1189 450 1242 l 353 1313 b 336 1224 351 1271 345 1241 b 290 1197 327 1206 312 1197 b 203 1256 262 1197 232 1217 b 75 1313 172 1294 130 1313 b -41 1259 26 1313 -13 1295 b -83 1100 -69 1223 -83 1170 z m 247 0 l 247 989 l 118 989 l 118 0 z "},"ĩ":{"ha":350,"x_min":0,"x_max":0,"o":"m 6 828 b 22 917 7 869 13 899 b 68 943 31 934 47 943 b 157 886 97 943 126 924 b 283 828 187 847 229 828 b 399 881 332 828 371 846 b 442 1040 428 917 442 970 l 344 1040 b 328 951 343 999 337 969 b 282 925 319 934 303 925 b 194 983 253 925 224 944 b 67 1040 164 1021 121 1040 b -49 987 18 1040 -21 1022 b -92 828 -78 951 -92 898 z m 239 0 l 239 717 l 111 717 l 111 0 z "},"Ī":{"ha":365,"x_min":0,"x_max":0,"o":"m 406 1122 l 406 1221 l -39 1221 l -39 1122 z m 247 0 l 247 989 l 118 989 l 118 0 z "},"ī":{"ha":350,"x_min":0,"x_max":0,"o":"m 397 850 l 397 949 l -47 949 l -47 850 z m 239 0 l 239 717 l 111 717 l 111 0 z "},"Ĭ":{"ha":365,"x_min":0,"x_max":0,"o":"m 182 1082 b 406 1272 324 1082 398 1145 l 321 1272 b 183 1165 318 1201 272 1165 b 46 1272 94 1165 49 1201 l -39 1272 b 182 1082 -31 1145 42 1082 z m 247 0 l 247 989 l 118 989 l 118 0 z "},"ĭ":{"ha":350,"x_min":0,"x_max":0,"o":"m 174 810 b 397 1000 315 810 390 873 l 313 1000 b 175 893 310 929 264 893 b 38 1000 86 893 40 929 l -47 1000 b 174 810 -40 873 34 810 z m 239 0 l 239 717 l 111 717 l 111 0 z "},"Į":{"ha":365,"x_min":0,"x_max":0,"o":"m 247 989 l 118 989 l 118 0 l 140 0 l 121 -15 b 38 -93 80 -47 53 -73 b 17 -161 24 -113 17 -136 b 185 -279 17 -240 73 -279 l 247 -279 l 247 -189 l 203 -189 b 133 -139 156 -189 133 -172 b 172 -72 133 -120 146 -98 l 247 0 z "},"į":{"ha":350,"x_min":0,"x_max":0,"o":"m 111 851 l 239 851 l 239 989 l 111 989 z m 132 0 l 113 -15 b 30 -93 72 -47 44 -73 b 8 -161 16 -113 8 -136 b 176 -279 8 -240 64 -279 l 239 -279 l 239 -189 l 194 -189 b 125 -139 148 -189 125 -172 b 164 -72 125 -120 138 -98 l 239 0 l 239 717 l 111 717 l 111 0 z "},"İ":{"ha":365,"x_min":0,"x_max":0,"o":"m 247 1111 l 247 1249 l 119 1249 l 119 1111 z m 247 0 l 247 989 l 118 989 l 118 0 z "},"ı":{"ha":350,"x_min":0,"x_max":0,"o":"m 239 0 l 239 717 l 111 717 l 111 0 z "},"Ĳ":{"ha":1118,"x_min":0,"x_max":0,"o":"m 247 0 l 247 989 l 118 989 l 118 0 z m 928 56 b 1000 267 976 104 1000 174 l 1000 989 l 871 989 l 871 271 b 719 99 871 156 820 99 b 557 271 611 99 557 156 l 557 338 l 428 338 l 428 264 b 504 58 428 175 453 106 b 718 -17 555 8 626 -17 b 928 56 810 -17 880 7 z "},"ĳ":{"ha":700,"x_min":0,"x_max":0,"o":"m 239 851 l 239 989 l 111 989 l 111 851 z m 589 851 l 589 989 l 461 989 l 461 851 z m 239 0 l 239 717 l 111 717 l 111 0 z m 374 -283 b 538 -232 449 -283 503 -266 b 589 -68 572 -198 589 -143 l 589 717 l 461 717 l 461 -86 b 442 -157 461 -120 455 -144 b 371 -176 429 -170 405 -176 l 339 -176 l 339 -283 z "},"Ĵ":{"ha":760,"x_min":0,"x_max":0,"o":"m 481 1079 l 578 1218 l 675 1079 l 808 1079 l 644 1294 l 511 1294 l 347 1079 z m 569 56 b 642 267 618 104 642 174 l 642 989 l 513 989 l 513 271 b 361 99 513 156 462 99 b 199 271 253 99 199 156 l 199 338 l 69 338 l 69 264 b 146 58 69 175 95 106 b 360 -17 197 8 268 -17 b 569 56 451 -17 521 7 z "},"ĵ":{"ha":350,"x_min":0,"x_max":0,"o":"m 81 807 l 178 946 l 275 807 l 408 807 l 244 1022 l 111 1022 l -53 807 z m 24 -283 b 188 -232 99 -283 153 -266 b 239 -68 222 -198 239 -143 l 239 717 l 111 717 l 111 -86 b 92 -157 111 -120 105 -144 b 21 -176 79 -170 55 -176 l -11 -176 l -11 -283 z "},"Ķ":{"ha":992,"x_min":0,"x_max":0,"o":"m 922 989 l 750 989 l 247 504 l 247 989 l 118 989 l 118 0 l 247 0 l 247 346 l 414 508 l 789 0 l 950 0 l 504 590 z m 513 -192 l 513 -236 b 460 -286 513 -269 495 -286 l 413 -286 l 413 -340 l 460 -340 b 567 -225 531 -340 567 -302 l 567 -92 l 413 -92 l 413 -199 z "},"ķ":{"ha":782,"x_min":0,"x_max":0,"o":"m 717 717 l 556 717 l 239 411 l 239 989 l 111 989 l 111 0 l 239 0 l 239 279 l 343 374 l 588 0 l 738 0 l 431 453 z m 403 -192 l 403 -236 b 350 -286 403 -269 385 -286 l 303 -286 l 303 -340 l 350 -340 b 457 -225 421 -340 457 -302 l 457 -92 l 303 -92 l 303 -199 z "},"ĸ":{"ha":782,"x_min":0,"x_max":0,"o":"m 738 0 l 429 429 l 717 717 l 556 717 l 239 389 l 239 717 l 111 717 l 111 0 l 239 0 l 239 251 l 342 349 l 588 0 z "},"Ĺ":{"ha":825,"x_min":0,"x_max":0,"o":"m 249 1294 l 126 1079 l 239 1079 l 424 1294 z m 247 989 l 118 989 l 118 0 l 763 0 l 763 113 l 247 113 z "},"ĺ":{"ha":350,"x_min":0,"x_max":0,"o":"m 199 1079 l 383 1294 l 208 1294 l 86 1079 z m 239 0 l 239 989 l 111 989 l 111 0 z "},"Ļ":{"ha":825,"x_min":0,"x_max":0,"o":"m 247 989 l 118 989 l 118 0 l 763 0 l 763 113 l 247 113 z m 472 -192 l 472 -236 b 419 -286 472 -269 455 -286 l 372 -286 l 372 -340 l 419 -340 b 526 -225 491 -340 526 -302 l 526 -92 l 372 -92 l 372 -199 z "},"ļ":{"ha":350,"x_min":0,"x_max":0,"o":"m 111 989 l 111 0 l 239 0 l 239 989 z m 99 -199 l 199 -192 l 199 -236 b 146 -286 199 -269 181 -286 l 99 -286 l 99 -340 l 146 -340 b 253 -225 217 -340 253 -302 l 253 -92 l 99 -92 z "},"Ľ":{"ha":825,"x_min":0,"x_max":0,"o":"m 247 989 l 118 989 l 118 0 l 763 0 l 763 113 l 247 113 z m 506 989 l 439 714 l 535 714 l 658 989 z "},"ľ":{"ha":576,"x_min":0,"x_max":0,"o":"m 239 0 l 239 989 l 111 989 l 111 0 z m 453 714 l 576 989 l 424 989 l 357 714 z "},"Ŀ":{"ha":825,"x_min":0,"x_max":0,"o":"m 247 989 l 118 989 l 118 0 l 763 0 l 763 113 l 247 113 z m 433 583 l 433 443 l 576 443 l 576 583 z "},"ŀ":{"ha":515,"x_min":0,"x_max":0,"o":"m 239 0 l 239 989 l 111 989 l 111 0 z m 481 422 l 481 563 l 338 563 l 338 422 z "},"Ł":{"ha":978,"x_min":0,"x_max":0,"o":"m 400 444 l 760 621 l 760 739 l 400 551 l 400 989 l 271 989 l 271 488 l 69 392 l 69 274 l 271 379 l 271 0 l 915 0 l 915 113 l 400 113 z "},"ł":{"ha":528,"x_min":0,"x_max":0,"o":"m 328 615 l 328 989 l 200 989 l 200 546 l 69 485 l 69 358 l 200 433 l 200 0 l 328 0 l 328 503 l 458 564 l 458 690 z "},"Ń":{"ha":1022,"x_min":0,"x_max":0,"o":"m 544 1294 l 422 1079 l 535 1079 l 719 1294 z m 782 182 l 261 989 l 118 989 l 118 0 l 240 0 l 240 803 l 757 0 l 904 0 l 904 989 l 782 989 z "},"ń":{"ha":825,"x_min":0,"x_max":0,"o":"m 454 1022 l 332 807 l 444 807 l 629 1022 z m 471 735 b 231 615 363 735 282 695 l 231 717 l 111 717 l 111 0 l 239 0 l 239 399 b 296 567 239 474 258 530 b 443 624 334 605 383 624 b 586 472 538 624 586 573 l 586 0 l 714 0 l 714 497 b 649 672 714 572 692 631 b 471 735 606 714 547 735 z "},"Ņ":{"ha":1022,"x_min":0,"x_max":0,"o":"m 782 182 l 261 989 l 118 989 l 118 0 l 240 0 l 240 803 l 757 0 l 904 0 l 904 989 l 782 989 z m 543 -192 l 543 -236 b 490 -286 543 -269 525 -286 l 443 -286 l 443 -340 l 490 -340 b 597 -225 562 -340 597 -302 l 597 -92 l 443 -92 l 443 -199 z "},"ņ":{"ha":825,"x_min":0,"x_max":0,"o":"m 471 735 b 231 615 363 735 282 695 l 231 717 l 111 717 l 111 0 l 239 0 l 239 399 b 296 567 239 474 258 530 b 443 624 334 605 383 624 b 586 472 538 624 586 573 l 586 0 l 714 0 l 714 497 b 649 672 714 572 692 631 b 471 735 606 714 547 735 z m 425 -192 l 425 -236 b 372 -286 425 -269 407 -286 l 325 -286 l 325 -340 l 372 -340 b 479 -225 444 -340 479 -302 l 479 -92 l 325 -92 l 325 -199 z "},"Ň":{"ha":1022,"x_min":0,"x_max":0,"o":"m 742 1313 l 608 1313 l 511 1174 l 414 1313 l 281 1313 l 444 1097 l 578 1097 z m 782 182 l 261 989 l 118 989 l 118 0 l 240 0 l 240 803 l 757 0 l 904 0 l 904 989 l 782 989 z "},"ň":{"ha":825,"x_min":0,"x_max":0,"o":"m 651 1022 l 518 1022 l 421 883 l 324 1022 l 190 1022 l 354 807 l 488 807 z m 471 735 b 231 615 363 735 282 695 l 231 717 l 111 717 l 111 0 l 239 0 l 239 399 b 296 567 239 474 258 530 b 443 624 334 605 383 624 b 586 472 538 624 586 573 l 586 0 l 714 0 l 714 497 b 649 672 714 572 692 631 b 471 735 606 714 547 735 z "},"ŉ":{"ha":1096,"x_min":0,"x_max":0,"o":"m 136 857 l 136 786 b 71 721 136 743 114 721 l 57 721 l 57 651 l 71 651 b 208 801 163 651 208 701 l 208 989 l 56 989 l 56 850 z m 742 735 b 501 615 633 735 553 695 l 501 717 l 382 717 l 382 0 l 510 0 l 510 399 b 567 567 510 474 529 530 b 714 624 605 605 654 624 b 857 472 809 624 857 573 l 857 0 l 985 0 l 985 497 b 920 672 985 572 963 631 b 742 735 877 714 818 735 z "},"Ŋ":{"ha":1022,"x_min":0,"x_max":0,"o":"m 782 211 l 261 989 l 118 989 l 118 0 l 240 0 l 240 808 l 782 1 l 782 -86 b 763 -157 782 -120 775 -144 b 692 -176 750 -170 726 -176 l 646 -176 l 646 -283 l 694 -283 b 855 -233 769 -283 822 -266 b 904 -68 888 -199 904 -144 l 904 989 l 782 989 z "},"ŋ":{"ha":825,"x_min":0,"x_max":0,"o":"m 471 735 b 231 615 363 735 282 695 l 231 717 l 111 717 l 111 0 l 239 0 l 239 399 b 296 567 239 474 258 530 b 443 624 334 605 383 624 b 586 472 538 624 586 573 l 586 -86 b 567 -157 586 -120 580 -144 b 496 -176 554 -170 530 -176 l 464 -176 l 464 -283 l 499 -283 b 663 -232 574 -283 628 -266 b 714 -68 697 -198 714 -143 l 714 497 b 649 672 714 572 692 631 b 471 735 606 714 547 735 z "},"Ō":{"ha":1113,"x_min":0,"x_max":0,"o":"m 778 1122 l 778 1221 l 333 1221 l 333 1122 z m 556 -24 b 894 121 694 -24 806 25 b 1024 494 981 216 1024 341 b 894 864 1024 644 981 768 b 556 1007 807 959 694 1007 b 219 864 418 1007 306 959 b 89 494 132 769 89 645 b 219 122 89 342 132 218 b 556 -24 306 25 418 -24 z m 314 201 b 221 494 252 275 221 372 b 314 783 221 616 252 712 b 557 892 377 856 458 892 b 799 783 656 892 737 856 b 892 494 861 712 892 616 b 800 201 892 371 861 274 b 557 92 738 128 657 92 b 314 201 457 92 376 128 z "},"ō":{"ha":829,"x_min":0,"x_max":0,"o":"m 640 850 l 640 949 l 196 949 l 196 850 z m 414 -18 b 663 89 514 -18 597 18 b 760 364 727 159 760 251 b 665 635 760 476 728 566 b 418 735 601 701 519 735 b 167 632 314 735 231 700 b 69 358 102 564 69 473 b 165 86 69 246 101 156 b 414 -18 227 17 310 -18 z m 414 89 b 256 163 347 89 294 113 b 197 358 217 212 197 277 b 255 556 197 442 216 507 b 414 628 293 604 346 628 b 574 557 482 628 536 604 b 632 364 613 510 632 445 b 574 164 632 281 613 214 b 414 89 535 114 481 89 z "},"Ŏ":{"ha":1113,"x_min":0,"x_max":0,"o":"m 554 1082 b 778 1272 696 1082 770 1145 l 693 1272 b 556 1165 690 1201 644 1165 b 418 1272 467 1165 421 1201 l 333 1272 b 554 1082 341 1145 414 1082 z m 556 -24 b 894 121 694 -24 806 25 b 1024 494 981 216 1024 341 b 894 864 1024 644 981 768 b 556 1007 807 959 694 1007 b 219 864 418 1007 306 959 b 89 494 132 769 89 645 b 219 122 89 342 132 218 b 556 -24 306 25 418 -24 z m 314 201 b 221 494 252 275 221 372 b 314 783 221 616 252 712 b 557 892 377 856 458 892 b 799 783 656 892 737 856 b 892 494 861 712 892 616 b 800 201 892 371 861 274 b 557 92 738 128 657 92 b 314 201 457 92 376 128 z "},"ŏ":{"ha":829,"x_min":0,"x_max":0,"o":"m 417 810 b 640 1000 558 810 633 873 l 556 1000 b 418 893 553 929 507 893 b 281 1000 329 893 283 929 l 196 1000 b 417 810 203 873 277 810 z m 414 -18 b 663 89 514 -18 597 18 b 760 364 727 159 760 251 b 665 635 760 476 728 566 b 418 735 601 701 519 735 b 167 632 314 735 231 700 b 69 358 102 564 69 473 b 165 86 69 246 101 156 b 414 -18 227 17 310 -18 z m 414 89 b 256 163 347 89 294 113 b 197 358 217 212 197 277 b 255 556 197 442 216 507 b 414 628 293 604 346 628 b 574 557 482 628 536 604 b 632 364 613 510 632 445 b 574 164 632 281 613 214 b 414 89 535 114 481 89 z "},"Ő":{"ha":1113,"x_min":0,"x_max":0,"o":"m 451 1079 l 618 1303 l 468 1303 l 342 1079 z m 711 1079 l 878 1303 l 728 1303 l 601 1079 z m 556 -24 b 894 121 694 -24 806 25 b 1024 494 981 216 1024 341 b 894 864 1024 644 981 768 b 556 1007 807 959 694 1007 b 219 864 418 1007 306 959 b 89 494 132 769 89 645 b 219 122 89 342 132 218 b 556 -24 306 25 418 -24 z m 314 201 b 221 494 252 275 221 372 b 314 783 221 616 252 712 b 557 892 377 856 458 892 b 799 783 656 892 737 856 b 892 494 861 712 892 616 b 800 201 892 371 861 274 b 557 92 738 128 657 92 b 314 201 457 92 376 128 z "},"ő":{"ha":829,"x_min":0,"x_max":0,"o":"m 314 807 l 481 1031 l 331 1031 l 204 807 z m 574 807 l 740 1031 l 590 1031 l 464 807 z m 414 -18 b 663 89 514 -18 597 18 b 760 364 727 159 760 251 b 665 635 760 476 728 566 b 418 735 601 701 519 735 b 167 632 314 735 231 700 b 69 358 102 564 69 473 b 165 86 69 246 101 156 b 414 -18 227 17 310 -18 z m 414 89 b 256 163 347 89 294 113 b 197 358 217 212 197 277 b 255 556 197 442 216 507 b 414 628 293 604 346 628 b 574 557 482 628 536 604 b 632 364 613 510 632 445 b 574 164 632 281 613 214 b 414 89 535 114 481 89 z "},"Œ":{"ha":1694,"x_min":0,"x_max":0,"o":"m 1021 453 l 1547 453 l 1547 565 l 1021 565 l 1021 876 l 1592 876 l 1592 989 l 892 989 l 892 840 b 557 1007 818 951 706 1007 b 219 864 418 1007 306 959 b 89 494 132 769 89 645 b 218 122 89 343 132 219 b 556 -24 304 25 417 -24 b 892 151 705 -24 817 35 l 892 0 l 1604 0 l 1604 113 l 1021 113 z m 558 92 b 314 201 456 92 375 128 b 221 494 252 275 221 372 b 314 785 221 617 252 713 b 557 892 375 856 456 892 b 799 788 656 892 737 857 b 892 494 861 717 892 619 b 800 197 892 367 861 268 b 558 92 738 127 657 92 z "},"œ":{"ha":1367,"x_min":0,"x_max":0,"o":"m 1297 375 b 1209 638 1297 486 1268 574 b 969 733 1150 701 1070 733 b 694 596 845 733 754 688 b 418 735 632 688 540 735 b 167 632 314 735 231 700 b 69 358 102 564 69 473 b 165 86 69 246 101 156 b 414 -18 227 17 310 -18 b 693 128 534 -18 627 31 b 972 -17 754 31 847 -17 b 1174 44 1051 -17 1118 4 b 1292 217 1230 85 1269 143 l 1175 231 b 976 88 1142 135 1075 88 b 819 149 910 88 857 108 b 760 328 781 191 762 250 l 1297 328 z m 1113 575 b 1178 419 1148 538 1169 486 l 761 419 b 828 576 769 488 791 540 b 971 629 866 612 913 629 b 1113 575 1029 629 1076 611 z m 414 89 b 256 163 347 89 294 113 b 197 358 217 212 197 277 b 255 556 197 442 216 507 b 414 628 293 604 346 628 b 574 557 482 628 536 604 b 632 364 613 510 632 445 b 574 164 632 281 613 214 b 414 89 535 114 481 89 z "},"Ŕ":{"ha":994,"x_min":0,"x_max":0,"o":"m 524 1294 l 401 1079 l 514 1079 l 699 1294 z m 854 315 b 703 481 845 407 794 462 b 831 568 756 495 799 525 b 879 728 863 612 879 665 b 798 919 879 808 852 872 b 576 989 744 966 670 989 l 118 989 l 118 0 l 247 0 l 247 426 l 553 426 b 680 389 610 426 653 414 b 731 264 707 364 724 322 l 760 0 l 890 0 z m 247 539 l 247 876 l 554 876 b 697 835 616 876 664 863 b 747 715 731 807 747 767 b 690 585 747 660 728 616 b 532 539 652 554 600 539 z "},"ŕ":{"ha":511,"x_min":0,"x_max":0,"o":"m 342 1022 l 219 807 l 332 807 l 517 1022 z m 231 717 l 111 717 l 111 0 l 239 0 l 239 392 b 306 553 242 460 264 514 b 444 611 346 592 393 611 b 490 610 469 611 484 611 l 490 735 b 464 736 487 736 478 736 b 231 572 358 736 281 681 z "},"Ŗ":{"ha":994,"x_min":0,"x_max":0,"o":"m 854 315 b 703 481 845 407 794 462 b 831 568 756 495 799 525 b 879 728 863 612 879 665 b 798 919 879 808 852 872 b 576 989 744 966 670 989 l 118 989 l 118 0 l 247 0 l 247 426 l 553 426 b 680 389 610 426 653 414 b 731 264 707 364 724 322 l 760 0 l 890 0 z m 247 539 l 247 876 l 554 876 b 697 835 616 876 664 863 b 747 715 731 807 747 767 b 690 585 747 660 728 616 b 532 539 652 554 600 539 z m 528 -192 l 528 -236 b 475 -286 528 -269 510 -286 l 428 -286 l 428 -340 l 475 -340 b 582 -225 546 -340 582 -302 l 582 -92 l 428 -92 l 428 -199 z "},"ŗ":{"ha":511,"x_min":0,"x_max":0,"o":"m 464 736 b 231 572 358 736 281 681 l 231 717 l 111 717 l 111 0 l 239 0 l 239 392 b 306 553 242 460 264 514 b 444 611 346 592 393 611 b 490 610 469 611 484 611 l 490 735 b 464 736 487 736 478 736 z m 199 -192 l 199 -236 b 146 -286 199 -269 181 -286 l 99 -286 l 99 -340 l 146 -340 b 253 -225 217 -340 253 -302 l 253 -92 l 99 -92 l 99 -199 z "},"Ř":{"ha":994,"x_min":0,"x_max":0,"o":"m 721 1313 l 588 1313 l 490 1174 l 393 1313 l 260 1313 l 424 1097 l 557 1097 z m 854 315 b 703 481 845 407 794 462 b 831 568 756 495 799 525 b 879 728 863 612 879 665 b 798 919 879 808 852 872 b 576 989 744 966 670 989 l 118 989 l 118 0 l 247 0 l 247 426 l 553 426 b 680 389 610 426 653 414 b 731 264 707 364 724 322 l 760 0 l 890 0 z m 247 539 l 247 876 l 554 876 b 697 835 616 876 664 863 b 747 715 731 807 747 767 b 690 585 747 660 728 616 b 532 539 652 554 600 539 z "},"ř":{"ha":511,"x_min":0,"x_max":0,"o":"m 539 1022 l 406 1022 l 308 883 l 211 1022 l 78 1022 l 242 807 l 375 807 z m 231 717 l 111 717 l 111 0 l 239 0 l 239 392 b 306 553 242 460 264 514 b 444 611 346 592 393 611 b 490 610 469 611 484 611 l 490 735 b 464 736 487 736 478 736 b 231 572 358 736 281 681 z "},"Ś":{"ha":928,"x_min":0,"x_max":0,"o":"m 481 1079 l 665 1294 l 490 1294 l 368 1079 z m 475 -21 b 759 59 599 -21 694 6 b 857 274 824 112 857 184 b 574 554 857 421 763 514 l 400 592 b 268 647 339 605 295 623 b 228 742 241 670 228 702 b 287 863 228 794 247 834 b 453 906 326 891 381 906 b 631 856 529 906 588 889 b 703 713 673 823 697 775 l 826 713 b 719 933 819 808 783 881 b 457 1011 654 985 567 1011 b 198 935 346 1011 259 986 b 106 731 136 885 106 817 b 175 562 106 658 129 602 b 383 472 221 522 291 492 l 522 443 b 684 378 598 427 652 406 b 732 267 716 351 732 314 b 667 132 732 208 710 163 b 479 85 624 100 562 85 b 194 321 302 85 207 163 l 71 321 b 475 -21 88 93 222 -21 z "},"ś":{"ha":701,"x_min":0,"x_max":0,"o":"m 365 807 l 550 1022 l 375 1022 l 253 807 z m 354 -18 b 574 42 448 -18 521 2 b 653 208 626 83 653 138 b 602 337 653 261 636 304 b 443 411 568 370 515 394 l 304 442 b 219 477 264 450 236 462 b 193 538 202 492 193 513 b 338 632 193 600 241 632 b 507 508 437 632 493 591 l 633 508 b 544 676 624 582 594 638 b 342 733 493 714 426 733 b 144 678 256 733 191 715 b 75 526 98 642 75 591 b 274 332 75 425 141 360 l 418 301 b 531 197 493 286 531 251 b 487 114 531 161 516 133 b 360 85 458 94 415 85 b 232 119 304 85 262 96 b 178 226 202 141 184 177 l 56 226 b 354 -18 72 63 172 -18 z "},"Ŝ":{"ha":928,"x_min":0,"x_max":0,"o":"m 360 1079 l 457 1218 l 554 1079 l 688 1079 l 524 1294 l 390 1294 l 226 1079 z m 475 -21 b 759 59 599 -21 694 6 b 857 274 824 112 857 184 b 574 554 857 421 763 514 l 400 592 b 268 647 339 605 295 623 b 228 742 241 670 228 702 b 287 863 228 794 247 834 b 453 906 326 891 381 906 b 631 856 529 906 588 889 b 703 713 673 823 697 775 l 826 713 b 719 933 819 808 783 881 b 457 1011 654 985 567 1011 b 198 935 346 1011 259 986 b 106 731 136 885 106 817 b 175 562 106 658 129 602 b 383 472 221 522 291 492 l 522 443 b 684 378 598 427 652 406 b 732 267 716 351 732 314 b 667 132 732 208 710 163 b 479 85 624 100 562 85 b 194 321 302 85 207 163 l 71 321 b 475 -21 88 93 222 -21 z "},"ŝ":{"ha":701,"x_min":0,"x_max":0,"o":"m 244 807 l 342 946 l 439 807 l 572 807 l 408 1022 l 275 1022 l 111 807 z m 354 -18 b 574 42 448 -18 521 2 b 653 208 626 83 653 138 b 602 337 653 261 636 304 b 443 411 568 370 515 394 l 304 442 b 219 477 264 450 236 462 b 193 538 202 492 193 513 b 338 632 193 600 241 632 b 507 508 437 632 493 591 l 633 508 b 544 676 624 582 594 638 b 342 733 493 714 426 733 b 144 678 256 733 191 715 b 75 526 98 642 75 591 b 274 332 75 425 141 360 l 418 301 b 531 197 493 286 531 251 b 487 114 531 161 516 133 b 360 85 458 94 415 85 b 232 119 304 85 262 96 b 178 226 202 141 184 177 l 56 226 b 354 -18 72 63 172 -18 z "},"Ş":{"ha":928,"x_min":0,"x_max":0,"o":"m 857 274 b 574 554 857 421 763 514 l 400 592 b 268 647 339 605 295 623 b 228 742 241 670 228 702 b 287 863 228 794 247 834 b 453 906 326 891 381 906 b 631 856 529 906 588 889 b 703 713 673 823 697 775 l 826 713 b 719 933 819 808 783 881 b 457 1011 654 985 567 1011 b 198 935 346 1011 259 986 b 106 731 136 885 106 817 b 175 562 106 658 129 602 b 383 472 221 522 291 492 l 522 443 b 684 378 598 427 652 406 b 732 267 716 351 732 314 b 667 132 732 208 710 163 b 479 85 624 100 562 85 b 194 321 302 85 207 163 l 71 321 b 433 -19 87 105 207 -8 l 375 -112 l 413 -178 l 471 -178 b 529 -221 510 -178 529 -192 b 429 -276 529 -258 496 -276 l 394 -276 l 394 -351 l 439 -351 b 578 -315 498 -351 544 -339 b 628 -217 611 -291 628 -258 b 592 -127 628 -178 616 -148 b 490 -96 568 -106 534 -96 l 461 -96 l 510 -19 b 769 68 624 -14 710 15 b 857 274 828 121 857 189 z "},"ş":{"ha":701,"x_min":0,"x_max":0,"o":"m 653 208 b 602 337 653 261 636 304 b 443 411 568 370 515 394 l 304 442 b 219 477 264 450 236 462 b 193 538 202 492 193 513 b 338 632 193 600 241 632 b 507 508 437 632 493 591 l 633 508 b 544 676 624 582 594 638 b 342 733 493 714 426 733 b 144 678 256 733 191 715 b 75 526 98 642 75 591 b 274 332 75 425 141 360 l 418 301 b 531 197 493 286 531 251 b 487 114 531 161 516 133 b 360 85 458 94 415 85 b 232 119 304 85 262 96 b 178 226 202 141 184 177 l 56 226 b 315 -17 70 75 157 -6 l 256 -111 l 293 -176 l 351 -176 b 410 -219 390 -176 410 -191 b 310 -275 410 -256 376 -275 l 275 -275 l 275 -350 l 319 -350 b 458 -314 379 -350 425 -338 b 508 -215 492 -290 508 -257 b 472 -126 508 -176 496 -147 b 371 -94 448 -105 414 -94 l 342 -94 l 392 -17 b 584 51 474 -11 538 11 b 653 208 630 90 653 143 z "},"Š":{"ha":928,"x_min":0,"x_max":0,"o":"m 524 1097 l 688 1313 l 554 1313 l 457 1174 l 360 1313 l 226 1313 l 390 1097 z m 475 -21 b 759 59 599 -21 694 6 b 857 274 824 112 857 184 b 574 554 857 421 763 514 l 400 592 b 268 647 339 605 295 623 b 228 742 241 670 228 702 b 287 863 228 794 247 834 b 453 906 326 891 381 906 b 631 856 529 906 588 889 b 703 713 673 823 697 775 l 826 713 b 719 933 819 808 783 881 b 457 1011 654 985 567 1011 b 198 935 346 1011 259 986 b 106 731 136 885 106 817 b 175 562 106 658 129 602 b 383 472 221 522 291 492 l 522 443 b 684 378 598 427 652 406 b 732 267 716 351 732 314 b 667 132 732 208 710 163 b 479 85 624 100 562 85 b 194 321 302 85 207 163 l 71 321 b 475 -21 88 93 222 -21 z "},"š":{"ha":701,"x_min":0,"x_max":0,"o":"m 408 807 l 572 1022 l 439 1022 l 342 883 l 244 1022 l 111 1022 l 275 807 z m 354 -18 b 574 42 448 -18 521 2 b 653 208 626 83 653 138 b 602 337 653 261 636 304 b 443 411 568 370 515 394 l 304 442 b 219 477 264 450 236 462 b 193 538 202 492 193 513 b 338 632 193 600 241 632 b 507 508 437 632 493 591 l 633 508 b 544 676 624 582 594 638 b 342 733 493 714 426 733 b 144 678 256 733 191 715 b 75 526 98 642 75 591 b 274 332 75 425 141 360 l 418 301 b 531 197 493 286 531 251 b 487 114 531 161 516 133 b 360 85 458 94 415 85 b 232 119 304 85 262 96 b 178 226 202 141 184 177 l 56 226 b 354 -18 72 63 172 -18 z "},"Ţ":{"ha":888,"x_min":0,"x_max":0,"o":"m 508 876 l 839 876 l 839 989 l 49 989 l 49 876 l 379 876 l 379 0 l 410 0 l 344 -103 l 382 -168 l 440 -168 b 499 -211 479 -168 499 -182 b 399 -267 499 -248 465 -267 l 364 -267 l 364 -342 l 408 -342 b 547 -306 468 -342 514 -330 b 597 -207 581 -281 597 -249 b 561 -117 597 -168 585 -138 b 460 -86 537 -97 503 -86 l 431 -86 l 486 0 l 508 0 z "},"ţ":{"ha":496,"x_min":0,"x_max":0,"o":"m 454 618 l 454 717 l 290 711 l 290 936 l 163 936 l 163 713 l 56 717 l 56 618 l 163 624 l 163 160 b 243 13 163 79 189 30 l 178 -90 l 215 -156 l 274 -156 b 332 -199 313 -156 332 -170 b 232 -254 332 -236 299 -254 l 197 -254 l 197 -329 l 242 -329 b 381 -293 301 -329 347 -317 b 431 -194 414 -269 431 -236 b 394 -105 431 -156 419 -126 b 293 -74 370 -84 337 -74 l 264 -74 l 311 0 l 322 0 l 453 0 l 453 107 l 360 107 b 305 122 333 107 315 112 b 290 176 295 131 290 150 l 290 624 z "},"Ť":{"ha":888,"x_min":0,"x_max":0,"o":"m 675 1313 l 542 1313 l 444 1174 l 347 1313 l 214 1313 l 378 1097 l 511 1097 z m 49 989 l 49 876 l 379 876 l 379 0 l 508 0 l 508 876 l 839 876 l 839 989 z "},"ť":{"ha":496,"x_min":0,"x_max":0,"o":"m 369 796 l 465 796 l 589 1071 l 436 1071 z m 290 936 l 163 936 l 163 713 l 56 717 l 56 618 l 163 624 l 163 160 b 201 38 163 104 175 64 b 322 0 226 13 267 0 l 453 0 l 453 107 l 360 107 b 305 122 333 107 315 112 b 290 176 295 131 290 150 l 290 624 l 454 618 l 454 717 l 290 711 z "},"Ŧ":{"ha":888,"x_min":0,"x_max":0,"o":"m 839 989 l 49 989 l 49 876 l 379 876 l 379 556 l 76 561 l 76 449 l 379 454 l 379 0 l 508 0 l 508 454 l 813 449 l 813 561 l 508 556 l 508 876 l 839 876 z "},"ŧ":{"ha":482,"x_min":0,"x_max":0,"o":"m 440 717 l 274 711 l 276 754 l 276 936 l 149 936 l 149 754 l 151 713 l 42 717 l 42 618 l 153 624 l 153 424 l 42 428 l 42 329 l 151 335 l 149 274 l 149 160 b 187 38 149 104 161 64 b 308 0 212 13 253 0 l 439 0 l 439 107 l 346 107 b 291 122 319 107 301 112 b 276 176 281 131 276 150 l 276 274 l 274 335 l 440 329 l 440 428 l 272 422 l 272 624 l 440 618 z "},"Ũ":{"ha":1000,"x_min":0,"x_max":0,"o":"m 331 1100 b 347 1189 332 1142 338 1171 b 393 1215 356 1206 372 1215 b 482 1158 422 1215 451 1196 b 608 1100 512 1119 554 1100 b 724 1153 657 1100 696 1118 b 767 1313 753 1189 767 1242 l 669 1313 b 653 1224 668 1271 662 1241 b 607 1197 644 1206 628 1197 b 519 1256 578 1197 549 1217 b 392 1313 489 1294 446 1313 b 276 1259 343 1313 304 1295 b 233 1100 247 1223 233 1170 z m 782 65 b 882 313 849 123 882 205 l 882 989 l 753 989 l 753 308 b 689 149 753 239 731 186 b 500 93 646 112 583 93 b 311 149 417 93 354 112 b 247 308 269 186 247 239 l 247 989 l 118 989 l 118 313 b 219 65 118 204 152 122 b 500 -22 286 7 380 -22 b 782 65 620 -22 714 7 z "},"ũ":{"ha":825,"x_min":0,"x_max":0,"o":"m 306 943 b 394 886 334 943 364 924 b 521 828 424 847 466 828 b 637 881 570 828 609 846 b 679 1040 665 917 679 970 l 582 1040 b 565 951 580 999 575 969 b 519 925 556 934 541 925 b 432 983 491 925 462 944 b 304 1040 401 1021 359 1040 b 188 987 255 1040 216 1022 b 146 828 160 951 146 898 l 243 828 b 260 917 245 869 250 899 b 306 943 269 934 284 943 z m 586 318 b 529 149 586 243 567 187 b 382 93 491 112 442 93 b 239 244 287 93 239 144 l 239 717 l 111 717 l 111 219 b 176 44 111 144 133 86 b 354 -18 219 3 278 -18 b 594 101 463 -18 543 22 l 594 0 l 714 0 l 714 717 l 586 717 z "},"Ū":{"ha":1000,"x_min":0,"x_max":0,"o":"m 722 1122 l 722 1221 l 278 1221 l 278 1122 z m 782 65 b 882 313 849 123 882 205 l 882 989 l 753 989 l 753 308 b 689 149 753 239 731 186 b 500 93 646 112 583 93 b 311 149 417 93 354 112 b 247 308 269 186 247 239 l 247 989 l 118 989 l 118 313 b 219 65 118 204 152 122 b 500 -22 286 7 380 -22 b 782 65 620 -22 714 7 z "},"ū":{"ha":825,"x_min":0,"x_max":0,"o":"m 190 949 l 190 850 l 635 850 l 635 949 z m 586 318 b 529 149 586 243 567 187 b 382 93 491 112 442 93 b 239 244 287 93 239 144 l 239 717 l 111 717 l 111 219 b 176 44 111 144 133 86 b 354 -18 219 3 278 -18 b 594 101 463 -18 543 22 l 594 0 l 714 0 l 714 717 l 586 717 z "},"Ŭ":{"ha":1000,"x_min":0,"x_max":0,"o":"m 499 1082 b 722 1272 640 1082 715 1145 l 638 1272 b 500 1165 635 1201 589 1165 b 363 1272 411 1165 365 1201 l 278 1272 b 499 1082 285 1145 359 1082 z m 782 65 b 882 313 849 123 882 205 l 882 989 l 753 989 l 753 308 b 689 149 753 239 731 186 b 500 93 646 112 583 93 b 311 149 417 93 354 112 b 247 308 269 186 247 239 l 247 989 l 118 989 l 118 313 b 219 65 118 204 152 122 b 500 -22 286 7 380 -22 b 782 65 620 -22 714 7 z "},"ŭ":{"ha":825,"x_min":0,"x_max":0,"o":"m 411 810 b 635 1000 553 810 627 873 l 550 1000 b 413 893 547 929 501 893 b 275 1000 324 893 278 929 l 190 1000 b 411 810 198 873 271 810 z m 586 318 b 529 149 586 243 567 187 b 382 93 491 112 442 93 b 239 244 287 93 239 144 l 239 717 l 111 717 l 111 219 b 176 44 111 144 133 86 b 354 -18 219 3 278 -18 b 594 101 463 -18 543 22 l 594 0 l 714 0 l 714 717 l 586 717 z "},"Ů":{"ha":1000,"x_min":0,"x_max":0,"o":"m 638 1140 b 692 1276 674 1176 692 1222 b 638 1414 692 1331 674 1377 b 500 1468 601 1450 556 1468 b 363 1414 444 1468 399 1450 b 308 1276 326 1377 308 1331 b 363 1140 308 1222 326 1176 b 500 1086 399 1104 444 1086 b 638 1140 556 1086 601 1104 z m 426 1201 b 397 1276 407 1219 397 1244 b 426 1353 397 1309 407 1334 b 500 1382 445 1372 469 1382 b 574 1353 531 1382 555 1372 b 603 1276 593 1334 603 1309 b 575 1201 603 1245 594 1220 b 500 1172 556 1182 531 1172 b 426 1201 469 1172 445 1182 z m 782 65 b 882 313 849 123 882 205 l 882 989 l 753 989 l 753 308 b 689 149 753 239 731 186 b 500 93 646 112 583 93 b 311 149 417 93 354 112 b 247 308 269 186 247 239 l 247 989 l 118 989 l 118 313 b 219 65 118 204 152 122 b 500 -22 286 7 380 -22 b 782 65 620 -22 714 7 z "},"ů":{"ha":825,"x_min":0,"x_max":0,"o":"m 550 868 b 604 1004 586 904 604 950 b 550 1142 604 1059 586 1105 b 413 1196 514 1178 468 1196 b 275 1142 357 1196 311 1178 b 221 1004 239 1105 221 1059 b 275 868 221 950 239 904 b 413 814 311 832 357 814 b 550 868 468 814 514 832 z m 488 1082 b 515 1004 506 1062 515 1036 b 487 928 515 973 506 947 b 413 900 468 909 443 900 b 338 928 382 900 357 909 b 310 1004 319 947 310 973 b 339 1082 310 1037 319 1063 b 413 1110 357 1100 382 1110 b 488 1082 443 1110 468 1100 z m 586 318 b 529 149 586 243 567 187 b 382 93 491 112 442 93 b 239 244 287 93 239 144 l 239 717 l 111 717 l 111 219 b 176 44 111 144 133 86 b 354 -18 219 3 278 -18 b 594 101 463 -18 543 22 l 594 0 l 714 0 l 714 717 l 586 717 z "},"Ű":{"ha":1000,"x_min":0,"x_max":0,"o":"m 396 1079 l 563 1303 l 413 1303 l 286 1079 z m 656 1079 l 822 1303 l 672 1303 l 546 1079 z m 782 65 b 882 313 849 123 882 205 l 882 989 l 753 989 l 753 308 b 689 149 753 239 731 186 b 500 93 646 112 583 93 b 311 149 417 93 354 112 b 247 308 269 186 247 239 l 247 989 l 118 989 l 118 313 b 219 65 118 204 152 122 b 500 -22 286 7 380 -22 b 782 65 620 -22 714 7 z "},"ű":{"ha":825,"x_min":0,"x_max":0,"o":"m 325 1031 l 199 807 l 308 807 l 475 1031 z m 735 1031 l 585 1031 l 458 807 l 568 807 z m 586 318 b 529 149 586 243 567 187 b 382 93 491 112 442 93 b 239 244 287 93 239 144 l 239 717 l 111 717 l 111 219 b 176 44 111 144 133 86 b 354 -18 219 3 278 -18 b 594 101 463 -18 543 22 l 594 0 l 714 0 l 714 717 l 586 717 z "},"Ų":{"ha":1000,"x_min":0,"x_max":0,"o":"m 753 308 b 689 149 753 239 731 186 b 500 93 646 112 583 93 b 311 149 417 93 354 112 b 247 308 269 186 247 239 l 247 989 l 118 989 l 118 313 b 210 72 118 210 149 129 b 471 -22 272 14 359 -18 l 467 -24 b 363 -161 397 -62 363 -107 b 531 -283 363 -243 419 -283 l 607 -283 l 607 -193 l 563 -193 b 479 -137 507 -193 479 -175 b 533 -65 479 -112 497 -88 l 613 -12 b 813 96 700 4 766 40 b 882 313 859 151 882 224 l 882 989 l 753 989 z "},"ų":{"ha":825,"x_min":0,"x_max":0,"o":"m 714 0 l 714 717 l 586 717 l 586 332 b 529 163 586 257 567 201 b 382 107 491 126 442 107 b 274 146 333 107 297 120 b 239 258 250 169 239 206 l 239 717 l 111 717 l 111 249 b 174 61 111 164 132 102 b 357 -4 220 18 281 -4 b 599 124 469 -4 550 38 l 618 14 l 556 -19 b 451 -157 486 -56 451 -102 b 619 -279 451 -238 507 -279 l 696 -279 l 696 -189 l 651 -189 b 568 -133 596 -189 568 -170 b 622 -61 568 -108 586 -84 z "},"Ŵ":{"ha":1326,"x_min":0,"x_max":0,"o":"m 761 1079 l 894 1079 l 731 1294 l 597 1294 l 433 1079 l 567 1079 l 664 1218 z m 996 399 l 943 175 l 890 399 l 731 989 l 585 989 l 424 399 l 369 176 l 321 399 l 174 989 l 42 989 l 306 0 l 429 0 l 657 856 l 886 0 l 1010 0 l 1285 989 l 1153 989 z "},"ŵ":{"ha":1072,"x_min":0,"x_max":0,"o":"m 633 807 l 767 807 l 603 1022 l 469 1022 l 306 807 l 439 807 l 536 946 z m 788 303 l 746 132 l 711 303 l 608 717 l 469 717 l 367 303 l 329 132 l 286 303 l 174 717 l 35 717 l 261 0 l 392 0 l 500 428 l 539 608 l 575 428 l 676 0 l 804 0 l 1038 717 l 906 717 z "},"Ŷ":{"ha":950,"x_min":0,"x_max":0,"o":"m 572 1079 l 706 1079 l 542 1294 l 408 1294 l 244 1079 l 378 1079 l 475 1218 z m 525 583 l 482 510 l 439 583 l 185 989 l 29 989 l 417 406 l 417 0 l 546 0 l 546 406 l 921 989 l 774 989 z "},"ŷ":{"ha":749,"x_min":0,"x_max":0,"o":"m 472 807 l 606 807 l 442 1022 l 308 1022 l 144 807 l 278 807 l 375 946 z m 375 136 l 360 222 l 174 717 l 35 717 l 324 7 l 290 -81 b 244 -157 275 -119 260 -144 b 171 -176 228 -170 203 -176 l 104 -176 l 104 -283 l 183 -283 b 305 -252 235 -283 276 -273 b 381 -140 334 -231 359 -194 l 714 717 l 582 717 z "},"Ÿ":{"ha":950,"x_min":0,"x_max":0,"o":"m 263 1249 l 263 1111 l 390 1111 l 390 1249 z m 560 1249 l 560 1111 l 688 1111 l 688 1249 z m 525 583 l 482 510 l 439 583 l 185 989 l 29 989 l 417 406 l 417 0 l 546 0 l 546 406 l 921 989 l 774 989 z "},"Ź":{"ha":938,"x_min":0,"x_max":0,"o":"m 503 1294 l 381 1079 l 493 1079 l 678 1294 z m 833 886 l 833 989 l 119 989 l 119 874 l 668 874 l 82 125 l 82 0 l 854 0 l 854 115 l 232 115 z "},"ź":{"ha":738,"x_min":0,"x_max":0,"o":"m 403 1022 l 281 807 l 393 807 l 578 1022 z m 644 639 l 644 717 l 88 717 l 88 614 l 485 614 l 69 90 l 69 0 l 668 0 l 668 103 l 219 103 z "},"Ż":{"ha":938,"x_min":0,"x_max":0,"o":"m 406 1249 l 406 1111 l 533 1111 l 533 1249 z m 833 886 l 833 989 l 119 989 l 119 874 l 668 874 l 82 125 l 82 0 l 854 0 l 854 115 l 232 115 z "},"ż":{"ha":738,"x_min":0,"x_max":0,"o":"m 306 989 l 306 851 l 433 851 l 433 989 z m 644 639 l 644 717 l 88 717 l 88 614 l 485 614 l 69 90 l 69 0 l 668 0 l 668 103 l 219 103 z "},"Ž":{"ha":938,"x_min":0,"x_max":0,"o":"m 700 1313 l 567 1313 l 469 1174 l 372 1313 l 239 1313 l 403 1097 l 536 1097 z m 833 886 l 833 989 l 119 989 l 119 874 l 668 874 l 82 125 l 82 0 l 854 0 l 854 115 l 232 115 z "},"ž":{"ha":738,"x_min":0,"x_max":0,"o":"m 600 1022 l 467 1022 l 369 883 l 272 1022 l 139 1022 l 303 807 l 436 807 z m 644 639 l 644 717 l 88 717 l 88 614 l 485 614 l 69 90 l 69 0 l 668 0 l 668 103 l 219 103 z "},"Ə":{"ha":1114,"x_min":0,"x_max":0,"o":"m 544 1007 b 283 934 444 1007 356 983 b 128 728 210 885 158 817 l 265 728 b 543 892 313 837 405 892 b 791 795 647 892 729 859 b 892 521 853 731 886 639 l 90 521 b 89 465 89 510 89 491 b 214 117 89 327 131 211 b 554 -25 297 22 411 -25 b 897 118 699 -25 813 23 b 1025 493 982 214 1025 339 b 893 868 1025 650 981 775 b 544 1007 804 961 688 1007 z m 557 92 b 324 178 460 92 382 120 b 224 408 265 235 232 312 l 889 408 b 785 175 877 308 842 231 b 557 92 727 119 651 92 z "},"ƒ":{"ha":889,"x_min":0,"x_max":0,"o":"m 754 885 l 775 989 l 683 989 b 530 942 617 989 566 973 b 457 794 494 911 470 862 l 415 579 l 271 583 l 251 485 l 397 489 l 301 -1 b 266 -81 294 -39 282 -66 b 193 -103 250 -95 225 -103 l 135 -103 l 114 -207 l 200 -207 b 353 -160 267 -207 318 -191 b 426 -12 389 -129 413 -80 l 524 490 l 674 485 l 693 583 l 542 578 l 581 782 b 616 863 588 821 600 848 b 689 885 632 877 656 885 z "},"Ǵ":{"ha":1121,"x_min":0,"x_max":0,"o":"m 599 1294 l 476 1079 l 589 1079 l 774 1294 z m 575 417 l 875 417 l 875 363 b 767 164 857 277 821 211 b 560 93 712 117 643 93 b 311 203 453 93 370 130 b 221 493 251 276 221 373 b 313 789 221 619 252 718 b 572 896 375 860 461 896 b 763 844 648 896 712 879 b 860 694 813 810 846 760 l 985 703 b 849 929 970 798 925 874 b 565 1011 772 984 677 1011 b 217 872 417 1011 301 965 b 89 497 131 779 89 654 b 219 118 89 337 132 211 b 557 -22 307 25 420 -22 b 879 133 701 -22 809 30 l 908 0 l 1003 0 l 1003 529 l 575 529 z "},"ǵ":{"ha":842,"x_min":0,"x_max":0,"o":"m 413 1022 l 290 807 l 403 807 l 588 1022 z m 611 606 b 517 699 589 645 557 676 b 379 732 476 721 430 732 b 156 632 288 732 213 699 b 69 369 98 564 69 477 b 154 93 69 256 98 163 b 382 -15 211 21 287 -15 b 513 17 429 -15 473 -5 b 607 104 552 38 584 67 l 607 11 b 558 -150 607 -64 591 -118 b 399 -199 526 -182 473 -199 b 274 -173 345 -199 303 -190 b 217 -90 245 -156 226 -128 l 92 -90 b 184 -247 101 -160 132 -212 b 394 -300 236 -282 306 -300 b 731 24 619 -300 731 -192 l 731 717 l 611 717 z m 250 169 b 197 369 215 219 197 285 b 249 556 197 450 215 512 b 397 622 284 600 333 622 b 547 556 460 622 510 600 b 603 367 584 511 603 448 b 544 168 603 283 583 217 b 394 94 506 119 456 94 b 250 169 333 94 285 119 z "},"Ǻ":{"ha":994,"x_min":0,"x_max":0,"o":"m 525 1540 l 404 1331 l 517 1331 l 700 1540 z m 953 0 l 593 931 b 683 1094 653 966 683 1020 b 629 1231 683 1149 665 1195 b 492 1286 593 1268 547 1286 b 354 1231 436 1286 390 1268 b 300 1094 318 1195 300 1149 b 400 925 300 1017 333 960 l 42 0 l 179 0 l 286 290 l 706 290 l 810 0 z m 567 1172 b 594 1094 585 1152 594 1126 b 566 1019 594 1063 585 1038 b 492 990 547 1000 522 990 b 417 1019 461 990 436 1000 b 389 1094 398 1038 389 1063 b 418 1172 389 1127 399 1153 b 492 1200 437 1191 461 1200 b 567 1172 522 1200 547 1191 z m 465 776 l 499 879 l 531 776 l 665 403 l 328 403 z "},"ǻ":{"ha":792,"x_min":0,"x_max":0,"o":"m 432 1476 l 310 1261 l 422 1261 l 607 1476 z m 536 865 b 590 1001 572 901 590 947 b 536 1139 590 1056 572 1102 b 399 1193 500 1175 454 1193 b 261 1139 343 1193 297 1175 b 207 1001 225 1102 207 1056 b 261 865 207 947 225 901 b 399 811 297 829 343 811 b 536 865 454 811 500 829 z m 474 1079 b 501 1001 492 1059 501 1033 b 473 926 501 970 492 945 b 399 897 454 907 429 897 b 324 926 368 897 343 907 b 296 1001 305 945 296 970 b 325 1079 296 1034 306 1060 b 399 1107 344 1098 368 1107 b 474 1079 429 1107 454 1098 z m 743 94 b 694 108 720 94 704 99 b 681 157 685 118 681 134 l 681 510 b 400 739 681 663 587 739 b 101 506 213 739 113 661 l 228 506 b 272 604 231 552 246 585 b 390 633 297 624 337 633 b 551 522 498 633 551 596 l 551 492 b 500 438 551 459 534 441 l 317 414 b 72 190 154 393 72 318 b 136 37 72 125 94 73 b 313 -18 179 0 238 -18 b 467 15 370 -18 421 -7 b 572 106 512 38 547 68 b 696 0 578 35 619 0 l 764 0 l 764 94 z m 336 81 b 235 111 294 81 260 91 b 199 196 211 131 199 160 b 338 319 199 264 245 306 l 551 351 l 551 251 b 488 132 551 206 530 166 b 336 81 445 98 394 81 z "},"Ǽ":{"ha":1579,"x_min":0,"x_max":0,"o":"m 906 1294 l 783 1079 l 896 1079 l 1081 1294 z m 906 453 l 1432 453 l 1432 565 l 906 565 l 906 876 l 1476 876 l 1476 989 l 638 989 l 42 0 l 176 0 l 333 261 l 776 261 l 776 0 l 1489 0 l 1489 113 l 906 113 z m 707 883 l 776 883 l 776 367 l 397 367 z "},"ǽ":{"ha":1276,"x_min":0,"x_max":0,"o":"m 672 1022 l 550 807 l 663 807 l 847 1022 z m 1207 375 b 1119 638 1207 486 1178 574 b 879 733 1060 701 980 733 b 635 626 774 733 692 698 b 394 738 596 700 516 738 b 186 679 306 738 236 718 b 101 506 136 640 108 582 l 226 506 b 272 603 231 551 246 584 b 385 633 297 623 335 633 b 550 501 495 633 550 589 l 550 419 l 344 419 b 141 360 255 419 187 400 b 72 200 95 320 72 267 b 142 41 72 133 95 80 b 328 -18 188 2 250 -18 b 608 133 456 -18 550 32 b 882 -17 666 33 757 -17 b 1084 44 961 -17 1028 4 b 1201 217 1140 85 1179 143 l 1085 231 b 886 88 1051 135 985 88 b 729 149 819 88 767 108 b 669 328 691 191 671 250 l 1207 328 z m 1022 575 b 1088 419 1057 538 1079 486 l 671 419 b 738 576 678 488 700 540 b 881 629 775 612 823 629 b 1022 575 939 629 986 611 z m 339 82 b 236 114 296 82 262 93 b 197 200 210 135 197 164 b 336 318 197 275 244 314 l 550 326 l 550 278 b 489 138 550 220 530 174 b 339 82 448 100 398 82 z "},"Ǿ":{"ha":1113,"x_min":0,"x_max":0,"o":"m 589 1294 l 467 1079 l 579 1079 l 764 1294 z m 954 1007 l 860 897 b 556 1007 777 970 676 1007 b 219 864 418 1007 306 959 b 89 494 132 769 89 645 b 204 139 89 353 127 234 l 118 39 l 188 -21 l 269 74 b 556 -24 348 9 444 -24 b 894 121 694 -24 806 25 b 1024 494 981 216 1024 341 b 922 829 1024 625 990 737 l 1024 947 z m 221 494 b 314 783 221 616 252 712 b 557 892 377 856 458 892 b 779 804 646 892 720 863 l 289 236 b 221 494 244 306 221 393 z m 892 494 b 800 201 892 371 861 274 b 557 92 738 128 657 92 b 349 167 475 92 405 117 l 836 729 b 892 494 873 666 892 588 z "},"ǿ":{"ha":829,"x_min":0,"x_max":0,"o":"m 451 1040 l 329 825 l 442 825 l 626 1040 z m 750 681 l 681 735 l 625 669 b 418 735 568 713 499 735 b 167 632 314 735 231 700 b 69 358 102 564 69 473 b 142 114 69 261 94 180 l 74 36 l 143 -18 l 203 50 b 414 -18 262 5 332 -18 b 663 89 514 -18 597 18 b 760 364 727 159 760 251 b 686 607 760 461 735 542 z m 197 358 b 255 556 197 442 216 507 b 414 628 293 604 346 628 b 549 583 469 628 513 613 l 226 211 b 197 358 207 252 197 301 z m 414 89 b 278 138 361 89 316 105 l 603 511 b 632 364 622 470 632 421 b 574 164 632 281 613 214 b 414 89 535 114 481 89 z "},"Ș":{"ha":928,"x_min":0,"x_max":0,"o":"m 400 592 b 268 647 339 605 295 623 b 228 742 241 670 228 702 b 287 863 228 794 247 834 b 453 906 326 891 381 906 b 631 856 529 906 588 889 b 703 713 673 823 697 775 l 826 713 b 719 933 819 808 783 881 b 457 1011 654 985 567 1011 b 198 935 346 1011 259 986 b 106 731 136 885 106 817 b 175 562 106 658 129 602 b 383 472 221 522 291 492 l 522 443 b 684 378 598 427 652 406 b 732 267 716 351 732 314 b 667 132 732 208 710 163 b 479 85 624 100 562 85 b 194 321 302 85 207 163 l 71 321 b 475 -21 88 93 222 -21 b 759 59 599 -21 694 6 b 857 274 824 112 857 184 b 574 554 857 421 763 514 z m 499 -201 l 499 -246 b 446 -296 499 -279 481 -296 l 399 -296 l 399 -350 l 446 -350 b 553 -235 517 -350 553 -312 l 553 -101 l 399 -101 l 399 -208 z "},"ș":{"ha":701,"x_min":0,"x_max":0,"o":"m 304 442 b 219 477 264 450 236 462 b 193 538 202 492 193 513 b 338 632 193 600 241 632 b 507 508 437 632 493 591 l 633 508 b 544 676 624 582 594 638 b 342 733 493 714 426 733 b 144 678 256 733 191 715 b 75 526 98 642 75 591 b 274 332 75 425 141 360 l 418 301 b 531 197 493 286 531 251 b 487 114 531 161 516 133 b 360 85 458 94 415 85 b 232 119 304 85 262 96 b 178 226 202 141 184 177 l 56 226 b 354 -18 72 63 172 -18 b 574 42 448 -18 521 2 b 653 208 626 83 653 138 b 602 337 653 261 636 304 b 443 411 568 370 515 394 z m 379 -200 l 379 -244 b 326 -294 379 -278 362 -294 l 279 -294 l 279 -349 l 326 -349 b 433 -233 398 -349 433 -310 l 433 -100 l 279 -100 l 279 -207 z "},"Ț":{"ha":888,"x_min":0,"x_max":0,"o":"m 49 876 l 379 876 l 379 0 l 508 0 l 508 876 l 839 876 l 839 989 l 49 989 z m 468 -192 l 468 -236 b 415 -286 468 -269 450 -286 l 368 -286 l 368 -340 l 415 -340 b 522 -225 487 -340 522 -302 l 522 -92 l 368 -92 l 368 -199 z "},"ț":{"ha":496,"x_min":0,"x_max":0,"o":"m 454 618 l 454 717 l 290 711 l 290 936 l 163 936 l 163 713 l 56 717 l 56 618 l 163 624 l 163 160 b 201 38 163 104 175 64 b 322 0 226 13 267 0 l 453 0 l 453 107 l 360 107 b 305 122 333 107 315 112 b 290 176 295 131 290 150 l 290 624 z m 251 -179 l 251 -224 b 199 -274 251 -257 234 -274 l 151 -274 l 151 -328 l 199 -328 b 306 -212 270 -328 306 -289 l 306 -79 l 151 -79 l 151 -186 z "},"ȷ":{"ha":350,"x_min":0,"x_max":0,"o":"m 24 -283 b 188 -232 99 -283 153 -266 b 239 -68 222 -198 239 -143 l 239 717 l 111 717 l 111 -86 b 92 -157 111 -120 105 -144 b 21 -176 79 -170 55 -176 l -11 -176 l -11 -283 z "},"ə":{"ha":804,"x_min":0,"x_max":0,"o":"m 394 733 b 192 672 316 733 248 713 b 75 500 136 631 97 574 l 192 486 b 390 629 225 581 291 629 b 547 567 457 629 509 609 b 607 389 585 526 605 467 l 69 389 l 69 342 b 158 79 69 231 99 143 b 397 -17 216 15 296 -17 b 646 86 503 -17 586 18 b 735 356 705 154 735 244 b 644 629 735 467 705 558 b 394 733 583 699 500 733 z m 256 142 b 189 297 219 178 197 230 l 606 297 b 540 142 598 227 576 175 b 396 88 502 106 454 88 b 256 142 338 88 291 106 z "},"ʰ":{"ha":678,"x_min":0,"x_max":0,"o":"m 386 1000 b 215 907 306 1000 250 969 l 215 1169 l 111 1169 l 111 517 l 215 517 l 215 767 b 252 867 215 808 228 842 b 351 904 277 892 310 904 b 461 794 425 904 461 868 l 461 517 l 567 517 l 567 817 b 519 952 567 875 551 920 b 386 1000 488 984 444 1000 z "},"ʳ":{"ha":428,"x_min":0,"x_max":0,"o":"m 369 996 b 213 900 293 996 240 964 l 208 989 l 111 989 l 111 517 l 215 517 l 215 739 b 369 897 215 844 267 897 l 407 897 l 407 996 z "},"ˆ":{"ha":694,"x_min":0,"x_max":0,"o":"m 250 807 l 347 946 l 444 807 l 578 807 l 414 1022 l 281 1022 l 117 807 z "},"ˇ":{"ha":694,"x_min":0,"x_max":0,"o":"m 414 807 l 578 1022 l 444 1022 l 347 883 l 250 1022 l 117 1022 l 281 807 z "},"ˉ":{"ha":694,"x_min":0,"x_max":0,"o":"m 569 850 l 569 949 l 125 949 l 125 850 z "},"˘":{"ha":694,"x_min":0,"x_max":0,"o":"m 346 854 b 569 1044 488 854 562 918 l 485 1044 b 347 938 482 973 436 938 b 210 1044 258 938 213 973 l 125 1044 b 346 854 132 918 206 854 z "},"˙":{"ha":694,"x_min":0,"x_max":0,"o":"m 411 851 l 411 989 l 283 989 l 283 851 z "},"˚":{"ha":694,"x_min":0,"x_max":0,"o":"m 485 868 b 539 1004 521 904 539 950 b 485 1142 539 1059 521 1105 b 347 1196 449 1178 403 1196 b 210 1142 292 1196 246 1178 b 156 1004 174 1105 156 1059 b 210 868 156 950 174 904 b 347 814 246 832 292 814 b 485 868 403 814 449 832 z m 274 929 b 244 1004 254 947 244 972 b 273 1081 244 1037 254 1062 b 347 1110 292 1100 317 1110 b 422 1081 378 1110 403 1100 b 450 1004 441 1062 450 1037 b 422 929 450 973 441 948 b 347 900 403 910 378 900 b 274 929 317 900 292 910 z "},"˛":{"ha":694,"x_min":0,"x_max":0,"o":"m 461 -279 l 461 -189 l 417 -189 b 333 -133 361 -189 333 -170 b 388 -61 333 -108 351 -84 l 479 0 l 394 21 l 321 -19 b 217 -157 251 -56 217 -102 b 385 -279 217 -238 273 -279 z "},"˜":{"ha":694,"x_min":0,"x_max":0,"o":"m 178 883 b 194 972 180 925 185 955 b 240 999 204 990 219 999 b 329 942 269 999 299 980 b 456 883 359 903 401 883 b 572 937 505 883 543 901 b 614 1096 600 972 614 1025 l 517 1096 b 500 1007 515 1054 509 1025 b 454 981 491 989 475 981 b 367 1039 425 981 396 1000 b 239 1096 336 1077 294 1096 b 123 1042 190 1096 151 1078 b 81 883 95 1007 81 954 z "},"˝":{"ha":694,"x_min":0,"x_max":0,"o":"m 189 807 l 356 1031 l 206 1031 l 79 807 z m 449 807 l 615 1031 l 465 1031 l 339 807 z "},"ˢ":{"ha":600,"x_min":0,"x_max":0,"o":"m 304 500 b 470 540 375 500 430 513 b 531 656 510 567 531 606 b 381 786 531 730 481 773 l 256 803 b 181 857 206 810 181 828 b 290 919 181 899 217 919 b 419 851 364 919 407 897 l 514 861 b 443 964 505 906 481 940 b 294 1000 405 988 356 1000 b 141 960 230 1000 178 987 b 85 851 103 934 85 898 b 249 711 85 770 139 723 l 347 700 b 415 682 380 696 402 690 b 435 644 428 674 435 661 b 310 581 435 602 393 581 b 167 657 224 581 176 606 l 69 647 b 304 500 89 549 167 500 z "},"̀":{"ha":0,"x_min":0,"x_max":0,"o":"m 78 807 l -44 1022 l -219 1022 l -35 807 z "},"́":{"ha":0,"x_min":0,"x_max":0,"o":"m 24 807 l 208 1022 l 33 1022 l -89 807 z "},"̂":{"ha":0,"x_min":0,"x_max":0,"o":"m -97 807 l 0 946 l 97 807 l 231 807 l 67 1022 l -67 1022 l -231 807 z "},"̃":{"ha":0,"x_min":0,"x_max":0,"o":"m -169 883 b -153 972 -168 925 -162 955 b -107 999 -144 990 -128 999 b -18 942 -78 999 -49 980 b 108 883 12 903 54 883 b 224 937 157 883 196 901 b 267 1096 253 972 267 1025 l 169 1096 b 153 1007 168 1054 162 1025 b 107 981 144 989 128 981 b 19 1039 78 981 49 1000 b -108 1096 -11 1077 -54 1096 b -224 1042 -157 1096 -196 1078 b -267 883 -253 1007 -267 954 z "},"̄":{"ha":0,"x_min":0,"x_max":0,"o":"m 222 850 l 222 949 l -222 949 l -222 850 z "},"̆":{"ha":0,"x_min":0,"x_max":0,"o":"m -1 854 b 222 1044 140 854 215 918 l 138 1044 b 0 938 135 973 89 938 b -137 1044 -89 938 -135 973 l -222 1044 b -1 854 -215 918 -141 854 z "},"̇":{"ha":0,"x_min":0,"x_max":0,"o":"m 64 851 l 64 989 l -64 989 l -64 851 z "},"̈":{"ha":0,"x_min":0,"x_max":0,"o":"m -85 851 l -85 989 l -212 989 l -212 851 z m 213 851 l 213 989 l 85 989 l 85 851 z "},"̊":{"ha":0,"x_min":0,"x_max":0,"o":"m 138 868 b 192 1004 174 904 192 950 b 138 1142 192 1059 174 1105 b 0 1196 101 1178 56 1196 b -137 1142 -56 1196 -101 1178 b -192 1004 -174 1105 -192 1059 b -137 868 -192 950 -174 904 b 0 814 -101 832 -56 814 b 138 868 56 814 101 832 z m -75 929 b -103 1004 -94 948 -103 973 b -74 1081 -103 1037 -93 1062 b 0 1110 -55 1100 -31 1110 b 74 1081 31 1110 55 1100 b 103 1004 93 1062 103 1037 b 75 929 103 973 94 948 b 0 900 56 910 31 900 b -75 929 -31 900 -56 910 z "},"̋":{"ha":0,"x_min":0,"x_max":0,"o":"m -104 807 l 63 1031 l -87 1031 l -214 807 z m 156 807 l 322 1031 l 172 1031 l 46 807 z "},"̌":{"ha":0,"x_min":0,"x_max":0,"o":"m 67 807 l 231 1022 l 97 1022 l 0 883 l -97 1022 l -231 1022 l -67 807 z "},"̒":{"ha":0,"x_min":0,"x_max":0,"o":"m 76 1046 l 76 1100 l 29 1100 b -76 985 -41 1100 -76 1062 l -76 851 l 76 851 l 76 958 l -22 951 l -22 996 b 29 1046 -22 1029 -5 1046 z "},"̓":{"ha":0,"x_min":0,"x_max":0,"o":"m -76 993 l 22 1000 l 22 956 b -29 906 22 922 5 906 l -76 906 l -76 851 l -29 851 b 76 967 41 851 76 890 l 76 1100 l -76 1100 z "},"̣":{"ha":0,"x_min":0,"x_max":0,"o":"m 64 -272 l 64 -135 l -64 -135 l -64 -272 z "},"̤":{"ha":0,"x_min":0,"x_max":0,"o":"m -85 -260 l -85 -122 l -212 -122 l -212 -260 z m 213 -260 l 213 -122 l 85 -122 l 85 -260 z "},"̥":{"ha":0,"x_min":0,"x_max":0,"o":"m 138 -425 b 192 -287 174 -388 192 -342 b 138 -151 192 -233 174 -187 b 0 -97 101 -115 56 -97 b -137 -151 -56 -97 -101 -115 b -192 -287 -174 -187 -192 -233 b -137 -425 -192 -342 -174 -388 b 0 -479 -101 -461 -56 -479 b 138 -425 56 -479 101 -461 z m -75 -365 b -103 -287 -94 -345 -103 -319 b -74 -212 -103 -256 -93 -231 b 0 -183 -55 -193 -31 -183 b 74 -212 31 -183 55 -193 b 103 -287 93 -231 103 -256 b 75 -365 103 -319 94 -345 b 0 -393 56 -384 31 -393 b -75 -365 -31 -393 -56 -384 z "},"̦":{"ha":0,"x_min":0,"x_max":0,"o":"m -78 -199 l 22 -192 l 22 -236 b -31 -286 22 -269 5 -286 l -78 -286 l -78 -340 l -31 -340 b 76 -225 41 -340 76 -302 l 76 -92 l -78 -92 z "},"̧":{"ha":0,"x_min":0,"x_max":0,"o":"m -36 -342 b 103 -306 23 -342 69 -330 b 153 -207 136 -281 153 -249 b 117 -117 153 -168 141 -138 b 15 -86 93 -97 59 -86 l -14 -86 l 42 0 l -35 0 l -100 -103 l -62 -168 l -4 -168 b 54 -211 35 -168 54 -182 b -46 -267 54 -248 21 -267 l -81 -267 l -81 -342 z "},"̨":{"ha":0,"x_min":0,"x_max":0,"o":"m -18 -279 l -18 -189 l -62 -189 b -146 -133 -118 -189 -146 -170 b -92 -61 -146 -109 -128 -85 l 0 0 l -85 21 l -158 -19 b -262 -157 -228 -56 -262 -102 b -94 -279 -262 -238 -206 -279 z "},"̮":{"ha":0,"x_min":0,"x_max":0,"o":"m -1 -283 b 222 -93 140 -283 215 -220 l 138 -93 b 0 -200 135 -164 89 -200 b -137 -93 -89 -200 -135 -164 l -222 -93 b -1 -283 -215 -220 -141 -283 z "},"̱":{"ha":0,"x_min":0,"x_max":0,"o":"m 222 -232 l 222 -133 l -222 -133 l -222 -232 z "},"̵":{"ha":0,"x_min":0,"x_max":0,"o":"m -200 476 l -1 468 l -1 567 l -200 560 l -400 567 l -400 468 z "},"̷":{"ha":0,"x_min":0,"x_max":0,"o":"m 353 717 l 283 776 l -353 39 l -283 -21 z "},"̸":{"ha":0,"x_min":0,"x_max":0,"o":"m 453 947 l 383 1007 l -453 39 l -383 -21 z "},"Δ":{"ha":994,"x_min":0,"x_max":0,"o":"m 425 989 l 42 0 l 953 0 l 571 989 z m 467 778 l 500 876 l 532 778 l 769 113 l 221 113 z "},"Ω":{"ha":1139,"x_min":0,"x_max":0,"o":"m 496 0 l 496 100 b 232 533 320 197 232 342 b 323 799 232 649 262 738 b 571 892 384 861 466 892 b 815 799 675 892 756 861 b 903 533 873 738 903 649 b 644 100 903 339 817 194 l 644 0 l 1050 0 l 1050 111 l 814 111 l 814 114 b 978 293 885 160 940 220 b 1035 533 1016 366 1035 446 b 908 881 1035 681 993 796 b 571 1007 824 965 712 1007 b 231 881 429 1007 316 965 b 100 533 144 796 100 681 b 158 294 100 446 119 366 b 325 114 197 221 253 161 l 325 111 l 89 111 l 89 0 z "},"μ":{"ha":825,"x_min":0,"x_max":0,"o":"m 239 -283 l 239 -153 l 210 35 l 213 38 b 365 -18 250 0 300 -18 b 597 106 468 -18 545 23 l 592 0 l 714 0 l 714 717 l 586 717 l 586 318 b 529 149 586 243 567 187 b 382 93 491 112 442 93 b 239 244 287 93 239 144 l 239 717 l 111 717 l 111 -283 z "},"π":{"ha":947,"x_min":0,"x_max":0,"o":"m 906 717 l 56 717 l 56 599 l 213 599 l 213 0 l 338 0 l 338 599 l 624 599 l 624 197 b 669 47 624 128 639 78 b 811 0 699 16 746 0 l 867 0 l 867 106 l 835 106 b 767 125 802 106 780 112 b 749 193 755 138 749 161 l 749 599 l 906 599 z "},"ᵈ":{"ha":685,"x_min":0,"x_max":0,"o":"m 469 933 b 301 1001 432 979 376 1001 b 133 935 231 1001 175 979 b 69 756 91 891 69 831 b 132 573 69 679 90 618 b 300 506 174 528 230 506 b 478 588 381 506 440 533 l 486 517 l 574 517 l 574 1169 l 469 1169 z m 324 588 b 211 631 275 588 237 602 b 172 756 185 660 172 702 b 319 921 172 866 221 921 b 434 876 369 921 407 906 b 475 754 461 847 475 806 b 435 632 475 702 462 662 b 324 588 409 602 372 588 z "},"ᵗ":{"ha":418,"x_min":0,"x_max":0,"o":"m 376 990 l 258 988 l 258 1132 l 156 1132 l 156 988 l 56 990 l 56 899 l 156 900 l 156 647 b 188 547 156 600 166 566 b 290 517 210 527 244 517 l 376 517 l 376 600 l 322 600 b 258 660 280 600 258 620 l 258 900 l 376 899 z "},"Ẁ":{"ha":1326,"x_min":0,"x_max":0,"o":"m 619 1294 l 444 1294 l 629 1079 l 742 1079 z m 996 399 l 943 175 l 890 399 l 731 989 l 585 989 l 424 399 l 369 176 l 321 399 l 174 989 l 42 989 l 306 0 l 429 0 l 657 856 l 886 0 l 1010 0 l 1285 989 l 1153 989 z "},"ẁ":{"ha":1072,"x_min":0,"x_max":0,"o":"m 492 1022 l 317 1022 l 501 807 l 614 807 z m 788 303 l 746 132 l 711 303 l 608 717 l 469 717 l 367 303 l 329 132 l 286 303 l 174 717 l 35 717 l 261 0 l 392 0 l 500 428 l 539 608 l 575 428 l 676 0 l 804 0 l 1038 717 l 906 717 z "},"Ẃ":{"ha":1326,"x_min":0,"x_max":0,"o":"m 697 1294 l 575 1079 l 688 1079 l 872 1294 z m 996 399 l 943 175 l 890 399 l 731 989 l 585 989 l 424 399 l 369 176 l 321 399 l 174 989 l 42 989 l 306 0 l 429 0 l 657 856 l 886 0 l 1010 0 l 1285 989 l 1153 989 z "},"ẃ":{"ha":1072,"x_min":0,"x_max":0,"o":"m 569 1022 l 447 807 l 560 807 l 744 1022 z m 788 303 l 746 132 l 711 303 l 608 717 l 469 717 l 367 303 l 329 132 l 286 303 l 174 717 l 35 717 l 261 0 l 392 0 l 500 428 l 539 608 l 575 428 l 676 0 l 804 0 l 1038 717 l 906 717 z "},"Ẅ":{"ha":1326,"x_min":0,"x_max":0,"o":"m 451 1249 l 451 1111 l 579 1111 l 579 1249 z m 749 1249 l 749 1111 l 876 1111 l 876 1249 z m 996 399 l 943 175 l 890 399 l 731 989 l 585 989 l 424 399 l 369 176 l 321 399 l 174 989 l 42 989 l 306 0 l 429 0 l 657 856 l 886 0 l 1010 0 l 1285 989 l 1153 989 z "},"ẅ":{"ha":1072,"x_min":0,"x_max":0,"o":"m 324 989 l 324 851 l 451 851 l 451 989 z m 621 989 l 621 851 l 749 851 l 749 989 z m 788 303 l 746 132 l 711 303 l 608 717 l 469 717 l 367 303 l 329 132 l 286 303 l 174 717 l 35 717 l 261 0 l 392 0 l 500 428 l 539 608 l 575 428 l 676 0 l 804 0 l 1038 717 l 906 717 z "},"ẞ":{"ha":967,"x_min":0,"x_max":0,"o":"m 853 889 l 853 986 b 525 1007 755 1000 645 1007 b 221 908 391 1007 289 974 b 118 619 152 841 118 745 l 118 0 l 246 0 l 246 619 b 311 826 246 712 268 781 b 526 893 355 871 426 893 b 699 886 586 893 643 891 l 453 574 l 453 467 b 536 471 479 469 506 471 b 708 423 611 471 669 455 b 768 288 748 391 768 346 b 708 149 768 228 748 182 b 538 100 669 116 612 100 b 372 119 484 100 429 106 l 372 7 b 543 -14 428 -7 485 -14 b 802 68 652 -14 739 13 b 897 289 866 123 897 196 b 818 491 897 370 871 438 b 603 585 765 544 694 575 z "},"Ỳ":{"ha":950,"x_min":0,"x_max":0,"o":"m 431 1294 l 256 1294 l 440 1079 l 553 1079 z m 525 583 l 482 510 l 439 583 l 185 989 l 29 989 l 417 406 l 417 0 l 546 0 l 546 406 l 921 989 l 774 989 z "},"ỳ":{"ha":749,"x_min":0,"x_max":0,"o":"m 331 1022 l 156 1022 l 340 807 l 453 807 z m 375 136 l 360 222 l 174 717 l 35 717 l 324 7 l 290 -81 b 244 -157 275 -119 260 -144 b 171 -176 228 -170 203 -176 l 104 -176 l 104 -283 l 183 -283 b 305 -252 235 -283 276 -273 b 381 -140 334 -231 359 -194 l 714 717 l 582 717 z "}," ":{"ha":350,"x_min":0,"x_max":0,"o":""},"‑":{"ha":528,"x_min":0,"x_max":0,"o":"m 458 289 l 458 404 l 69 404 l 69 289 z "},"–":{"ha":743,"x_min":0,"x_max":0,"o":"m 674 289 l 674 404 l 69 404 l 69 289 z "},"—":{"ha":1151,"x_min":0,"x_max":0,"o":"m 1082 289 l 1082 404 l 69 404 l 69 289 z "},"‘":{"ha":283,"x_min":0,"x_max":0,"o":"m 225 657 l 225 796 l 144 789 l 144 860 b 210 925 144 903 166 925 l 224 925 l 224 994 l 210 994 b 72 844 118 994 72 944 l 72 657 z "},"’":{"ha":283,"x_min":0,"x_max":0,"o":"m 74 651 b 211 801 165 651 211 701 l 211 989 l 58 989 l 58 850 l 139 857 l 139 786 b 74 721 139 743 117 721 l 60 721 l 60 651 z "},"‚":{"ha":417,"x_min":0,"x_max":0,"o":"m 147 -199 b 285 -49 239 -199 285 -149 l 285 139 l 132 139 l 132 0 l 213 7 l 213 -64 b 147 -129 213 -107 191 -129 l 133 -129 l 133 -199 z "},"“":{"ha":529,"x_min":0,"x_max":0,"o":"m 225 658 l 225 797 l 144 790 l 144 861 b 210 926 144 905 166 926 l 224 926 l 224 996 l 210 996 b 72 846 118 996 72 946 l 72 658 z m 471 658 l 471 797 l 390 790 l 390 861 b 456 926 390 905 412 926 l 469 926 l 469 996 l 456 996 b 318 846 364 996 318 946 l 318 658 z "},"”":{"ha":529,"x_min":0,"x_max":0,"o":"m 74 651 b 211 801 165 651 211 701 l 211 989 l 58 989 l 58 850 l 139 857 l 139 786 b 74 721 139 743 117 721 l 60 721 l 60 651 z m 319 651 b 457 801 411 651 457 701 l 457 989 l 304 989 l 304 850 l 385 857 l 385 786 b 319 721 385 743 363 721 l 306 721 l 306 651 z "},"„":{"ha":658,"x_min":0,"x_max":0,"o":"m 147 -197 b 285 -47 239 -197 285 -147 l 285 140 l 132 140 l 132 0 l 213 7 l 213 -62 b 147 -128 213 -106 191 -128 l 133 -128 l 133 -197 z m 389 -199 b 526 -49 481 -199 526 -149 l 526 139 l 374 139 l 374 0 l 454 7 l 454 -64 b 389 -129 454 -107 432 -129 l 375 -129 l 375 -199 z "},"†":{"ha":872,"x_min":0,"x_max":0,"o":"m 499 825 l 499 1181 l 374 1181 l 374 825 l 118 831 l 118 717 l 374 722 l 374 -146 l 499 -146 l 499 722 l 754 717 l 754 831 z "},"‡":{"ha":872,"x_min":0,"x_max":0,"o":"m 754 831 l 499 825 l 499 1181 l 374 1181 l 374 825 l 118 831 l 118 717 l 374 722 l 374 318 l 118 324 l 118 210 l 374 215 l 374 -146 l 499 -146 l 499 215 l 754 210 l 754 324 l 499 318 l 499 722 l 754 717 z "},"•":{"ha":508,"x_min":0,"x_max":0,"o":"m 390 264 l 390 507 l 118 507 l 118 264 z "},"…":{"ha":1165,"x_min":0,"x_max":0,"o":"m 268 0 l 268 140 l 111 140 l 111 0 z m 661 0 l 661 140 l 504 140 l 504 0 z m 1054 0 l 1054 140 l 897 140 l 897 0 z "},"‰":{"ha":2336,"x_min":0,"x_max":0,"o":"m 374 424 b 565 504 458 424 522 450 b 631 738 609 558 631 636 b 565 971 631 839 609 917 b 374 1051 522 1025 458 1051 b 183 971 290 1051 227 1025 b 118 738 140 917 118 839 b 183 504 118 636 140 558 b 374 424 227 450 290 424 z m 583 -21 l 1203 1010 l 1076 1010 l 454 -21 z m 268 572 b 233 738 245 605 233 660 b 268 903 233 813 245 869 b 374 953 290 936 325 953 b 481 903 421 953 456 936 b 515 738 504 869 515 813 b 481 574 515 661 504 606 b 374 522 457 539 422 522 b 268 572 325 522 290 539 z m 1315 -22 b 1507 58 1400 -22 1463 5 b 1572 292 1550 112 1572 190 b 1507 525 1572 394 1550 471 b 1315 606 1463 579 1400 606 b 1125 525 1232 606 1169 579 b 1060 292 1081 471 1060 394 b 1125 58 1060 190 1081 112 b 1315 -22 1169 5 1232 -22 z m 1961 -22 b 2153 58 2045 -22 2109 5 b 2218 292 2196 112 2218 190 b 2153 525 2218 394 2196 471 b 1961 606 2109 579 2045 606 b 1771 525 1878 606 1814 579 b 1706 292 1727 471 1706 394 b 1771 58 1706 190 1727 112 b 1961 -22 1814 5 1878 -22 z m 1210 126 b 1175 292 1187 159 1175 214 b 1210 457 1175 368 1187 423 b 1315 507 1232 490 1267 507 b 1422 457 1363 507 1398 490 b 1457 292 1445 423 1457 368 b 1422 128 1457 215 1445 160 b 1315 76 1399 94 1363 76 b 1210 126 1267 76 1232 93 z m 1856 126 b 1821 292 1832 159 1821 214 b 1856 457 1821 368 1832 423 b 1961 507 1878 490 1913 507 b 2068 457 2009 507 2045 490 b 2103 292 2091 423 2103 368 b 2068 128 2103 215 2091 160 b 1961 76 2045 94 2009 76 b 1856 126 1913 76 1878 93 z "},"‹":{"ha":569,"x_min":0,"x_max":0,"o":"m 458 128 l 193 357 l 458 586 l 458 728 l 111 425 l 111 289 l 458 -14 z "},"›":{"ha":569,"x_min":0,"x_max":0,"o":"m 458 289 l 458 425 l 111 728 l 111 586 l 376 357 l 111 128 l 111 -14 z "},"‽":{"ha":846,"x_min":0,"x_max":0,"o":"m 419 1007 b 167 924 310 1007 226 979 b 71 688 109 868 76 789 l 193 688 b 419 904 199 832 274 904 b 580 860 488 904 541 889 b 638 729 618 830 638 787 b 514 538 638 656 596 592 b 475 508 493 523 480 513 l 482 614 l 482 739 l 353 739 l 353 614 l 376 244 l 458 244 b 482 378 464 308 472 353 b 546 444 492 402 513 424 l 615 488 b 757 732 710 548 757 629 b 665 934 757 818 726 885 b 419 1007 604 983 522 1007 z m 489 0 l 489 140 l 346 140 l 346 0 z "},"⁄":{"ha":493,"x_min":0,"x_max":0,"o":"m 1 -21 l 621 1010 l 494 1010 l -128 -21 z "},"⁰":{"ha":638,"x_min":0,"x_max":0,"o":"m 318 494 b 510 575 402 494 466 521 b 575 808 553 629 575 706 b 510 1042 575 910 553 988 b 318 1122 466 1095 402 1122 b 128 1042 235 1122 171 1095 b 63 808 84 988 63 910 b 128 575 63 706 84 629 b 318 494 171 521 235 494 z m 213 643 b 178 808 189 675 178 731 b 213 974 178 884 189 939 b 318 1024 235 1007 270 1024 b 425 974 365 1024 401 1007 b 460 808 448 939 460 884 b 425 644 460 731 448 677 b 318 593 402 610 366 593 b 213 643 270 593 235 610 z "},"⁴":{"ha":639,"x_min":0,"x_max":0,"o":"m 464 517 l 464 653 l 569 650 l 569 736 l 464 733 l 464 1110 l 350 1110 l 69 743 l 69 650 l 357 653 l 357 517 z m 351 985 l 357 985 l 357 733 l 164 736 z "},"⁵":{"ha":619,"x_min":0,"x_max":0,"o":"m 306 493 b 485 551 382 493 442 513 b 550 703 528 590 550 641 b 493 847 550 762 531 810 b 333 901 455 883 402 901 b 200 865 280 901 235 889 l 197 868 l 222 1018 l 506 1018 l 506 1110 l 146 1110 l 86 796 l 197 772 b 307 815 223 801 260 815 b 404 783 349 815 381 805 b 439 697 427 762 439 733 b 404 615 439 662 427 634 b 307 585 381 595 349 585 b 181 661 240 585 198 610 l 71 638 b 306 493 100 541 179 493 z "},"⁶":{"ha":622,"x_min":0,"x_max":0,"o":"m 318 494 b 490 550 391 494 449 513 b 553 701 532 587 553 638 b 494 846 553 763 533 811 b 338 899 456 881 403 899 b 174 835 265 899 211 877 b 322 1032 180 966 230 1032 b 431 969 374 1032 410 1011 l 536 999 b 458 1090 521 1038 495 1068 b 324 1122 421 1111 376 1122 b 135 1037 241 1122 178 1094 b 69 793 91 980 69 899 b 132 572 69 697 90 623 b 318 494 174 520 236 494 z m 319 583 b 224 615 280 583 248 594 b 188 703 200 635 188 665 b 224 782 188 734 200 761 b 319 811 247 801 279 811 b 413 781 360 811 391 801 b 444 697 434 759 444 731 b 412 614 444 662 434 634 b 319 583 390 594 359 583 z "},"⁷":{"ha":529,"x_min":0,"x_max":0,"o":"m 246 517 b 322 814 257 635 282 734 b 494 1022 361 894 419 963 l 494 1110 l 35 1110 l 35 1018 l 363 1018 b 133 517 231 900 155 733 z "},"⁸":{"ha":633,"x_min":0,"x_max":0,"o":"m 500 553 b 567 686 544 584 567 629 b 534 781 567 723 556 755 b 443 836 512 808 482 826 l 443 839 b 536 967 505 862 536 905 b 477 1081 536 1015 516 1053 b 317 1122 438 1108 384 1122 b 156 1081 249 1122 196 1108 b 97 967 117 1053 97 1015 b 190 839 97 905 128 862 l 190 836 b 100 781 152 826 122 807 b 67 686 78 754 67 722 b 133 553 67 629 89 584 b 317 504 179 520 240 504 b 500 553 394 504 455 520 z m 204 957 b 317 1038 204 1011 242 1038 b 429 957 392 1038 429 1011 b 317 874 429 901 392 874 b 204 957 242 874 204 901 z m 179 692 b 317 792 179 758 225 792 b 454 692 408 792 454 758 b 317 589 454 623 408 589 b 179 692 225 589 179 623 z "},"⁹":{"ha":622,"x_min":0,"x_max":0,"o":"m 299 494 b 488 580 381 494 444 523 b 553 824 531 637 553 718 b 490 1045 553 920 532 994 b 304 1122 449 1097 387 1122 b 132 1067 231 1122 174 1104 b 69 915 90 1030 69 979 b 128 771 69 854 89 806 b 285 718 167 736 219 718 b 449 782 357 718 412 739 b 300 585 442 650 393 585 b 192 647 248 585 212 606 l 86 618 b 164 527 101 579 127 549 b 299 494 201 505 246 494 z m 211 836 b 178 919 189 856 178 884 b 210 1003 178 955 189 982 b 303 1033 232 1023 263 1033 b 399 1002 343 1033 375 1023 b 435 914 423 981 435 952 b 399 836 435 881 423 856 b 303 806 375 816 344 806 b 211 836 262 806 231 816 z "},"⁺":{"ha":732,"x_min":0,"x_max":0,"o":"m 415 813 l 415 1019 l 319 1019 l 319 813 l 81 813 l 81 725 l 319 725 l 319 517 l 415 517 l 415 725 l 654 725 l 654 813 z "},"⁻":{"ha":718,"x_min":0,"x_max":0,"o":"m 640 721 l 640 810 l 81 810 l 81 721 z "},"⁽":{"ha":424,"x_min":0,"x_max":0,"o":"m 346 329 b 193 761 244 461 193 605 b 346 1201 193 925 244 1072 l 244 1201 b 89 761 141 1075 89 929 b 244 329 89 600 141 456 z "},"⁾":{"ha":424,"x_min":0,"x_max":0,"o":"m 179 329 b 335 761 283 456 335 600 b 179 1201 335 929 283 1075 l 78 1201 b 231 761 180 1073 231 926 b 78 329 231 603 180 459 z "},"ⁿ":{"ha":678,"x_min":0,"x_max":0,"o":"m 386 1000 b 215 906 307 1000 250 969 l 213 989 l 111 989 l 111 517 l 215 517 l 215 767 b 252 867 215 808 228 842 b 351 904 277 892 310 904 b 461 794 425 904 461 868 l 461 517 l 567 517 l 567 817 b 519 952 567 875 551 920 b 386 1000 488 984 444 1000 z "},"₀":{"ha":638,"x_min":0,"x_max":0,"o":"m 318 -264 b 510 -183 402 -264 466 -237 b 575 50 553 -130 575 -52 b 510 283 575 152 553 230 b 318 364 466 337 402 364 b 128 283 235 364 171 337 b 63 50 84 230 63 152 b 128 -183 63 -52 84 -130 b 318 -264 171 -237 235 -264 z m 213 -115 b 178 50 189 -83 178 -28 b 213 215 178 126 189 181 b 318 265 235 249 270 265 b 425 215 365 265 401 249 b 460 50 448 181 460 126 b 425 -115 460 -26 448 -81 b 318 -165 401 -149 365 -165 b 213 -115 270 -165 235 -149 z "},"₁":{"ha":417,"x_min":0,"x_max":0,"o":"m 306 -242 l 306 351 l 217 351 l 213 326 b 104 253 204 277 168 253 l 56 253 l 56 171 l 199 171 l 199 -242 z "},"₂":{"ha":599,"x_min":0,"x_max":0,"o":"m 528 -242 l 528 -146 l 200 -146 b 229 -92 204 -124 213 -106 b 310 -43 245 -78 272 -62 l 382 -8 b 494 72 433 16 470 43 b 529 179 517 102 529 138 b 468 315 529 237 509 282 b 304 364 427 347 373 364 b 140 309 233 364 178 346 b 79 156 101 272 81 221 l 190 156 b 218 242 192 195 201 224 b 304 269 235 260 263 269 b 418 179 380 269 418 239 b 333 74 418 137 390 101 l 215 17 b 69 -242 118 -31 69 -117 z "},"₃":{"ha":618,"x_min":0,"x_max":0,"o":"m 310 -264 b 483 -214 382 -264 440 -247 b 549 -83 527 -181 549 -137 b 518 10 549 -47 538 -16 b 433 64 498 36 469 54 l 433 67 b 503 114 463 75 486 91 b 528 197 519 137 528 165 b 467 319 528 248 507 289 b 300 364 426 349 370 364 b 133 315 230 364 174 348 b 71 181 91 283 71 238 l 182 181 b 301 274 186 243 225 274 b 417 188 378 274 417 245 b 313 106 417 133 382 106 l 258 106 l 258 10 l 313 10 b 438 -81 396 10 438 -20 b 311 -174 438 -143 395 -174 b 181 -67 227 -174 183 -138 l 69 -67 b 133 -212 69 -130 91 -178 b 310 -264 176 -247 235 -264 z "},"₄":{"ha":639,"x_min":0,"x_max":0,"o":"m 464 -242 l 464 -106 l 569 -108 l 569 -22 l 464 -25 l 464 351 l 350 351 l 69 -15 l 69 -108 l 357 -106 l 357 -242 z m 351 226 l 357 226 l 357 -25 l 164 -22 z "},"₅":{"ha":619,"x_min":0,"x_max":0,"o":"m 306 -265 b 485 -207 382 -265 442 -246 b 550 -56 528 -168 550 -118 b 493 88 550 4 531 52 b 333 143 455 125 402 143 b 200 107 280 143 235 131 l 197 110 l 222 260 l 506 260 l 506 351 l 146 351 l 86 38 l 197 14 b 307 57 223 43 260 57 b 404 25 349 57 381 46 b 439 -61 427 4 439 -25 b 404 -144 439 -96 427 -124 b 307 -174 381 -164 349 -174 b 181 -97 240 -174 198 -148 l 71 -121 b 306 -265 100 -217 179 -265 z "},"₆":{"ha":622,"x_min":0,"x_max":0,"o":"m 318 -264 b 490 -208 391 -264 449 -245 b 553 -57 532 -171 553 -121 b 494 88 553 4 533 52 b 338 140 456 123 403 140 b 174 76 265 140 211 119 b 322 274 180 208 230 274 b 431 211 374 274 410 253 l 536 240 b 458 331 521 279 495 309 b 324 364 421 353 376 364 b 135 278 241 364 178 335 b 69 35 91 222 69 140 b 132 -187 69 -62 90 -135 b 318 -264 174 -238 236 -264 z m 319 -175 b 224 -144 280 -175 248 -165 b 188 -56 200 -123 188 -94 b 224 24 188 -24 200 2 b 319 53 247 43 279 53 b 413 22 360 53 391 43 b 444 -61 434 1 444 -27 b 412 -144 444 -96 434 -124 b 319 -175 390 -165 359 -175 z "},"₇":{"ha":529,"x_min":0,"x_max":0,"o":"m 246 -242 b 322 56 257 -123 282 -24 b 494 264 361 135 419 205 l 494 351 l 35 351 l 35 260 l 363 260 b 133 -242 231 142 155 -25 z "},"₈":{"ha":633,"x_min":0,"x_max":0,"o":"m 500 -206 b 567 -72 544 -174 567 -130 b 534 23 567 -35 556 -3 b 443 78 512 49 482 68 l 443 81 b 536 208 505 104 536 146 b 477 322 536 256 516 294 b 317 364 438 350 384 364 b 156 322 249 364 196 350 b 97 208 117 294 97 256 b 190 81 97 146 128 104 l 190 78 b 100 22 152 68 122 49 b 67 -72 78 -5 67 -36 b 133 -206 67 -130 89 -174 b 317 -254 179 -238 240 -254 b 500 -206 394 -254 455 -238 z m 204 199 b 317 279 204 252 242 279 b 429 199 392 279 429 252 b 317 115 429 143 392 115 b 204 199 242 115 204 143 z m 179 -67 b 317 33 179 0 225 33 b 454 -67 408 33 454 0 b 317 -169 454 -135 408 -169 b 179 -67 225 -169 179 -135 z "},"₉":{"ha":622,"x_min":0,"x_max":0,"o":"m 299 -264 b 488 -178 381 -264 444 -235 b 553 65 531 -122 553 -40 b 490 287 553 162 532 235 b 304 364 449 338 387 364 b 132 308 231 364 174 345 b 69 157 90 271 69 221 b 128 13 69 96 89 48 b 285 -40 167 -23 219 -40 b 449 24 357 -40 412 -19 b 300 -174 442 -108 393 -174 b 192 -111 248 -174 212 -153 l 86 -140 b 164 -231 101 -179 127 -209 b 299 -264 201 -253 246 -264 z m 211 78 b 178 161 189 98 178 126 b 210 244 178 196 189 224 b 303 275 232 265 263 275 b 399 244 343 275 375 265 b 435 156 423 223 435 194 b 399 78 435 123 423 97 b 303 47 375 57 344 47 b 211 78 262 47 231 57 z "},"₊":{"ha":732,"x_min":0,"x_max":0,"o":"m 415 88 l 415 294 l 319 294 l 319 88 l 81 88 l 81 0 l 319 0 l 319 -208 l 415 -208 l 415 0 l 654 0 l 654 88 z "},"₋":{"ha":718,"x_min":0,"x_max":0,"o":"m 640 -4 l 640 85 l 81 85 l 81 -4 z "},"₌":{"ha":718,"x_min":0,"x_max":0,"o":"m 640 108 l 640 196 l 81 196 l 81 108 z m 640 -112 l 640 -24 l 81 -24 l 81 -112 z "},"₍":{"ha":424,"x_min":0,"x_max":0,"o":"m 346 -429 b 193 3 244 -298 193 -154 b 346 443 193 167 244 313 l 244 443 b 89 3 141 317 89 170 b 244 -429 89 -158 141 -302 z "},"₎":{"ha":424,"x_min":0,"x_max":0,"o":"m 179 -429 b 335 3 283 -302 335 -158 b 179 443 335 170 283 317 l 78 443 b 231 3 180 314 231 168 b 78 -429 231 -156 180 -300 z "},"ₙ":{"ha":678,"x_min":0,"x_max":0,"o":"m 386 242 b 215 147 307 242 250 210 l 213 231 l 111 231 l 111 -242 l 215 -242 l 215 8 b 252 108 215 50 228 83 b 351 146 277 133 310 146 b 461 36 425 146 461 109 l 461 -242 l 567 -242 l 567 58 b 519 194 567 117 551 162 b 386 242 488 226 444 242 z "},"€":{"ha":889,"x_min":0,"x_max":0,"o":"m 668 892 b 858 851 733 892 796 878 l 858 972 b 660 1007 797 995 731 1007 b 383 920 550 1007 458 978 b 226 681 307 862 255 782 l 31 681 l 31 568 l 206 568 b 203 497 204 525 203 502 b 206 431 203 492 204 469 l 31 431 l 31 318 l 225 318 b 380 67 253 211 304 127 b 661 -24 455 6 549 -24 b 858 10 733 -24 799 -12 l 858 131 b 664 92 797 105 732 92 b 471 151 586 92 522 112 b 360 318 420 191 383 247 l 858 318 l 858 431 l 338 431 b 335 497 336 469 335 492 b 339 568 335 522 336 546 l 858 568 l 858 681 l 364 681 b 479 836 389 747 427 799 b 668 892 531 873 594 892 z "},"₸":{"ha":888,"x_min":0,"x_max":0,"o":"m 49 876 l 839 876 l 839 989 l 49 989 z m 379 626 l 379 0 l 508 0 l 508 626 l 839 626 l 839 739 l 49 739 l 49 626 z "},"₹":{"ha":889,"x_min":0,"x_max":0,"o":"m 56 989 l 56 878 l 267 878 b 384 849 319 878 358 868 b 433 757 410 830 427 800 l 56 757 l 56 646 l 432 646 b 381 553 425 603 408 572 b 267 525 355 534 317 525 l 56 525 l 56 413 l 242 413 b 365 383 297 413 338 403 b 428 275 392 363 413 327 l 504 0 l 639 0 l 553 301 b 494 418 538 352 518 391 b 396 471 469 445 437 463 b 502 534 438 482 473 503 b 561 646 531 565 551 602 l 833 646 l 833 757 l 564 757 b 493 878 555 807 531 847 l 833 878 l 833 989 z "},"₺":{"ha":889,"x_min":0,"x_max":0,"o":"m 726 342 b 425 117 700 192 599 117 l 367 117 l 367 383 l 657 535 l 657 657 l 367 506 l 367 646 l 657 797 l 657 919 l 367 768 l 367 989 l 239 989 l 239 701 l 46 600 l 46 478 l 239 579 l 239 439 l 46 338 l 46 215 l 239 317 l 239 0 l 425 0 b 713 89 543 0 638 30 b 844 342 787 148 831 232 z "},"₼":{"ha":889,"x_min":0,"x_max":0,"o":"m 508 989 l 381 989 l 381 729 b 144 643 271 728 192 700 b 71 381 95 587 71 499 l 71 0 l 199 0 l 199 390 b 240 562 199 470 212 527 b 381 624 267 597 314 617 l 381 154 l 508 154 l 508 624 b 650 563 575 618 622 598 b 692 390 678 527 692 470 l 692 0 l 819 0 l 819 381 b 744 640 819 496 794 583 b 508 729 693 698 615 727 z "},"₿":{"ha":889,"x_min":0,"x_max":0,"o":"m 842 288 b 653 532 842 413 779 495 b 796 747 748 571 796 643 b 743 901 796 810 778 862 b 593 981 708 941 658 968 l 593 1176 l 483 1176 l 483 989 l 358 989 l 358 1176 l 249 1176 l 249 989 l 88 989 l 88 0 l 249 0 l 249 -200 l 358 -200 l 358 0 l 483 0 l 483 -200 l 593 -200 l 593 6 b 777 98 673 19 734 49 b 842 288 820 147 842 210 z m 490 876 b 664 729 606 876 664 827 b 616 611 664 678 648 639 b 478 569 584 583 538 569 l 217 569 l 217 876 z m 217 113 l 217 461 l 506 461 b 710 288 642 461 710 403 b 506 113 710 171 642 113 z "},"℅":{"ha":1621,"x_min":0,"x_max":0,"o":"m 574 -21 l 1193 1010 l 1067 1010 l 444 -21 z m 369 506 b 526 549 432 506 484 520 b 604 669 567 578 593 619 l 503 678 b 374 594 486 622 443 594 b 226 756 275 594 226 648 b 374 915 226 862 275 915 b 503 835 443 915 486 888 l 604 843 b 525 960 593 892 567 931 b 368 1004 483 990 431 1004 b 185 937 291 1004 230 982 b 118 757 141 892 118 832 b 186 574 118 681 141 620 b 369 506 231 528 293 506 z m 1253 -22 b 1433 47 1327 -22 1387 1 b 1503 228 1480 94 1503 154 b 1433 410 1503 301 1480 362 b 1253 479 1387 456 1327 479 b 1071 410 1178 479 1117 456 b 1001 228 1025 362 1001 301 b 1071 49 1001 155 1025 95 b 1253 -22 1116 1 1177 -22 z m 1253 67 b 1146 108 1206 67 1171 80 b 1108 228 1121 135 1108 175 b 1146 349 1108 281 1121 322 b 1253 390 1171 377 1206 390 b 1394 228 1347 390 1394 336 b 1358 108 1394 175 1382 135 b 1253 67 1333 80 1298 67 z "},"ℓ":{"ha":704,"x_min":0,"x_max":0,"o":"m 558 156 b 436 89 524 111 483 89 b 354 175 381 89 354 118 l 354 343 b 561 501 450 385 519 437 b 625 746 604 564 625 646 b 575 944 625 837 608 903 b 421 1007 542 986 490 1007 b 226 813 291 1007 226 942 l 226 396 l 56 331 l 101 226 l 226 286 l 226 168 b 278 27 226 107 244 60 b 424 -22 313 -6 362 -22 b 633 74 509 -22 579 10 z m 425 896 b 508 738 481 896 508 843 b 473 571 508 669 497 613 b 354 457 449 528 410 490 l 354 804 b 425 896 354 865 378 896 z "},"№":{"ha":1663,"x_min":0,"x_max":0,"o":"m 1343 1007 b 1161 938 1268 1007 1207 984 b 1092 756 1115 889 1092 829 b 1161 576 1092 682 1115 623 b 1343 506 1207 529 1268 506 b 1523 575 1416 506 1476 529 b 1593 756 1570 621 1593 681 b 1524 938 1593 829 1570 889 b 1343 1007 1477 984 1417 1007 z m 261 989 l 118 989 l 118 0 l 240 0 l 240 803 l 757 0 l 904 0 l 904 989 l 782 989 l 782 182 z m 1343 594 b 1236 635 1297 594 1261 608 b 1199 756 1211 663 1199 703 b 1236 877 1199 809 1211 850 b 1343 918 1261 904 1297 918 b 1485 756 1438 918 1485 864 b 1448 635 1485 703 1472 663 b 1343 594 1423 608 1388 594 z "},"℗":{"ha":1222,"x_min":0,"x_max":0,"o":"m 236 867 b 89 494 138 769 89 645 b 238 124 89 344 138 221 b 611 -24 336 25 460 -24 b 986 124 763 -24 888 25 b 1133 494 1084 221 1133 344 b 986 867 1133 645 1084 769 b 611 1013 888 964 763 1013 b 236 867 459 1013 334 964 z m 611 63 b 306 185 486 63 384 103 b 185 494 225 265 185 369 b 306 804 185 619 225 723 b 611 925 385 885 487 925 b 918 804 735 925 838 885 b 1038 494 998 722 1038 619 b 918 185 1038 369 998 266 b 611 63 839 103 737 63 z m 443 760 l 443 236 l 540 236 l 540 419 l 656 419 b 785 467 708 419 751 435 b 835 590 818 498 835 539 b 788 713 835 640 819 681 b 663 760 756 744 714 760 z m 540 501 l 540 678 l 646 678 b 738 590 707 678 738 649 b 643 501 738 531 706 501 z "},"™":{"ha":1374,"x_min":0,"x_max":0,"o":"m 326 458 l 326 908 l 488 908 l 488 989 l 69 989 l 69 908 l 231 908 l 231 458 z m 731 458 l 731 939 l 750 939 l 867 458 l 1033 458 l 1146 939 l 1165 939 l 1165 458 l 1263 458 l 1263 989 l 1071 989 l 958 508 l 942 508 l 824 989 l 640 989 l 640 458 z "},"Ω":{"ha":1139,"x_min":0,"x_max":0,"o":"m 496 0 l 496 100 b 232 533 320 197 232 342 b 323 799 232 649 262 738 b 571 892 384 861 466 892 b 815 799 675 892 756 861 b 903 533 873 738 903 649 b 644 100 903 339 817 194 l 644 0 l 1050 0 l 1050 111 l 814 111 l 814 114 b 978 293 885 160 940 220 b 1035 533 1016 366 1035 446 b 908 881 1035 681 993 796 b 571 1007 824 965 712 1007 b 231 881 429 1007 316 965 b 100 533 144 796 100 681 b 158 294 100 446 119 366 b 325 114 197 221 253 161 l 325 111 l 89 111 l 89 0 z "},"℮":{"ha":1258,"x_min":0,"x_max":0,"o":"m 629 1006 b 222 860 460 1006 324 957 b 69 492 120 763 69 640 b 224 125 69 344 121 221 b 629 -18 325 30 461 -18 b 901 38 732 -18 822 0 b 1079 179 979 75 1038 122 l 978 179 b 825 63 938 130 887 91 b 629 19 763 34 698 19 b 299 153 499 19 388 64 b 276 217 284 167 276 188 l 276 460 b 296 478 276 472 283 478 l 1189 478 b 1125 740 1189 574 1168 662 b 928 933 1081 821 1016 885 b 629 1006 841 981 741 1006 z m 629 967 b 957 831 755 967 864 921 b 979 771 972 817 979 797 l 979 528 b 960 510 979 516 973 510 l 296 510 b 276 528 283 510 276 516 l 276 771 b 299 831 276 797 284 817 b 629 967 389 921 500 967 z "},"⅓":{"ha":1515,"x_min":0,"x_max":0,"o":"m 368 446 l 368 1039 l 279 1039 l 275 1014 b 167 940 267 965 231 940 l 118 940 l 118 858 l 261 858 l 261 446 z m 421 -21 l 1040 1010 l 914 1010 l 292 -21 z m 1158 -22 b 1332 28 1231 -22 1288 -6 b 1397 158 1375 61 1397 105 b 1367 251 1397 194 1387 225 b 1282 306 1346 277 1318 295 l 1282 308 b 1351 356 1312 317 1335 332 b 1376 439 1368 379 1376 406 b 1315 560 1376 490 1356 530 b 1149 606 1275 591 1219 606 b 981 557 1078 606 1022 589 b 919 422 940 525 919 480 l 1031 422 b 1150 515 1034 484 1074 515 b 1265 429 1227 515 1265 487 b 1161 347 1265 375 1231 347 l 1107 347 l 1107 251 l 1161 251 b 1286 161 1244 251 1286 221 b 1160 68 1286 99 1244 68 b 1029 175 1075 68 1032 104 l 918 175 b 982 29 918 112 939 63 b 1158 -22 1025 -5 1083 -22 z "},"⅔":{"ha":1713,"x_min":0,"x_max":0,"o":"m 576 446 l 576 542 l 249 542 b 278 596 252 564 262 582 b 358 644 294 610 320 626 l 431 679 b 542 760 481 703 519 730 b 578 867 566 789 578 825 b 517 1002 578 924 557 969 b 353 1051 476 1035 421 1051 b 188 997 281 1051 227 1033 b 128 843 150 960 130 909 l 239 843 b 267 930 241 883 250 912 b 353 957 283 948 312 957 b 467 867 429 957 467 927 b 382 761 467 824 438 789 l 264 704 b 118 446 167 657 118 571 z m 618 -21 l 1238 1010 l 1111 1010 l 489 -21 z m 1356 -22 b 1529 28 1428 -22 1486 -6 b 1594 158 1573 61 1594 105 b 1564 251 1594 194 1584 225 b 1479 306 1544 277 1515 295 l 1479 308 b 1549 356 1509 317 1532 332 b 1574 439 1565 379 1574 406 b 1513 560 1574 490 1553 530 b 1346 606 1472 591 1416 606 b 1178 557 1275 606 1220 589 b 1117 422 1137 525 1117 480 l 1228 422 b 1347 515 1231 484 1271 515 b 1463 429 1424 515 1463 487 b 1358 347 1463 375 1428 347 l 1304 347 l 1304 251 l 1358 251 b 1483 161 1442 251 1483 221 b 1357 68 1483 99 1441 68 b 1226 175 1273 68 1229 104 l 1115 175 b 1179 29 1115 112 1137 63 b 1356 -22 1222 -5 1281 -22 z "},"⅕":{"ha":1536,"x_min":0,"x_max":0,"o":"m 368 446 l 368 1039 l 279 1039 l 275 1014 b 167 940 267 965 231 940 l 118 940 l 118 858 l 261 858 l 261 446 z m 421 -21 l 1040 1010 l 914 1010 l 292 -21 z m 1174 -24 b 1353 35 1250 -24 1310 -4 b 1418 186 1397 74 1418 124 b 1361 330 1418 245 1399 293 b 1201 385 1323 366 1270 385 b 1068 349 1148 385 1103 373 l 1065 351 l 1090 501 l 1374 501 l 1374 593 l 1014 593 l 954 279 l 1065 256 b 1175 299 1091 284 1128 299 b 1272 267 1217 299 1249 288 b 1307 181 1295 245 1307 217 b 1272 98 1307 145 1295 118 b 1175 68 1249 78 1217 68 b 1049 144 1108 68 1066 94 l 939 121 b 1174 -24 969 25 1047 -24 z "},"⅖":{"ha":1707,"x_min":0,"x_max":0,"o":"m 576 446 l 576 542 l 249 542 b 278 596 252 564 262 582 b 358 644 294 610 320 626 l 431 679 b 542 760 481 703 519 730 b 578 867 566 789 578 825 b 517 1002 578 924 557 969 b 353 1051 476 1035 421 1051 b 188 997 281 1051 227 1033 b 128 843 150 960 130 909 l 239 843 b 267 930 241 883 250 912 b 353 957 283 948 312 957 b 467 867 429 957 467 927 b 382 761 467 824 438 789 l 264 704 b 118 446 167 657 118 571 z m 592 -21 l 1211 1010 l 1085 1010 l 463 -21 z m 1344 -24 b 1524 35 1421 -24 1481 -4 b 1589 186 1567 74 1589 124 b 1532 330 1589 245 1570 293 b 1372 385 1494 366 1441 385 b 1239 349 1319 385 1274 373 l 1236 351 l 1261 501 l 1544 501 l 1544 593 l 1185 593 l 1125 279 l 1236 256 b 1346 299 1262 284 1299 299 b 1443 267 1388 299 1420 288 b 1478 181 1466 245 1478 217 b 1443 98 1478 145 1466 118 b 1346 68 1420 78 1388 68 b 1219 144 1279 68 1237 94 l 1110 121 b 1344 -24 1139 25 1218 -24 z "},"⅗":{"ha":1682,"x_min":0,"x_max":0,"o":"m 358 424 b 532 474 431 424 488 440 b 597 604 575 507 597 550 b 567 697 597 640 587 671 b 482 751 546 723 518 741 l 482 754 b 551 801 512 763 535 778 b 576 885 568 825 576 852 b 515 1006 576 936 556 976 b 349 1051 475 1036 419 1051 b 181 1003 278 1051 222 1035 b 119 868 140 970 119 925 l 231 868 b 350 961 234 930 274 961 b 465 875 427 961 465 932 b 361 793 465 820 431 793 l 307 793 l 307 697 l 361 697 b 486 607 444 697 486 667 b 360 514 486 545 444 514 b 229 621 275 514 232 550 l 118 621 b 182 475 118 558 139 509 b 358 424 225 441 283 424 z m 567 -21 l 1186 1010 l 1060 1010 l 438 -21 z m 1319 -24 b 1499 35 1396 -24 1456 -4 b 1564 186 1542 74 1564 124 b 1507 330 1564 245 1545 293 b 1347 385 1469 366 1416 385 b 1214 349 1294 385 1249 373 l 1211 351 l 1236 501 l 1519 501 l 1519 593 l 1160 593 l 1100 279 l 1211 256 b 1321 299 1237 284 1274 299 b 1418 267 1363 299 1395 288 b 1453 181 1441 245 1453 217 b 1418 98 1453 145 1441 118 b 1321 68 1395 78 1363 68 b 1194 144 1254 68 1212 94 l 1085 121 b 1319 -24 1114 25 1193 -24 z "},"⅘":{"ha":1735,"x_min":0,"x_max":0,"o":"m 513 446 l 513 582 l 618 579 l 618 665 l 513 663 l 513 1039 l 399 1039 l 118 672 l 118 579 l 406 582 l 406 446 z m 619 -21 l 1239 1010 l 1113 1010 l 490 -21 z m 400 914 l 406 914 l 406 663 l 213 665 z m 1372 -24 b 1552 35 1449 -24 1509 -4 b 1617 186 1595 74 1617 124 b 1560 330 1617 245 1598 293 b 1400 385 1522 366 1469 385 b 1267 349 1346 385 1302 373 l 1264 351 l 1289 501 l 1572 501 l 1572 593 l 1213 593 l 1153 279 l 1264 256 b 1374 299 1290 284 1326 299 b 1471 267 1415 299 1448 288 b 1506 181 1494 245 1506 217 b 1471 98 1506 145 1494 118 b 1374 68 1448 78 1415 68 b 1247 144 1307 68 1265 94 l 1138 121 b 1372 -24 1167 25 1245 -24 z "},"⅙":{"ha":1482,"x_min":0,"x_max":0,"o":"m 368 446 l 368 1039 l 279 1039 l 275 1014 b 167 940 267 965 231 940 l 118 940 l 118 858 l 261 858 l 261 446 z m 421 -21 l 1040 1010 l 914 1010 l 292 -21 z m 1129 -22 b 1301 33 1202 -22 1260 -4 b 1364 185 1343 70 1364 121 b 1306 329 1364 246 1344 294 b 1149 382 1267 364 1214 382 b 985 318 1076 382 1022 361 b 1133 515 991 450 1041 515 b 1242 453 1185 515 1221 494 l 1347 482 b 1269 573 1332 521 1306 551 b 1135 606 1232 595 1188 606 b 946 520 1052 606 989 577 b 881 276 902 463 881 382 b 943 55 881 180 901 106 b 1129 -22 985 3 1047 -22 z m 1131 67 b 1035 98 1091 67 1059 77 b 999 186 1011 119 999 148 b 1035 265 999 218 1011 244 b 1131 294 1058 285 1090 294 b 1224 264 1171 294 1202 284 b 1256 181 1245 243 1256 215 b 1223 97 1256 145 1245 118 b 1131 67 1201 77 1170 67 z "},"⅚":{"ha":1619,"x_min":0,"x_max":0,"o":"m 353 422 b 533 481 430 422 490 442 b 597 632 576 519 597 570 b 540 776 597 691 578 739 b 381 831 502 812 449 831 b 247 794 327 831 282 819 l 244 797 l 269 947 l 553 947 l 553 1039 l 193 1039 l 133 725 l 244 701 b 354 744 270 730 307 744 b 451 713 396 744 428 734 b 486 626 475 691 486 663 b 451 544 486 591 475 564 b 354 514 428 524 396 514 b 228 590 288 514 245 539 l 118 567 b 353 422 148 470 226 422 z m 558 -21 l 1178 1010 l 1051 1010 l 429 -21 z m 1267 -22 b 1439 33 1340 -22 1397 -4 b 1501 185 1481 70 1501 121 b 1443 329 1501 246 1482 294 b 1286 382 1404 364 1352 382 b 1122 318 1214 382 1159 361 b 1271 515 1129 450 1178 515 b 1379 453 1322 515 1358 494 l 1485 482 b 1407 573 1470 521 1444 551 b 1272 606 1370 595 1325 606 b 1083 520 1190 606 1127 577 b 1018 276 1040 463 1018 382 b 1081 55 1018 180 1039 106 b 1267 -22 1122 3 1184 -22 z m 1268 67 b 1172 98 1228 67 1196 77 b 1136 186 1148 119 1136 148 b 1172 265 1136 218 1148 244 b 1268 294 1196 285 1228 294 b 1361 264 1309 294 1340 284 b 1393 181 1382 243 1393 215 b 1360 97 1393 145 1382 118 b 1268 67 1339 77 1308 67 z "},"⅛":{"ha":1514,"x_min":0,"x_max":0,"o":"m 368 446 l 368 1039 l 279 1039 l 275 1014 b 167 940 267 965 231 940 l 118 940 l 118 858 l 261 858 l 261 446 z m 421 -21 l 1040 1010 l 914 1010 l 292 -21 z m 1329 36 b 1396 169 1374 68 1396 112 b 1363 265 1396 206 1385 238 b 1272 319 1341 291 1311 309 l 1272 322 b 1365 450 1334 345 1365 388 b 1306 564 1365 498 1346 536 b 1146 606 1267 592 1213 606 b 985 564 1078 606 1025 592 b 926 450 946 536 926 498 b 1019 322 926 388 957 345 l 1019 319 b 929 264 981 309 951 291 b 896 169 907 237 896 206 b 963 36 896 112 918 68 b 1146 -12 1008 4 1069 -12 b 1329 36 1223 -12 1284 4 z m 1033 440 b 1146 521 1033 494 1071 521 b 1258 440 1221 521 1258 494 b 1146 357 1258 385 1221 357 b 1033 440 1071 357 1033 385 z m 1008 175 b 1146 275 1008 242 1054 275 b 1283 175 1238 275 1283 242 b 1146 72 1283 106 1238 72 b 1008 175 1054 72 1008 106 z "},"⅜":{"ha":1660,"x_min":0,"x_max":0,"o":"m 358 424 b 532 474 431 424 488 440 b 597 604 575 507 597 550 b 567 697 597 640 587 671 b 482 751 546 723 518 741 l 482 754 b 551 801 512 763 535 778 b 576 885 568 825 576 852 b 515 1006 576 936 556 976 b 349 1051 475 1036 419 1051 b 181 1003 278 1051 222 1035 b 119 868 140 970 119 925 l 231 868 b 350 961 234 930 274 961 b 465 875 427 961 465 932 b 361 793 465 820 431 793 l 307 793 l 307 697 l 361 697 b 486 607 444 697 486 667 b 360 514 486 545 444 514 b 229 621 275 514 232 550 l 118 621 b 182 475 118 558 139 509 b 358 424 225 441 283 424 z m 567 -21 l 1186 1010 l 1060 1010 l 438 -21 z m 1475 36 b 1542 169 1519 68 1542 112 b 1509 265 1542 206 1531 238 b 1418 319 1487 291 1457 309 l 1418 322 b 1511 450 1480 345 1511 388 b 1452 564 1511 498 1491 536 b 1292 606 1413 592 1359 606 b 1131 564 1224 606 1171 592 b 1072 450 1092 536 1072 498 b 1165 322 1072 388 1103 345 l 1165 319 b 1075 264 1127 309 1097 291 b 1042 169 1053 237 1042 206 b 1108 36 1042 112 1064 68 b 1292 -12 1154 4 1215 -12 b 1475 36 1369 -12 1430 4 z m 1179 440 b 1292 521 1179 494 1217 521 b 1404 440 1367 521 1404 494 b 1292 357 1404 385 1367 357 b 1179 440 1217 357 1179 385 z m 1154 175 b 1292 275 1154 242 1200 275 b 1429 175 1383 275 1429 242 b 1292 72 1429 106 1383 72 b 1154 175 1200 72 1154 106 z "},"⅝":{"ha":1651,"x_min":0,"x_max":0,"o":"m 353 422 b 533 481 430 422 490 442 b 597 632 576 519 597 570 b 540 776 597 691 578 739 b 381 831 502 812 449 831 b 247 794 327 831 282 819 l 244 797 l 269 947 l 553 947 l 553 1039 l 193 1039 l 133 725 l 244 701 b 354 744 270 730 307 744 b 451 713 396 744 428 734 b 486 626 475 691 486 663 b 451 544 486 591 475 564 b 354 514 428 524 396 514 b 228 590 288 514 245 539 l 118 567 b 353 422 148 470 226 422 z m 558 -21 l 1178 1010 l 1051 1010 l 429 -21 z m 1467 36 b 1533 169 1511 68 1533 112 b 1501 265 1533 206 1522 238 b 1410 319 1479 291 1449 309 l 1410 322 b 1503 450 1472 345 1503 388 b 1444 564 1503 498 1483 536 b 1283 606 1404 592 1351 606 b 1123 564 1216 606 1162 592 b 1064 450 1084 536 1064 498 b 1157 322 1064 388 1095 345 l 1157 319 b 1067 264 1119 309 1089 291 b 1033 169 1044 237 1033 206 b 1100 36 1033 112 1056 68 b 1283 -12 1145 4 1206 -12 b 1467 36 1360 -12 1421 4 z m 1171 440 b 1283 521 1171 494 1208 521 b 1396 440 1358 521 1396 494 b 1283 357 1396 385 1358 357 b 1171 440 1208 357 1171 385 z m 1146 175 b 1283 275 1146 242 1192 275 b 1421 175 1375 275 1421 242 b 1283 72 1421 106 1375 72 b 1146 175 1192 72 1146 106 z "},"⅞":{"ha":1517,"x_min":0,"x_max":0,"o":"m 329 446 b 405 743 340 564 366 663 b 578 951 444 823 502 892 l 578 1039 l 118 1039 l 118 947 l 446 947 b 217 446 314 830 238 663 z m 424 -21 l 1043 1010 l 917 1010 l 294 -21 z m 1332 36 b 1399 169 1376 68 1399 112 b 1366 265 1399 206 1388 238 b 1275 319 1344 291 1314 309 l 1275 322 b 1368 450 1337 345 1368 388 b 1309 564 1368 498 1348 536 b 1149 606 1270 592 1216 606 b 988 564 1081 606 1028 592 b 929 450 949 536 929 498 b 1022 322 929 388 960 345 l 1022 319 b 932 264 984 309 954 291 b 899 169 910 237 899 206 b 965 36 899 112 921 68 b 1149 -12 1011 4 1072 -12 b 1332 36 1225 -12 1287 4 z m 1036 440 b 1149 521 1036 494 1074 521 b 1261 440 1224 521 1261 494 b 1149 357 1261 385 1224 357 b 1036 440 1074 357 1036 385 z m 1011 175 b 1149 275 1011 242 1057 275 b 1286 175 1240 275 1286 242 b 1149 72 1286 106 1240 72 b 1011 175 1057 72 1011 106 z "},"←":{"ha":1189,"x_min":0,"x_max":0,"o":"m 282 558 l 439 760 l 611 989 l 463 989 l 89 494 l 463 0 l 611 0 l 439 229 l 282 431 l 1100 431 l 1100 558 z "},"↑":{"ha":1128,"x_min":0,"x_max":0,"o":"m 69 638 l 69 489 l 299 661 l 500 821 l 500 0 l 628 0 l 628 819 l 829 661 l 1058 489 l 1058 638 l 564 1011 z "},"→":{"ha":1189,"x_min":0,"x_max":0,"o":"m 578 989 l 750 760 l 907 558 l 89 558 l 89 431 l 907 431 l 750 229 l 578 0 l 726 0 l 1100 494 l 726 989 z "},"↓":{"ha":1128,"x_min":0,"x_max":0,"o":"m 628 171 l 628 989 l 500 989 l 500 171 l 299 328 l 69 500 l 69 351 l 564 -22 l 1058 351 l 1058 500 l 829 328 z "},"↔":{"ha":1635,"x_min":0,"x_max":0,"o":"m 1024 989 l 1196 760 l 1353 558 l 282 558 l 439 760 l 611 989 l 463 989 l 89 494 l 463 0 l 611 0 l 439 229 l 282 431 l 1353 431 l 1196 229 l 1024 0 l 1172 0 l 1546 494 l 1172 989 z "},"↕":{"ha":1128,"x_min":0,"x_max":0,"o":"m 1058 725 l 1058 874 l 564 1247 l 69 874 l 69 725 l 299 897 l 500 1054 l 500 -18 l 299 139 l 69 311 l 69 163 l 564 -211 l 1058 163 l 1058 311 l 829 139 l 628 -18 l 628 1054 l 829 897 z "},"↖":{"ha":1008,"x_min":0,"x_max":0,"o":"m 271 807 l 543 800 l 936 800 l 936 928 l 56 928 l 56 47 l 185 47 l 185 454 l 178 715 l 889 0 l 981 92 z "},"↗":{"ha":1008,"x_min":0,"x_max":0,"o":"m 72 800 l 465 800 l 738 807 l 28 92 l 119 0 l 831 715 l 824 454 l 824 47 l 953 47 l 953 928 l 72 928 z "},"↘":{"ha":1008,"x_min":0,"x_max":0,"o":"m 824 474 l 831 213 l 119 928 l 28 836 l 738 121 l 465 128 l 72 128 l 72 0 l 953 0 l 953 881 l 824 881 z "},"↙":{"ha":1008,"x_min":0,"x_max":0,"o":"m 981 836 l 889 928 l 178 213 l 185 474 l 185 881 l 56 881 l 56 0 l 936 0 l 936 128 l 543 128 l 271 121 z "},"∂":{"ha":817,"x_min":0,"x_max":0,"o":"m 378 1001 b 154 951 300 1001 225 985 l 197 849 b 369 890 255 876 312 890 b 534 808 443 890 497 863 b 599 540 571 754 592 664 b 389 615 538 590 469 615 b 170 530 297 615 224 587 b 89 299 116 473 89 396 b 170 69 89 203 116 127 b 392 -17 224 12 298 -17 b 728 499 616 -17 728 155 b 378 1001 728 834 611 1001 z m 397 92 b 265 147 341 92 297 110 b 217 300 233 183 217 234 b 265 454 217 367 233 418 b 399 508 298 490 342 508 b 599 396 483 508 550 471 b 540 165 592 290 573 213 b 397 92 508 116 460 92 z "},"∆":{"ha":994,"x_min":0,"x_max":0,"o":"m 425 989 l 42 0 l 953 0 l 571 989 z m 467 778 l 500 876 l 532 778 l 769 113 l 221 113 z "},"∏":{"ha":1018,"x_min":0,"x_max":0,"o":"m 118 989 l 118 -283 l 247 -283 l 247 871 l 771 871 l 771 -283 l 900 -283 l 900 989 z "},"∑":{"ha":943,"x_min":0,"x_max":0,"o":"m 654 360 l 271 867 l 838 867 l 838 989 l 107 989 l 107 881 l 503 360 l 89 -175 l 89 -283 l 854 -283 l 854 -161 l 253 -161 z "},"−":{"ha":889,"x_min":0,"x_max":0,"o":"m 813 375 l 813 486 l 78 486 l 78 375 z "},"∕":{"ha":493,"x_min":0,"x_max":0,"o":"m 1 -21 l 621 1010 l 494 1010 l -128 -21 z "},"∙":{"ha":494,"x_min":0,"x_max":0,"o":"m 383 264 l 383 507 l 111 507 l 111 264 z "},"√":{"ha":889,"x_min":0,"x_max":0,"o":"m 594 -283 l 867 1038 l 743 1038 l 492 -179 l 325 288 l 76 196 l 114 92 l 251 144 l 410 -283 z "},"∞":{"ha":1083,"x_min":0,"x_max":0,"o":"m 283 251 b 403 285 326 251 366 263 b 542 400 440 307 486 345 b 799 249 631 299 717 249 b 954 313 863 249 914 270 b 1014 478 994 355 1014 410 b 953 640 1014 544 994 597 b 799 703 913 682 862 703 b 676 667 754 703 713 691 b 542 544 639 643 594 602 b 279 701 447 649 360 701 b 128 638 218 701 168 680 b 69 475 89 596 69 542 b 128 314 69 409 89 356 b 283 251 167 272 219 251 z m 803 353 b 608 472 742 353 677 393 b 797 599 682 556 745 599 b 880 565 832 599 860 588 b 910 474 900 543 910 513 b 881 385 910 437 900 407 b 803 353 861 364 835 353 z m 283 356 b 203 388 250 356 223 366 b 174 474 184 410 174 438 b 203 563 174 510 183 539 b 279 597 222 586 248 597 b 474 472 334 597 399 556 b 283 356 407 394 344 356 z "},"∫":{"ha":889,"x_min":0,"x_max":0,"o":"m 293 -283 b 457 -232 368 -283 423 -266 b 508 -68 491 -198 508 -143 l 508 840 b 528 911 508 875 515 898 b 599 931 541 924 564 931 l 631 931 l 631 1038 l 596 1038 b 432 986 521 1038 466 1020 b 381 822 398 952 381 897 l 381 -86 b 361 -157 381 -120 374 -144 b 290 -176 348 -170 325 -176 l 258 -176 l 258 -283 z "},"≈":{"ha":889,"x_min":0,"x_max":0,"o":"m 197 492 b 281 626 197 581 225 626 b 426 560 319 626 367 604 b 607 492 483 514 543 492 b 750 556 667 492 715 513 b 803 736 785 598 803 658 l 692 736 b 608 603 692 647 664 603 b 524 635 589 601 561 612 b 402 704 487 658 446 681 b 282 736 358 727 318 738 b 139 673 222 736 174 715 b 86 492 104 631 86 570 z m 197 144 b 281 279 197 234 225 279 b 426 213 319 279 367 257 b 607 144 483 167 543 144 b 750 208 667 144 715 166 b 803 389 785 251 803 311 l 692 389 b 608 256 692 300 664 256 b 524 288 589 254 561 264 b 402 357 487 311 446 334 b 282 389 358 380 318 391 b 139 326 222 389 174 368 b 86 144 104 284 86 223 z "},"≠":{"ha":889,"x_min":0,"x_max":0,"o":"m 813 638 l 600 638 l 706 875 l 624 906 l 504 638 l 78 638 l 78 526 l 454 526 l 368 333 l 78 333 l 78 222 l 319 222 l 213 -17 l 294 -47 l 414 222 l 813 222 l 813 333 l 464 333 l 550 526 l 813 526 z "},"≤":{"ha":889,"x_min":0,"x_max":0,"o":"m 78 572 l 78 436 l 813 204 l 813 329 l 199 504 l 813 681 l 813 806 z m 813 0 l 813 111 l 78 111 l 78 0 z "},"≥":{"ha":889,"x_min":0,"x_max":0,"o":"m 78 681 l 692 504 l 78 329 l 78 204 l 813 436 l 813 572 l 78 806 z m 813 0 l 813 111 l 78 111 l 78 0 z "},"①":{"ha":1578,"x_min":0,"x_max":0,"o":"m 1290 43 b 1489 531 1423 173 1489 335 b 1290 1019 1489 727 1423 890 b 789 1213 1159 1148 992 1213 b 288 1019 586 1213 419 1148 b 89 531 155 890 89 727 b 288 43 89 335 155 173 b 789 -151 418 -87 585 -151 b 1290 43 993 -151 1160 -87 z m 378 122 b 214 531 269 229 214 365 b 378 940 214 695 269 832 b 789 1101 487 1048 624 1101 b 1201 940 954 1101 1091 1048 b 1364 531 1310 832 1364 695 b 1201 122 1364 366 1310 230 b 789 -40 1091 14 954 -40 b 378 122 623 -40 486 14 z m 872 232 l 872 825 l 783 825 l 779 800 b 671 726 771 751 735 726 l 622 726 l 622 644 l 765 644 l 765 232 z "},"②":{"ha":1578,"x_min":0,"x_max":0,"o":"m 1290 43 b 1489 531 1423 173 1489 335 b 1290 1019 1489 727 1423 890 b 789 1213 1159 1148 992 1213 b 288 1019 586 1213 419 1148 b 89 531 155 890 89 727 b 288 43 89 335 155 173 b 789 -151 418 -87 585 -151 b 1290 43 993 -151 1160 -87 z m 378 122 b 214 531 269 229 214 365 b 378 940 214 695 269 832 b 789 1101 487 1048 624 1101 b 1201 940 954 1101 1091 1048 b 1364 531 1310 832 1364 695 b 1201 122 1364 366 1310 230 b 789 -40 1091 14 954 -40 b 378 122 623 -40 486 14 z m 1024 250 l 1024 346 l 696 346 b 725 400 700 368 709 386 b 806 449 741 414 768 430 l 878 483 b 990 564 929 507 966 534 b 1025 671 1013 594 1025 629 b 964 806 1025 728 1005 773 b 800 856 923 839 869 856 b 635 801 729 856 674 837 b 575 647 597 764 577 713 l 686 647 b 714 734 688 687 697 716 b 800 761 731 752 759 761 b 914 671 876 761 914 731 b 829 565 914 628 886 593 l 711 508 b 565 250 614 461 565 375 z "},"③":{"ha":1578,"x_min":0,"x_max":0,"o":"m 1290 43 b 1489 531 1423 173 1489 335 b 1290 1019 1489 727 1423 890 b 789 1213 1159 1148 992 1213 b 288 1019 586 1213 419 1148 b 89 531 155 890 89 727 b 288 43 89 335 155 173 b 789 -151 418 -87 585 -151 b 1290 43 993 -151 1160 -87 z m 378 122 b 214 531 269 229 214 365 b 378 940 214 695 269 832 b 789 1101 487 1048 624 1101 b 1201 940 954 1101 1091 1048 b 1364 531 1310 832 1364 695 b 1201 122 1364 366 1310 230 b 789 -40 1091 14 954 -40 b 378 122 623 -40 486 14 z m 799 221 b 972 271 871 221 929 238 b 1038 401 1016 304 1038 348 b 1007 494 1038 438 1027 469 b 922 549 987 520 958 538 l 922 551 b 992 599 952 560 975 575 b 1017 682 1008 622 1017 650 b 956 803 1017 733 996 773 b 789 849 915 834 859 849 b 622 800 719 849 663 832 b 560 665 580 768 560 723 l 671 665 b 790 758 675 727 714 758 b 906 672 867 758 906 730 b 801 590 906 618 871 590 l 747 590 l 747 494 l 801 494 b 926 404 885 494 926 464 b 800 311 926 342 884 311 b 669 418 716 311 672 347 l 558 418 b 622 272 558 355 580 306 b 799 221 665 238 724 221 z "},"④":{"ha":1578,"x_min":0,"x_max":0,"o":"m 1290 43 b 1489 531 1423 173 1489 335 b 1290 1019 1489 727 1423 890 b 789 1213 1159 1148 992 1213 b 288 1019 586 1213 419 1148 b 89 531 155 890 89 727 b 288 43 89 335 155 173 b 789 -151 418 -87 585 -151 b 1290 43 993 -151 1160 -87 z m 378 122 b 214 531 269 229 214 365 b 378 940 214 695 269 832 b 789 1101 487 1048 624 1101 b 1201 940 954 1101 1091 1048 b 1364 531 1310 832 1364 695 b 1201 122 1364 366 1310 230 b 789 -40 1091 14 954 -40 b 378 122 623 -40 486 14 z m 926 250 l 926 386 l 1032 383 l 1032 469 l 926 467 l 926 843 l 813 843 l 532 476 l 532 383 l 819 386 l 819 250 z m 626 469 l 814 718 l 819 718 l 819 467 z "},"⑤":{"ha":1578,"x_min":0,"x_max":0,"o":"m 1290 43 b 1489 531 1423 173 1489 335 b 1290 1019 1489 727 1423 890 b 789 1213 1159 1148 992 1213 b 288 1019 586 1213 419 1148 b 89 531 155 890 89 727 b 288 43 89 335 155 173 b 789 -151 418 -87 585 -151 b 1290 43 993 -151 1160 -87 z m 378 122 b 214 531 269 229 214 365 b 378 940 214 695 269 832 b 789 1101 487 1048 624 1101 b 1201 940 954 1101 1091 1048 b 1364 531 1310 832 1364 695 b 1201 122 1364 366 1310 230 b 789 -40 1091 14 954 -40 b 378 122 623 -40 486 14 z m 794 221 b 974 279 871 221 931 240 b 1039 431 1017 318 1039 369 b 982 574 1039 490 1020 538 b 822 629 944 611 891 629 b 689 593 769 629 724 617 l 686 596 l 711 746 l 994 746 l 994 838 l 635 838 l 575 524 l 686 500 b 796 543 712 529 749 543 b 893 511 838 543 870 532 b 928 425 916 490 928 461 b 893 342 928 390 916 362 b 796 313 870 322 838 313 b 669 389 729 313 687 338 l 560 365 b 794 221 589 269 668 221 z "},"⑥":{"ha":1578,"x_min":0,"x_max":0,"o":"m 1290 43 b 1489 531 1423 173 1489 335 b 1290 1019 1489 727 1423 890 b 789 1213 1159 1148 992 1213 b 288 1019 586 1213 419 1148 b 89 531 155 890 89 727 b 288 43 89 335 155 173 b 789 -151 418 -87 585 -151 b 1290 43 993 -151 1160 -87 z m 378 122 b 214 531 269 229 214 365 b 378 940 214 695 269 832 b 789 1101 487 1048 624 1101 b 1201 940 954 1101 1091 1048 b 1364 531 1310 832 1364 695 b 1201 122 1364 366 1310 230 b 789 -40 1091 14 954 -40 b 378 122 623 -40 486 14 z m 801 232 b 974 288 875 232 932 250 b 1036 439 1015 325 1036 375 b 978 583 1036 500 1017 548 b 821 636 939 619 887 636 b 657 572 749 636 694 615 b 806 769 663 704 713 769 b 914 707 857 769 894 749 l 1019 736 b 942 827 1005 775 979 805 b 807 860 905 849 860 860 b 618 774 725 860 662 831 b 553 531 575 717 553 636 b 615 309 553 434 574 360 b 801 232 657 258 719 232 z m 803 321 b 707 352 763 321 731 331 b 671 440 683 373 671 402 b 707 519 671 472 683 498 b 803 549 730 539 762 549 b 896 518 844 549 875 538 b 928 435 917 497 928 469 b 895 351 928 400 917 372 b 803 321 873 331 843 321 z "},"⑦":{"ha":1578,"x_min":0,"x_max":0,"o":"m 1290 43 b 1489 531 1423 173 1489 335 b 1290 1019 1489 727 1423 890 b 789 1213 1159 1148 992 1213 b 288 1019 586 1213 419 1148 b 89 531 155 890 89 727 b 288 43 89 335 155 173 b 789 -151 418 -87 585 -151 b 1290 43 993 -151 1160 -87 z m 378 122 b 214 531 269 229 214 365 b 378 940 214 695 269 832 b 789 1101 487 1048 624 1101 b 1201 940 954 1101 1091 1048 b 1364 531 1310 832 1364 695 b 1201 122 1364 366 1310 230 b 789 -40 1091 14 954 -40 b 378 122 623 -40 486 14 z m 793 225 b 869 522 804 344 829 443 b 1042 731 908 602 966 671 l 1042 818 l 582 818 l 582 726 l 910 726 b 681 225 778 609 702 442 z "},"⑧":{"ha":1578,"x_min":0,"x_max":0,"o":"m 1290 43 b 1489 531 1423 173 1489 335 b 1290 1019 1489 727 1423 890 b 789 1213 1159 1148 992 1213 b 288 1019 586 1213 419 1148 b 89 531 155 890 89 727 b 288 43 89 335 155 173 b 789 -151 418 -87 585 -151 b 1290 43 993 -151 1160 -87 z m 378 122 b 214 531 269 229 214 365 b 378 940 214 695 269 832 b 789 1101 487 1048 624 1101 b 1201 940 954 1101 1091 1048 b 1364 531 1310 832 1364 695 b 1201 122 1364 366 1310 230 b 789 -40 1091 14 954 -40 b 378 122 623 -40 486 14 z m 972 279 b 1039 413 1017 312 1039 356 b 1006 508 1039 450 1028 481 b 915 563 984 534 954 552 l 915 565 b 1008 693 977 588 1008 631 b 949 807 1008 741 989 779 b 789 849 910 835 856 849 b 628 807 721 849 668 835 b 569 693 589 779 569 741 b 663 565 569 631 600 588 l 663 563 b 572 507 625 552 594 534 b 539 413 550 480 539 449 b 606 279 539 356 561 312 b 789 231 651 247 712 231 b 972 279 866 231 927 247 z m 676 683 b 789 764 676 737 714 764 b 901 683 864 764 901 737 b 789 600 901 628 864 600 b 676 683 714 600 676 628 z m 651 418 b 789 518 651 485 697 518 b 926 418 881 518 926 485 b 789 315 926 350 881 315 b 651 418 697 315 651 350 z "},"⑨":{"ha":1578,"x_min":0,"x_max":0,"o":"m 1290 43 b 1489 531 1423 173 1489 335 b 1290 1019 1489 727 1423 890 b 789 1213 1159 1148 992 1213 b 288 1019 586 1213 419 1148 b 89 531 155 890 89 727 b 288 43 89 335 155 173 b 789 -151 418 -87 585 -151 b 1290 43 993 -151 1160 -87 z m 378 122 b 214 531 269 229 214 365 b 378 940 214 695 269 832 b 789 1101 487 1048 624 1101 b 1201 940 954 1101 1091 1048 b 1364 531 1310 832 1364 695 b 1201 122 1364 366 1310 230 b 789 -40 1091 14 954 -40 b 378 122 623 -40 486 14 z m 786 215 b 975 301 869 215 931 244 b 1040 544 1019 358 1040 439 b 978 766 1040 641 1019 715 b 792 843 936 817 874 843 b 619 788 719 843 661 825 b 557 636 578 750 557 700 b 615 492 557 575 576 527 b 772 439 654 456 706 439 b 936 503 844 439 899 460 b 788 306 930 371 880 306 b 679 368 737 306 700 326 l 574 339 b 651 248 588 300 614 270 b 786 215 688 226 733 215 z m 699 557 b 665 640 676 578 665 606 b 698 724 665 675 676 703 b 790 754 720 744 750 754 b 886 723 830 754 862 744 b 922 635 910 702 922 673 b 886 557 922 602 910 576 b 790 526 863 537 831 526 b 699 557 750 526 719 537 z "},"⓪":{"ha":1578,"x_min":0,"x_max":0,"o":"m 1290 43 b 1489 531 1423 173 1489 335 b 1290 1019 1489 727 1423 890 b 789 1213 1159 1148 992 1213 b 288 1019 586 1213 419 1148 b 89 531 155 890 89 727 b 288 43 89 335 155 173 b 789 -151 418 -87 585 -151 b 1290 43 993 -151 1160 -87 z m 378 122 b 214 531 269 229 214 365 b 378 940 214 695 269 832 b 789 1101 487 1048 624 1101 b 1201 940 954 1101 1091 1048 b 1364 531 1310 832 1364 695 b 1201 122 1364 366 1310 230 b 789 -40 1091 14 954 -40 b 378 122 623 -40 486 14 z m 789 221 b 981 301 873 221 937 248 b 1046 535 1024 355 1046 433 b 981 768 1046 637 1024 714 b 789 849 937 822 873 849 b 599 768 706 849 642 822 b 533 535 555 714 533 637 b 599 301 533 433 555 355 b 789 221 642 248 706 221 z m 683 369 b 649 535 660 402 649 457 b 683 700 649 611 660 666 b 789 750 706 733 741 750 b 896 700 836 750 872 733 b 931 535 919 666 931 611 b 896 371 931 458 919 403 b 789 319 873 337 837 319 b 683 369 741 319 706 336 z "},"⓿":{"ha":1578,"x_min":0,"x_max":0,"o":"m 1290 43 b 1489 531 1423 173 1489 335 b 1290 1019 1489 727 1423 890 b 789 1213 1159 1148 992 1213 b 288 1019 586 1213 419 1148 b 89 531 155 890 89 727 b 288 43 89 335 155 173 b 789 -151 418 -87 585 -151 b 1290 43 993 -151 1160 -87 z m 789 221 b 599 301 706 221 642 248 b 533 535 555 355 533 433 b 599 768 533 637 555 714 b 789 849 642 822 706 849 b 981 768 873 849 937 822 b 1046 535 1024 714 1046 637 b 981 301 1046 433 1024 355 b 789 221 937 248 873 221 z m 896 371 b 931 535 919 403 931 458 b 896 700 931 611 919 666 b 789 750 873 733 837 750 b 683 699 741 750 705 733 b 649 535 660 664 649 610 b 683 369 649 457 660 402 b 789 319 706 336 741 319 b 896 371 837 319 873 337 z "},"■":{"ha":1497,"x_min":0,"x_max":0,"o":"m 1379 -122 l 1379 1111 l 118 1111 l 118 -122 z "},"□":{"ha":1497,"x_min":0,"x_max":0,"o":"m 1379 -122 l 1379 1111 l 118 1111 l 118 -122 z m 243 1000 l 1254 1000 l 1254 -11 l 243 -11 z "},"◊":{"ha":765,"x_min":0,"x_max":0,"o":"m 301 989 l 60 494 l 301 0 l 464 0 l 706 494 l 464 989 z m 183 494 l 382 922 l 581 494 l 382 67 z "},"○":{"ha":1578,"x_min":0,"x_max":0,"o":"m 1290 43 b 1489 531 1423 173 1489 335 b 1290 1019 1489 727 1423 890 b 789 1213 1159 1148 992 1213 b 288 1019 586 1213 419 1148 b 89 531 155 890 89 727 b 288 43 89 335 155 173 b 789 -151 418 -87 585 -151 b 1290 43 993 -151 1160 -87 z m 378 122 b 214 531 269 229 214 365 b 378 940 214 695 269 832 b 789 1101 487 1048 624 1101 b 1201 940 954 1101 1091 1048 b 1364 531 1310 832 1364 695 b 1201 122 1364 366 1310 230 b 789 -40 1091 14 954 -40 b 378 122 623 -40 486 14 z "},"●":{"ha":1578,"x_min":0,"x_max":0,"o":"m 1290 43 b 1489 531 1423 173 1489 335 b 1290 1019 1489 727 1423 890 b 789 1213 1159 1148 992 1213 b 288 1019 586 1213 419 1148 b 89 531 155 890 89 727 b 288 43 89 335 155 173 b 789 -151 418 -87 585 -151 b 1290 43 993 -151 1160 -87 z "},"❶":{"ha":1578,"x_min":0,"x_max":0,"o":"m 1290 43 b 1489 531 1423 173 1489 335 b 1290 1019 1489 727 1423 890 b 789 1213 1159 1148 992 1213 b 288 1019 586 1213 419 1148 b 89 531 155 890 89 727 b 288 43 89 335 155 173 b 789 -151 418 -87 585 -151 b 1290 43 993 -151 1160 -87 z m 751 658 l 608 658 l 608 740 l 657 740 b 765 814 721 740 757 765 l 769 839 l 858 839 l 858 246 l 751 246 z "},"❷":{"ha":1578,"x_min":0,"x_max":0,"o":"m 288 1019 b 89 531 155 890 89 727 b 288 43 89 335 155 173 b 789 -151 418 -87 585 -151 b 1290 43 993 -151 1160 -87 b 1489 531 1423 173 1489 335 b 1290 1019 1489 727 1423 890 b 789 1213 1159 1148 992 1213 b 288 1019 586 1213 419 1148 z m 1024 250 l 565 250 b 711 508 565 375 614 461 l 829 565 b 914 671 886 593 914 628 b 800 761 914 731 876 761 b 714 734 759 761 731 752 b 686 647 697 716 688 687 l 575 647 b 635 801 577 713 597 764 b 800 856 674 837 729 856 b 964 806 869 856 923 839 b 1025 671 1005 773 1025 728 b 990 564 1025 629 1013 594 b 878 483 966 534 929 507 l 806 449 b 725 400 768 430 741 414 b 696 346 709 386 700 368 l 1024 346 z "},"❸":{"ha":1578,"x_min":0,"x_max":0,"o":"m 1290 43 b 1489 531 1423 173 1489 335 b 1290 1019 1489 727 1423 890 b 789 1213 1159 1148 992 1213 b 288 1019 586 1213 419 1148 b 89 531 155 890 89 727 b 288 43 89 335 155 173 b 789 -151 418 -87 585 -151 b 1290 43 993 -151 1160 -87 z m 790 221 b 614 272 715 221 656 238 b 550 418 571 306 550 355 l 661 418 b 792 311 664 347 707 311 b 918 404 876 311 918 342 b 793 494 918 464 876 494 l 739 494 l 739 590 l 793 590 b 897 672 863 590 897 618 b 782 758 897 730 859 758 b 663 665 706 758 666 727 l 551 665 b 613 800 551 723 572 768 b 781 849 654 832 710 849 b 947 803 851 849 906 834 b 1008 682 988 773 1008 733 b 983 599 1008 650 1000 622 b 914 551 967 575 944 560 l 914 549 b 999 494 950 538 978 520 b 1029 401 1019 469 1029 438 b 964 271 1029 348 1007 304 b 790 221 920 238 863 221 z "},"❹":{"ha":1578,"x_min":0,"x_max":0,"o":"m 1290 43 b 1489 531 1423 173 1489 335 b 1290 1019 1489 727 1423 890 b 789 1213 1159 1148 992 1213 b 288 1019 586 1213 419 1148 b 89 531 155 890 89 727 b 288 43 89 335 155 173 b 789 -151 418 -87 585 -151 b 1290 43 993 -151 1160 -87 z m 813 389 l 525 386 l 525 479 l 806 846 l 919 846 l 919 469 l 1025 472 l 1025 386 l 919 389 l 919 253 l 813 253 z m 813 721 l 807 721 l 619 472 l 813 469 z "},"❺":{"ha":1578,"x_min":0,"x_max":0,"o":"m 288 1019 b 89 531 155 890 89 727 b 288 43 89 335 155 173 b 789 -151 418 -87 585 -151 b 1290 43 993 -151 1160 -87 b 1489 531 1423 173 1489 335 b 1290 1019 1489 727 1423 890 b 789 1213 1159 1148 992 1213 b 288 1019 586 1213 419 1148 z m 794 218 b 560 363 668 218 589 266 l 669 386 b 796 310 687 335 729 310 b 893 340 838 310 870 320 b 928 422 916 359 928 387 b 893 508 928 458 916 487 b 796 540 870 530 838 540 b 686 497 749 540 712 526 l 575 521 l 635 835 l 994 835 l 994 743 l 711 743 l 686 593 l 689 590 b 822 626 724 614 769 626 b 982 572 891 626 944 608 b 1039 428 1020 535 1039 487 b 974 276 1039 366 1017 315 b 794 218 931 238 871 218 z "},"❻":{"ha":1578,"x_min":0,"x_max":0,"o":"m 1290 43 b 1489 531 1423 173 1489 335 b 1290 1019 1489 727 1423 890 b 789 1213 1159 1148 992 1213 b 288 1019 586 1213 419 1148 b 89 531 155 890 89 727 b 288 43 89 335 155 173 b 789 -151 418 -87 585 -151 b 1290 43 993 -151 1160 -87 z m 794 232 b 608 309 712 232 650 258 b 546 531 567 360 546 434 b 611 774 546 636 568 717 b 800 860 655 831 718 860 b 935 827 853 860 898 849 b 1013 736 972 805 998 775 l 907 707 b 799 769 886 749 850 769 b 650 572 706 769 656 704 b 814 636 687 615 742 636 b 971 583 880 636 932 619 b 1029 439 1010 548 1029 500 b 967 288 1029 375 1008 325 b 794 232 925 250 868 232 z m 796 321 b 889 351 837 321 868 331 b 921 435 910 373 921 400 b 889 518 921 469 910 497 b 796 549 868 538 837 549 b 700 519 756 549 724 539 b 664 440 676 499 664 473 b 700 352 664 402 676 373 b 796 321 724 331 756 321 z "},"❼":{"ha":1578,"x_min":0,"x_max":0,"o":"m 1290 43 b 1489 531 1423 173 1489 335 b 1290 1019 1489 727 1423 890 b 789 1213 1159 1148 992 1213 b 288 1019 586 1213 419 1148 b 89 531 155 890 89 727 b 288 43 89 335 155 173 b 789 -151 418 -87 585 -151 b 1290 43 993 -151 1160 -87 z m 688 225 b 917 726 709 442 785 609 l 589 726 l 589 818 l 1049 818 l 1049 731 b 876 522 973 671 915 602 b 800 225 836 443 811 344 z "},"❽":{"ha":1578,"x_min":0,"x_max":0,"o":"m 1290 43 b 1489 531 1423 173 1489 335 b 1290 1019 1489 727 1423 890 b 789 1213 1159 1148 992 1213 b 288 1019 586 1213 419 1148 b 89 531 155 890 89 727 b 288 43 89 335 155 173 b 789 -151 418 -87 585 -151 b 1290 43 993 -151 1160 -87 z m 606 279 b 539 413 561 312 539 356 b 572 507 539 449 550 480 b 663 563 594 534 625 552 l 663 565 b 569 693 600 588 569 631 b 628 807 569 741 589 779 b 789 849 668 835 721 849 b 949 807 856 849 910 835 b 1008 693 989 779 1008 741 b 915 565 1008 631 977 588 l 915 563 b 1006 508 954 552 984 534 b 1039 413 1028 481 1039 450 b 972 279 1039 356 1017 312 b 789 231 927 247 866 231 b 606 279 712 231 651 247 z m 901 683 b 789 764 901 737 864 764 b 676 683 714 764 676 737 b 789 600 676 628 714 600 b 901 683 864 600 901 628 z m 926 418 b 789 518 926 485 881 518 b 651 418 697 518 651 485 b 789 315 651 350 697 315 b 926 418 881 315 926 350 z "},"❾":{"ha":1578,"x_min":0,"x_max":0,"o":"m 1290 43 b 1489 531 1423 173 1489 335 b 1290 1019 1489 727 1423 890 b 789 1213 1159 1148 992 1213 b 288 1019 586 1213 419 1148 b 89 531 155 890 89 727 b 288 43 89 335 155 173 b 789 -151 418 -87 585 -151 b 1290 43 993 -151 1160 -87 z m 789 214 b 654 247 736 214 691 225 b 576 338 617 268 591 299 l 682 367 b 790 304 703 325 739 304 b 939 501 883 304 932 370 b 775 438 902 459 847 438 b 618 490 709 438 657 455 b 560 635 579 525 560 574 b 622 786 560 699 581 749 b 794 842 664 823 721 842 b 981 765 877 842 939 816 b 1043 543 1022 713 1043 639 b 978 299 1043 438 1021 356 b 789 214 934 242 871 214 z m 889 556 b 925 633 913 575 925 601 b 889 722 925 671 913 701 b 793 753 865 742 833 753 b 701 722 753 753 722 743 b 668 639 679 702 668 674 b 701 556 668 604 679 576 b 793 525 722 535 752 525 b 889 556 834 525 866 535 z "},"⸘":{"ha":846,"x_min":0,"x_max":0,"o":"m 357 717 l 357 576 l 500 576 l 500 717 z m 653 29 b 426 -187 647 -115 572 -187 b 266 -143 358 -187 304 -173 b 208 -12 228 -113 208 -70 b 332 179 208 61 250 125 b 371 208 353 194 366 204 l 364 103 l 364 -22 l 493 -22 l 493 103 l 469 472 l 388 472 b 365 339 382 406 375 361 b 300 272 356 316 334 294 l 231 229 b 89 -15 136 169 89 88 b 181 -217 89 -101 119 -169 b 426 -290 242 -266 324 -290 b 678 -207 536 -290 620 -262 b 775 29 737 -151 769 -73 z "}}}
